<svg xmlns="http://www.w3.org/2000/svg" fill="none" viewBox="0 0 138 28" height="28" width="138">
<path fill="#1D2C4E" d="M135.295 9.4592C135.295 9.2346 135.26 9.03303 135.191 8.8545C135.128 8.67021 135.007 8.5032 134.828 8.35347C134.65 8.19797 134.399 8.04536 134.077 7.89562C133.754 7.74589 133.337 7.5904 132.824 7.42914C132.254 7.24485 131.713 7.03753 131.2 6.80717C130.693 6.57681 130.244 6.30901 129.852 6.00378C129.467 5.6928 129.161 5.33286 128.937 4.92397C128.718 4.51508 128.608 4.03996 128.608 3.49861C128.608 2.97454 128.724 2.49942 128.954 2.07325C129.184 1.64132 129.507 1.27274 129.922 0.967516C130.336 0.656529 130.826 0.417529 131.39 0.250518C131.96 0.0835059 132.585 0 133.265 0C134.192 0 135.001 0.167012 135.692 0.501035C136.383 0.835059 136.919 1.2929 137.299 1.87456C137.685 2.45622 137.878 3.12139 137.878 3.87007H135.303C135.303 3.50149 135.226 3.17898 135.07 2.90255C134.92 2.62036 134.69 2.39863 134.379 2.23738C134.074 2.07613 133.688 1.9955 133.221 1.9955C132.772 1.9955 132.398 2.06461 132.098 2.20283C131.799 2.33528 131.574 2.51669 131.425 2.74706C131.275 2.97166 131.2 3.22505 131.2 3.50725C131.2 3.72033 131.252 3.91326 131.356 4.08603C131.465 4.2588 131.626 4.42005 131.839 4.56979C132.052 4.71952 132.314 4.86062 132.625 4.99308C132.936 5.12553 133.296 5.25511 133.705 5.38181C134.391 5.58914 134.992 5.82238 135.511 6.08153C136.035 6.34069 136.472 6.63152 136.824 6.95402C137.175 7.27653 137.44 7.64223 137.618 8.05112C137.797 8.46001 137.886 8.92361 137.886 9.44192C137.886 9.98903 137.78 10.4785 137.567 10.9105C137.354 11.3424 137.045 11.7081 136.642 12.0076C136.239 12.307 135.758 12.5345 135.2 12.69C134.641 12.8455 134.016 12.9233 133.325 12.9233C132.703 12.9233 132.09 12.8426 131.485 12.6814C130.88 12.5144 130.33 12.2638 129.835 11.9298C129.346 11.5958 128.954 11.1696 128.66 10.6513C128.367 10.133 128.22 9.51967 128.22 8.81131H130.82C130.82 9.20292 130.88 9.53407 131.001 9.80474C131.122 10.0754 131.292 10.2943 131.511 10.4613C131.736 10.6283 132.001 10.7492 132.306 10.8241C132.617 10.899 132.957 10.9364 133.325 10.9364C133.774 10.9364 134.143 10.873 134.431 10.7463C134.725 10.6196 134.941 10.444 135.079 10.2194C135.223 9.99479 135.295 9.74139 135.295 9.4592Z"></path>
<path fill="#1D2C4E" d="M114.229 0.172852H118.919C119.881 0.172852 120.707 0.316827 121.398 0.604779C122.095 0.89273 122.631 1.3189 123.005 1.88328C123.38 2.44767 123.567 3.14163 123.567 3.96517C123.567 4.63898 123.452 5.21776 123.221 5.70152C122.997 6.17952 122.677 6.57977 122.262 6.90227C121.853 7.21902 121.373 7.47242 120.82 7.66246L119.999 8.09439H115.922L115.904 6.07297H118.937C119.391 6.07297 119.769 5.99235 120.068 5.83109C120.368 5.66984 120.592 5.44524 120.742 5.15729C120.897 4.86934 120.975 4.53531 120.975 4.15522C120.975 3.75209 120.9 3.40367 120.751 3.10996C120.601 2.81624 120.373 2.59164 120.068 2.43615C119.763 2.28066 119.38 2.20291 118.919 2.20291H116.82V12.7506H114.229V0.172852ZM121.26 12.7506L118.392 7.14415L121.131 7.12688L124.033 12.6296V12.7506H121.26Z"></path>
<path fill="#1D2C4E" d="M109.532 10.7291V12.7506H102.837V10.7291H109.532ZM103.684 0.172852V12.7506H101.092V0.172852H103.684ZM108.66 5.29551V7.26509H102.837V5.29551H108.66ZM109.523 0.172852V2.20291H102.837V0.172852H109.523Z"></path>
<path fill="#1D2C4E" d="M89.2512 0.172852V12.7506H86.6597V0.172852H89.2512ZM96.784 0.172852L91.7996 6.38396L88.923 9.47656L88.4565 7.02321L90.4001 4.36254L93.6051 0.172852H96.784ZM93.8383 12.7506L90.1324 6.93683L92.0501 5.33006L96.905 12.7506H93.8383Z"></path>
<path fill="#1D2C4E" d="M72.1416 0.172852H76.8323C77.7941 0.172852 78.6205 0.316827 79.3116 0.604779C80.0084 0.89273 80.544 1.3189 80.9184 1.88328C81.2927 2.44767 81.4799 3.14163 81.4799 3.96517C81.4799 4.63898 81.3647 5.21776 81.1343 5.70152C80.9097 6.17952 80.5901 6.57977 80.1754 6.90227C79.7665 7.21902 79.2857 7.47242 78.7328 7.66246L77.9121 8.09439H73.8348L73.8175 6.07297H76.8496C77.3046 6.07297 77.6818 5.99235 77.9812 5.83109C78.2807 5.66984 78.5053 5.44524 78.6551 5.15729C78.8106 4.86934 78.8883 4.53531 78.8883 4.15522C78.8883 3.75209 78.8134 3.40367 78.6637 3.10996C78.514 2.81624 78.2865 2.59164 77.9812 2.43615C77.676 2.28066 77.293 2.20291 76.8323 2.20291H74.7332V12.7506H72.1416V0.172852ZM79.1734 12.7506L76.3054 7.14415L79.0438 7.12688L81.9463 12.6296V12.7506H79.1734Z"></path>
<path fill="#1D2C4E" d="M62.1849 2.32385L58.764 12.7506H56.0083L60.6817 0.172852H62.4354L62.1849 2.32385ZM65.0269 12.7506L61.5974 2.32385L61.321 0.172852H63.0919L67.7913 12.7506H65.0269ZM64.8714 8.06848V10.0985H58.2284V8.06848H64.8714Z"></path>
<path fill="#1D2C4E" d="M39.4164 0.172852H41.6106L44.8414 9.40745L48.0722 0.172852H50.2664L45.7225 12.7506H43.9603L39.4164 0.172852ZM38.2329 0.172852H40.4185L40.8158 9.17421V12.7506H38.2329V0.172852ZM49.2643 0.172852H51.4585V12.7506H48.867V9.17421L49.2643 0.172852Z"></path>
<path fill="#1D2C4E" d="M33.183 6.16792V6.76398C33.183 7.71997 33.0534 8.57807 32.7942 9.33826C32.5351 10.0985 32.1694 10.7463 31.6971 11.2819C31.2249 11.8118 30.6605 12.2178 30.004 12.5C29.3532 12.7822 28.6305 12.9233 27.8357 12.9233C27.0467 12.9233 26.324 12.7822 25.6675 12.5C25.0167 12.2178 24.4523 11.8118 23.9743 11.2819C23.4963 10.7463 23.1248 10.0985 22.8599 9.33826C22.6008 8.57807 22.4712 7.71997 22.4712 6.76398V6.16792C22.4712 5.20616 22.6008 4.34806 22.8599 3.59363C23.1191 2.83344 23.4848 2.18555 23.957 1.64996C24.435 1.11437 24.9994 0.705481 25.6502 0.423288C26.3067 0.141096 27.0295 0 27.8184 0C28.6132 0 29.3359 0.141096 29.9867 0.423288C30.6432 0.705481 31.2076 1.11437 31.6799 1.64996C32.1579 2.18555 32.5265 2.83344 32.7856 3.59363C33.0505 4.34806 33.183 5.20616 33.183 6.16792ZM30.5655 6.76398V6.15064C30.5655 5.48259 30.505 4.89517 30.3841 4.38838C30.2632 3.88158 30.0846 3.45542 29.8485 3.10987C29.6124 2.76433 29.3244 2.50518 28.9847 2.33241C28.6449 2.15388 28.2561 2.06461 27.8184 2.06461C27.3808 2.06461 26.992 2.15388 26.6522 2.33241C26.3182 2.50518 26.0331 2.76433 25.797 3.10987C25.5667 3.45542 25.391 3.88158 25.2701 4.38838C25.1491 4.89517 25.0887 5.48259 25.0887 6.15064V6.76398C25.0887 7.42626 25.1491 8.01368 25.2701 8.52624C25.391 9.03303 25.5695 9.46208 25.8057 9.81338C26.0418 10.1589 26.3297 10.421 26.6695 10.5995C27.0093 10.778 27.398 10.8673 27.8357 10.8673C28.2734 10.8673 28.6621 10.778 29.0019 10.5995C29.3417 10.421 29.6268 10.1589 29.8571 9.81338C30.0875 9.46208 30.2632 9.03303 30.3841 8.52624C30.505 8.01368 30.5655 7.42626 30.5655 6.76398Z"></path>
<path fill="#1D2C4E" d="M17.2397 0.172852V12.7506H14.6567V0.172852H17.2397Z"></path>
<path fill="#1D2C4E" d="M4.92397 7.23054H1.69315L1.67588 5.451H4.38838C4.86638 5.451 5.25799 5.39053 5.56322 5.26959C5.86845 5.14289 6.09593 4.96148 6.24566 4.72536C6.40116 4.48348 6.4789 4.18977 6.4789 3.84423C6.4789 3.45262 6.40404 3.13587 6.2543 2.89399C6.11033 2.65211 5.88284 2.47646 5.57186 2.36704C5.26663 2.25762 4.87214 2.20291 4.38838 2.20291H2.59156V12.7506H0V0.172852H4.38838C5.11977 0.172852 5.77342 0.24196 6.34933 0.380176C6.93099 0.518393 7.42338 0.728598 7.82652 1.01079C8.22965 1.29298 8.53776 1.65004 8.75084 2.08197C8.96392 2.50814 9.07047 3.01493 9.07047 3.60235C9.07047 4.12066 8.95241 4.59866 8.71629 5.03635C8.48592 5.47403 8.12023 5.83109 7.61919 6.10753C7.12392 6.38396 6.47602 6.53658 5.67552 6.56537L4.92397 7.23054ZM4.81167 12.7506H0.984794L1.9955 10.7291H4.81167C5.26663 10.7291 5.63809 10.6572 5.92604 10.5132C6.21399 10.3634 6.42707 10.1619 6.56529 9.90849C6.70351 9.65509 6.77261 9.36426 6.77261 9.03599C6.77261 8.66741 6.70927 8.34779 6.58257 8.07712C6.46163 7.80644 6.26582 7.59912 5.99515 7.45514C5.72447 7.30541 5.36741 7.23054 4.92397 7.23054H2.42743L2.44471 5.451H5.55458L6.15064 6.15072C6.91659 6.1392 7.53281 6.27454 7.99929 6.55673C8.47153 6.83316 8.81419 7.1931 9.02727 7.63655C9.24612 8.07999 9.35554 8.55511 9.35554 9.06191C9.35554 9.86817 9.17989 10.5477 8.82859 11.1006C8.47729 11.6477 7.96185 12.0595 7.28229 12.3359C6.60848 12.6123 5.78494 12.7506 4.81167 12.7506Z"></path>
<path fill="#1D2C4E" d="M31.437 27.1795V21.0591H32.3114L35.4328 25.7543V21.0591H36.3071V27.1795H35.4328L32.3114 22.493V27.1795H31.437Z"></path>
<path fill="#1D2C4E" d="M22.4946 27.1795L24.7417 21.0591H25.6947L27.9418 27.1795H27.0063L25.2139 22.1083L23.4127 27.1795H22.4946ZM23.5089 25.6669L23.7537 24.9674H26.6303L26.8751 25.6669H23.5089Z"></path>
<path fill="#1D2C4E" d="M17.2522 27.1795V24.9062L15.2324 21.0591H16.2204L17.803 24.2767H17.5844L19.1583 21.0591H20.1375L18.1265 24.9062V27.1795H17.2522Z"></path>
<path fill="#1D2C4E" d="M8.02734 27.1795V21.0591H10.0996C10.5834 21.0591 10.9797 21.1407 11.2887 21.3039C11.5976 21.4671 11.8249 21.6857 11.9707 21.9597C12.1222 22.2278 12.198 22.5338 12.198 22.8777C12.198 23.2042 12.1222 23.5073 11.9707 23.7871C11.8249 24.061 11.5947 24.2825 11.2799 24.4516C10.9652 24.6148 10.563 24.6964 10.0733 24.6964H8.90169V27.1795H8.02734ZM11.245 27.1795L9.92468 24.4603H10.8865L12.2592 27.1795H11.245ZM8.90169 24.0319H10.0383C10.4697 24.0319 10.7874 23.9269 10.9914 23.7171C11.1954 23.5014 11.2974 23.2275 11.2974 22.8952C11.2974 22.5571 11.1983 22.289 11.0001 22.0908C10.8019 21.8926 10.4814 21.7935 10.0383 21.7935H8.90169V24.0319Z"></path>
<path fill="#1D2C4E" d="M0.0336914 27.1795V21.0591H2.29826C2.72377 21.0591 3.07934 21.129 3.36496 21.2689C3.65058 21.403 3.86334 21.5895 4.00324 21.8285C4.14896 22.0617 4.22183 22.3269 4.22183 22.6242C4.22183 22.9331 4.15479 23.1925 4.02073 23.4023C3.88666 23.6122 3.70887 23.7754 3.48737 23.892C3.2717 24.0027 3.03854 24.0668 2.78789 24.0843L2.9103 23.9969C3.17844 24.0027 3.42325 24.0756 3.64475 24.2155C3.86626 24.3496 4.04113 24.5302 4.16936 24.7576C4.2976 24.9849 4.36172 25.2356 4.36172 25.5095C4.36172 25.8243 4.28594 26.1099 4.13439 26.3664C3.98284 26.617 3.75842 26.8152 3.46114 26.9609C3.16386 27.1067 2.79955 27.1795 2.3682 27.1795H0.0336914ZM0.908041 26.4538H2.25454C2.63925 26.4538 2.93653 26.3664 3.14638 26.1915C3.36205 26.0108 3.46988 25.7573 3.46988 25.4308C3.46988 25.1102 3.35913 24.8538 3.13763 24.6614C2.92196 24.469 2.62177 24.3729 2.23705 24.3729H0.908041V26.4538ZM0.908041 23.6996H2.20208C2.5693 23.6996 2.8491 23.6151 3.04145 23.4461C3.23381 23.2712 3.32999 23.0322 3.32999 22.7291C3.32999 22.4376 3.23381 22.2074 3.04145 22.0384C2.8491 21.8635 2.56056 21.776 2.17585 21.776H0.908041V23.6996Z"></path>
<path fill="#1D2C4E" d="M93.9556 27.1795V21.0591H94.8299L97.9513 25.7543V21.0591H98.8257V27.1795H97.9513L94.8299 22.493V27.1795H93.9556Z"></path>
<path fill="#1D2C4E" d="M87.2896 27.2839C86.7009 27.2839 86.1821 27.1528 85.7333 26.8904C85.2903 26.6223 84.9406 26.2522 84.6841 25.78C84.4334 25.302 84.3081 24.7483 84.3081 24.1188C84.3081 23.4951 84.4334 22.9471 84.6841 22.475C84.9406 21.997 85.2903 21.6239 85.7333 21.3558C86.1821 21.0877 86.7009 20.9536 87.2896 20.9536C87.89 20.9536 88.4146 21.0877 88.8635 21.3558C89.3123 21.6239 89.6591 21.997 89.9039 22.475C90.1546 22.9471 90.2799 23.4951 90.2799 24.1188C90.2799 24.7483 90.1546 25.302 89.9039 25.78C89.6591 26.2522 89.3123 26.6223 88.8635 26.8904C88.4146 27.1528 87.89 27.2839 87.2896 27.2839ZM87.2984 26.5057C87.7181 26.5057 88.0853 26.4096 88.4001 26.2172C88.7148 26.0248 88.9567 25.7509 89.1258 25.3953C89.3006 25.0397 89.3881 24.6142 89.3881 24.1188C89.3881 23.6233 89.3006 23.1978 89.1258 22.8422C88.9567 22.4866 88.7148 22.2156 88.4001 22.0291C88.0853 21.8367 87.7181 21.7405 87.2984 21.7405C86.8787 21.7405 86.5115 21.8367 86.1967 22.0291C85.8819 22.2156 85.6371 22.4866 85.4622 22.8422C85.2874 23.1978 85.1999 23.6233 85.1999 24.1188C85.1999 24.6142 85.2874 25.0397 85.4622 25.3953C85.6371 25.7509 85.8819 26.0248 86.1967 26.2172C86.5115 26.4096 86.8787 26.5057 87.2984 26.5057Z"></path>
<path fill="#1D2C4E" d="M78.7832 27.2839C78.3344 27.2839 77.9409 27.2052 77.6028 27.0478C77.2648 26.8846 77.0025 26.6573 76.8159 26.3658C76.6294 26.0744 76.5361 25.7334 76.5361 25.3428H77.4542C77.46 25.5643 77.5125 25.7684 77.6116 25.9549C77.7165 26.1356 77.8651 26.2813 78.0575 26.3921C78.2557 26.497 78.4976 26.5495 78.7832 26.5495C79.028 26.5495 79.2379 26.5086 79.4127 26.427C79.5934 26.3454 79.7304 26.2347 79.8237 26.0948C79.917 25.9491 79.9636 25.7829 79.9636 25.5964C79.9636 25.3807 79.914 25.203 79.8149 25.0631C79.7159 24.9232 79.5818 24.8095 79.4127 24.7221C79.2495 24.6288 79.0572 24.5472 78.8357 24.4772C78.62 24.4073 78.3927 24.3315 78.1537 24.2499C77.6699 24.0925 77.3085 23.8885 77.0695 23.6379C76.8363 23.3872 76.7197 23.0608 76.7197 22.6586C76.7197 22.3147 76.8014 22.0174 76.9646 21.7668C77.1278 21.5103 77.3551 21.3121 77.6466 21.1722C77.9438 21.0265 78.2936 20.9536 78.6958 20.9536C79.0921 20.9536 79.439 21.0265 79.7363 21.1722C80.0335 21.3179 80.2667 21.519 80.4357 21.7755C80.6048 22.032 80.6893 22.3322 80.6893 22.6761H79.7625C79.7625 22.5187 79.7217 22.3642 79.6401 22.2127C79.5585 22.0611 79.4361 21.9387 79.2728 21.8454C79.1096 21.7464 78.9085 21.6968 78.6695 21.6968C78.4714 21.691 78.2936 21.723 78.1362 21.793C77.9788 21.8629 77.8564 21.9649 77.769 22.099C77.6815 22.2331 77.6378 22.3934 77.6378 22.5799C77.6378 22.7664 77.6757 22.918 77.7515 23.0346C77.8331 23.1453 77.9497 23.2415 78.1012 23.3231C78.2528 23.4047 78.4276 23.4805 78.6258 23.5504C78.8298 23.6146 79.0543 23.6874 79.2991 23.769C79.6022 23.8681 79.8703 23.9905 80.1035 24.1362C80.3425 24.2761 80.529 24.4598 80.6631 24.6871C80.803 24.9086 80.8729 25.1942 80.8729 25.5439C80.8729 25.8471 80.7942 26.1298 80.6368 26.3921C80.4794 26.6544 80.2463 26.87 79.9374 27.0391C79.6284 27.2023 79.2437 27.2839 78.7832 27.2839Z"></path>
<path fill="#1D2C4E" d="M68.0107 27.1795V21.0591H68.8851L72.0065 25.7543V21.0591H72.8809V27.1795H72.0065L68.8851 22.493V27.1795H68.0107Z"></path>
<path fill="#1D2C4E" d="M63.2322 27.1795V21.0591H64.1065V27.1795H63.2322ZM59.3413 27.1795V21.0591H60.2157V27.1795H59.3413ZM60.067 24.4166V23.6996H63.4245V24.4166H60.067Z"></path>
<path fill="#1D2C4E" d="M52.6759 27.2839C52.0871 27.2839 51.5684 27.1528 51.1195 26.8904C50.6765 26.6223 50.3268 26.2522 50.0703 25.78C49.8197 25.302 49.6943 24.7483 49.6943 24.1188C49.6943 23.4951 49.8197 22.9471 50.0703 22.475C50.3268 21.997 50.6765 21.6239 51.1195 21.3558C51.5684 21.0877 52.0871 20.9536 52.6759 20.9536C53.2763 20.9536 53.8009 21.0877 54.2497 21.3558C54.6985 21.6239 55.0454 21.997 55.2902 22.475C55.5408 22.9471 55.6661 23.4951 55.6661 24.1188C55.6661 24.7483 55.5408 25.302 55.2902 25.78C55.0454 26.2522 54.6985 26.6223 54.2497 26.8904C53.8009 27.1528 53.2763 27.2839 52.6759 27.2839ZM52.6846 26.5057C53.1043 26.5057 53.4715 26.4096 53.7863 26.2172C54.1011 26.0248 54.343 25.7509 54.512 25.3953C54.6869 25.0397 54.7743 24.6142 54.7743 24.1188C54.7743 23.6233 54.6869 23.1978 54.512 22.8422C54.343 22.4866 54.1011 22.2156 53.7863 22.0291C53.4715 21.8367 53.1043 21.7405 52.6846 21.7405C52.2649 21.7405 51.8977 21.8367 51.5829 22.0291C51.2682 22.2156 51.0233 22.4866 50.8485 22.8422C50.6736 23.1978 50.5862 23.6233 50.5862 24.1188C50.5862 24.6142 50.6736 25.0397 50.8485 25.3953C51.0233 25.7509 51.2682 26.0248 51.5829 26.2172C51.8977 26.4096 52.2649 26.5057 52.6846 26.5057Z"></path>
<path fill="#1D2C4E" d="M44.2594 27.2845C43.8805 27.2845 43.5541 27.2145 43.2802 27.0746C43.0062 26.9289 42.7934 26.719 42.6419 26.4451C42.4903 26.1711 42.4146 25.8447 42.4146 25.4658H43.2976C43.2976 25.664 43.3297 25.8418 43.3938 25.9992C43.4579 26.1565 43.557 26.2819 43.6911 26.3751C43.831 26.4626 44.0146 26.5063 44.2419 26.5063C44.4693 26.5063 44.6471 26.4626 44.7753 26.3751C44.9094 26.2877 45.0055 26.1711 45.0638 26.0254C45.1221 25.8738 45.1513 25.7019 45.1513 25.5095V21.0591H46.0256V25.5095C46.0256 26.0749 45.8682 26.5121 45.5535 26.821C45.2387 27.13 44.8074 27.2845 44.2594 27.2845Z"></path>
<rect stroke-width="0.496824" stroke="#1D2C4E" rx="3.63263" height="7.26527" width="30.132" y="20.4867" x="107.473"></rect>
<path fill="#1D2C4E" d="M128.314 22.8926L126.791 25.9343H126.058L128.008 22.3042H128.477L128.314 22.8926ZM128.631 25.9343L128.152 22.8203L128.185 22.3042H128.624L129.317 25.9343H128.631ZM128.813 24.5855L128.716 25.1265H126.824L126.918 24.5855H128.813Z"></path>
<path fill="#1D2C4E" d="M125.119 22.3042L124.491 25.9343H123.822L124.453 22.3042H125.119ZM126.213 22.3042L126.119 22.8452H123.279L123.374 22.3042H126.213Z"></path>
<path fill="#1D2C4E" d="M121.953 25.3958L121.858 25.9343H119.983L120.076 25.3958H121.953ZM120.821 22.3042L120.19 25.9343H119.52L120.148 22.3042H120.821ZM121.983 23.8026L121.893 24.3287H120.26L120.352 23.8026H121.983ZM122.479 22.3042L122.384 22.8452H120.517L120.614 22.3042H122.479Z"></path>
<path fill="#1D2C4E" d="M117.423 24.3162H116.488L116.571 23.8325L117.306 23.835C117.421 23.835 117.53 23.8184 117.633 23.7852C117.737 23.7503 117.825 23.6954 117.894 23.6206C117.966 23.5458 118.011 23.4461 118.029 23.3214C118.044 23.2067 118.033 23.1153 117.997 23.0472C117.96 22.9774 117.902 22.9275 117.822 22.8976C117.744 22.8677 117.652 22.851 117.545 22.8477L116.967 22.8452L116.431 25.9343H115.76L116.389 22.3042L117.565 22.3067C117.72 22.3084 117.868 22.3275 118.009 22.364C118.152 22.3989 118.278 22.4538 118.386 22.5286C118.495 22.6034 118.579 22.7023 118.637 22.8253C118.697 22.9466 118.721 23.0954 118.707 23.2716C118.696 23.4627 118.639 23.6206 118.538 23.7453C118.438 23.8699 118.31 23.9647 118.154 24.0295C117.999 24.0943 117.835 24.1326 117.66 24.1442L117.423 24.3162ZM117.122 25.9343H115.997L116.369 25.3958L117.144 25.3983C117.26 25.3966 117.368 25.3758 117.468 25.3359C117.569 25.296 117.654 25.2354 117.722 25.1539C117.791 25.0725 117.833 24.9711 117.85 24.8498C117.865 24.7434 117.859 24.652 117.832 24.5755C117.807 24.4974 117.761 24.4367 117.692 24.3935C117.626 24.3486 117.538 24.3237 117.428 24.3187L116.7 24.3162L116.787 23.8325L117.643 23.835L117.76 24.0195C117.918 24.0328 118.055 24.0744 118.171 24.1442C118.289 24.214 118.377 24.3087 118.435 24.4284C118.495 24.5481 118.52 24.6894 118.51 24.8523C118.492 25.1082 118.416 25.316 118.283 25.4756C118.152 25.6351 117.984 25.7523 117.78 25.8271C117.575 25.9002 117.356 25.936 117.122 25.9343Z"></path>
</svg>
