<svg xmlns="http://www.w3.org/2000/svg" fill="none" viewBox="0 0 158 32" height="32" width="158">
<path fill="#F6F4EC" d="M154.623 10.8105C154.623 10.5538 154.583 10.3235 154.504 10.1194C154.432 9.90882 154.294 9.71795 154.09 9.54682C153.886 9.36911 153.599 9.1947 153.231 9.02357C152.862 8.85244 152.385 8.67474 151.799 8.49045C151.148 8.27983 150.529 8.04289 149.943 7.77962C149.364 7.51635 148.851 7.2103 148.403 6.86147C147.962 6.50605 147.613 6.09469 147.357 5.62739C147.106 5.16009 146.981 4.61709 146.981 3.99841C146.981 3.39947 147.113 2.85648 147.376 2.36943C147.64 1.8758 148.008 1.45457 148.482 1.10573C148.956 0.750319 149.515 0.477176 150.16 0.286306C150.812 0.0954353 151.526 0 152.303 0C153.362 0 154.287 0.190871 155.077 0.572612C155.867 0.954353 156.479 1.4776 156.913 2.14236C157.354 2.80711 157.575 3.56731 157.575 4.42293H154.633C154.633 4.0017 154.544 3.63312 154.366 3.3172C154.195 2.99469 153.932 2.7413 153.576 2.55701C153.227 2.37272 152.786 2.28057 152.253 2.28057C151.74 2.28057 151.312 2.35956 150.97 2.51752C150.628 2.6689 150.371 2.87622 150.2 3.13949C150.029 3.39618 149.943 3.68578 149.943 4.00828C149.943 4.25181 150.002 4.47229 150.121 4.66975C150.246 4.8672 150.43 5.05149 150.674 5.22261C150.917 5.39374 151.217 5.55499 151.572 5.70637C151.928 5.85775 152.339 6.00584 152.806 6.15064C153.589 6.38758 154.277 6.65414 154.87 6.95032C155.469 7.2465 155.969 7.57888 156.37 7.94746C156.772 8.31603 157.074 8.73397 157.279 9.20128C157.483 9.66858 157.585 10.1984 157.585 10.7908C157.585 11.416 157.463 11.9755 157.219 12.4691C156.976 12.9627 156.624 13.3807 156.163 13.7229C155.702 14.0652 155.153 14.3252 154.514 14.5029C153.876 14.6806 153.162 14.7694 152.372 14.7694C151.661 14.7694 150.96 14.6773 150.269 14.493C149.578 14.3021 148.949 14.0158 148.383 13.6341C147.824 13.2523 147.376 12.7653 147.041 12.1729C146.705 11.5806 146.537 10.8796 146.537 10.0701H149.509C149.509 10.5176 149.578 10.8961 149.716 11.2054C149.854 11.5148 150.048 11.7649 150.299 11.9557C150.555 12.1466 150.858 12.2848 151.207 12.3704C151.562 12.4559 151.951 12.4987 152.372 12.4987C152.885 12.4987 153.306 12.4263 153.636 12.2815C153.971 12.1367 154.218 11.936 154.376 11.6793C154.541 11.4226 154.623 11.133 154.623 10.8105Z"></path>
<path fill="#F6F4EC" d="M130.547 0.197754H135.908C137.007 0.197754 137.951 0.362298 138.741 0.691385C139.538 1.02047 140.15 1.50752 140.577 2.15253C141.005 2.79754 141.219 3.59064 141.219 4.53183C141.219 5.3019 141.088 5.96336 140.824 6.51623C140.568 7.06251 140.202 7.51994 139.728 7.88852C139.261 8.25052 138.712 8.54011 138.08 8.75731L137.142 9.25094H132.482L132.462 6.94075H135.927C136.447 6.94075 136.879 6.84861 137.221 6.66432C137.563 6.48003 137.82 6.22334 137.991 5.89425C138.169 5.56517 138.257 5.18342 138.257 4.74903C138.257 4.28831 138.172 3.89011 138.001 3.55444C137.83 3.21877 137.57 2.96209 137.221 2.78438C136.872 2.60667 136.434 2.51782 135.908 2.51782H133.509V14.5723H130.547V0.197754ZM138.583 14.5723L135.305 8.16495L138.435 8.14521L141.752 14.4341V14.5723H138.583Z"></path>
<path fill="#F6F4EC" d="M125.18 12.2621V14.5723H117.528V12.2621H125.18ZM118.496 0.197754V14.5723H115.534V0.197754H118.496ZM124.183 6.05222V8.30317H117.528V6.05222H124.183ZM125.17 0.197754V2.51782H117.528V0.197754H125.17Z"></path>
<path fill="#F6F4EC" d="M102.001 0.197754V14.5723H99.0396V0.197754H102.001ZM110.61 0.197754L104.914 7.29616L101.626 10.8306L101.093 8.02674L103.314 4.98597L106.977 0.197754H110.61ZM107.244 14.5723L103.008 7.92801L105.2 6.0917L110.748 14.5723H107.244Z"></path>
<path fill="#F6F4EC" d="M82.4478 0.197754H87.8086C88.9077 0.197754 89.8522 0.362298 90.642 0.691385C91.4384 1.02047 92.0505 1.50752 92.4783 2.15253C92.9061 2.79754 93.12 3.59064 93.12 4.53183C93.12 5.3019 92.9884 5.96336 92.7251 6.51623C92.4685 7.06251 92.1032 7.51994 91.6293 7.88852C91.162 8.25052 90.6124 8.54011 89.9806 8.75731L89.0427 9.25094H84.3828L84.363 6.94075H87.8283C88.3483 6.94075 88.7794 6.84861 89.1216 6.66432C89.4639 6.48003 89.7206 6.22334 89.8917 5.89425C90.0694 5.56517 90.1583 5.18342 90.1583 4.74903C90.1583 4.28831 90.0727 3.89011 89.9016 3.55444C89.7304 3.21877 89.4705 2.96209 89.1216 2.78438C88.7728 2.60667 88.3351 2.51782 87.8086 2.51782H85.4095V14.5723H82.4478V0.197754ZM90.4841 14.5723L87.2063 8.16495L90.336 8.14521L93.6532 14.4341V14.5723H90.4841Z"></path>
<path fill="#F6F4EC" d="M71.0687 2.65604L67.1591 14.5723H64.0098L69.3508 0.197754H71.355L71.0687 2.65604ZM74.3168 14.5723L70.3973 2.65604L70.0814 0.197754H72.1053L77.476 14.5723H74.3168ZM74.1391 9.22132V11.5414H66.547V9.22132H74.1391Z"></path>
<path fill="#F6F4EC" d="M45.0474 0.197754H47.555L51.2474 10.7516L54.9397 0.197754H57.4474L52.2544 14.5723H50.2404L45.0474 0.197754ZM43.6948 0.197754H46.1926L46.6467 10.485V14.5723H43.6948V0.197754ZM56.3022 0.197754H58.8098V14.5723H55.848V10.485L56.3022 0.197754Z"></path>
<path fill="#F6F4EC" d="M37.9237 7.04905V7.73026C37.9237 8.82283 37.7756 9.80351 37.4794 10.6723C37.1832 11.5411 36.7653 12.2815 36.2256 12.8936C35.6859 13.4992 35.0409 13.9632 34.2906 14.2857C33.5468 14.6082 32.7208 14.7694 31.8125 14.7694C30.9108 14.7694 30.0848 14.6082 29.3345 14.2857C28.5908 13.9632 27.9458 13.4992 27.3995 12.8936C26.8532 12.2815 26.4287 11.5411 26.1259 10.6723C25.8297 9.80351 25.6816 8.82283 25.6816 7.73026V7.04905C25.6816 5.9499 25.8297 4.96922 26.1259 4.10701C26.4221 3.23822 26.84 2.49777 27.3797 1.88567C27.926 1.27357 28.571 0.806264 29.3148 0.483758C30.0651 0.161253 30.8911 0 31.7928 0C32.7011 0 33.5271 0.161253 34.2708 0.483758C35.0211 0.806264 35.6661 1.27357 36.2058 1.88567C36.7521 2.49777 37.1734 3.23822 37.4695 4.10701C37.7723 4.96922 37.9237 5.9499 37.9237 7.04905ZM34.9323 7.73026V7.0293C34.9323 6.26582 34.8632 5.59448 34.725 5.01529C34.5867 4.4361 34.3827 3.94905 34.1129 3.55414C33.843 3.15924 33.5139 2.86306 33.1256 2.66561C32.7373 2.46157 32.293 2.35956 31.7928 2.35956C31.2926 2.35956 30.8483 2.46157 30.46 2.66561C30.0782 2.86306 29.7524 3.15924 29.4826 3.55414C29.2193 3.94905 29.0186 4.4361 28.8804 5.01529C28.7422 5.59448 28.673 6.26582 28.673 7.0293V7.73026C28.673 8.48716 28.7422 9.1585 28.8804 9.74427C29.0186 10.3235 29.2226 10.8138 29.4925 11.2153C29.7623 11.6102 30.0914 11.9097 30.4797 12.1137C30.8681 12.3177 31.3123 12.4198 31.8125 12.4198C32.3127 12.4198 32.757 12.3177 33.1453 12.1137C33.5337 11.9097 33.8595 11.6102 34.1227 11.2153C34.386 10.8138 34.5867 10.3235 34.725 9.74427C34.8632 9.1585 34.9323 8.48716 34.9323 7.73026Z"></path>
<path fill="#F6F4EC" d="M19.7024 0.197754V14.5723H16.7505V0.197754H19.7024Z"></path>
<path fill="#F6F4EC" d="M5.62739 8.26368H1.93503L1.91529 6.22992H5.01529C5.56157 6.22992 6.00913 6.16081 6.35796 6.0226C6.7068 5.8778 6.96678 5.67047 7.1379 5.40062C7.31561 5.12419 7.40446 4.78852 7.40446 4.39362C7.40446 3.94606 7.3189 3.58406 7.14777 3.30763C6.98323 3.03119 6.72325 2.83045 6.36784 2.7054C6.019 2.58035 5.56816 2.51782 5.01529 2.51782H2.96178V14.5723H0V0.197754H5.01529C5.85117 0.197754 6.5982 0.276735 7.25637 0.434697C7.92113 0.592659 8.48387 0.832892 8.94459 1.1554C9.40531 1.4779 9.75744 1.88597 10.001 2.3796C10.2445 2.86665 10.3662 3.44584 10.3662 4.11718C10.3662 4.70954 10.2313 5.25582 9.96147 5.75604C9.6982 6.25625 9.28026 6.66432 8.70765 6.98024C8.14162 7.29616 7.40117 7.47058 6.48631 7.50349L5.62739 8.26368ZM5.49905 14.5723H1.12548L2.28057 12.2621H5.49905C6.019 12.2621 6.44353 12.1798 6.77261 12.0153C7.1017 11.8441 7.34523 11.6138 7.50319 11.3242C7.66115 11.0346 7.74013 10.7022 7.74013 10.3271C7.74013 9.90583 7.66773 9.54054 7.52293 9.2312C7.38472 8.92186 7.16094 8.68491 6.8516 8.52037C6.54225 8.34924 6.13418 8.26368 5.62739 8.26368H2.7742L2.79395 6.22992H6.34809L7.0293 7.0296C7.90467 7.01644 8.60892 7.17111 9.14204 7.49362C9.68175 7.80954 10.0734 8.2209 10.3169 8.72769C10.567 9.23449 10.692 9.77748 10.692 10.3567C10.692 11.2781 10.4913 12.0548 10.0898 12.6866C9.68833 13.3119 9.09926 13.7825 8.32262 14.0984C7.55255 14.4143 6.61136 14.5723 5.49905 14.5723Z"></path>
<path fill="#F6F4EC" d="M35.9282 31.0612V24.0664H36.9275L40.4948 29.4324V24.0664H41.4941V31.0612H40.4948L36.9275 25.7052V31.0612H35.9282Z"></path>
<path fill="#F6F4EC" d="M25.708 31.0612L28.2761 24.0664H29.3653L31.9334 31.0612H30.8642L28.8157 25.2655L26.7572 31.0612H25.708ZM26.8671 29.3325L27.1469 28.5331H30.4345L30.7143 29.3325H26.8671Z"></path>
<path fill="#F6F4EC" d="M19.717 31.0612V28.4631L17.4087 24.0664H18.5379L20.3465 27.7437H20.0967L21.8954 24.0664H23.0145L20.7162 28.4631V31.0612H19.717Z"></path>
<path fill="#F6F4EC" d="M9.17432 31.0612V24.0664H11.5426C12.0955 24.0664 12.5485 24.1597 12.9015 24.3462C13.2546 24.5327 13.5144 24.7825 13.681 25.0956C13.8542 25.4021 13.9408 25.7518 13.9408 26.1449C13.9408 26.5179 13.8542 26.8643 13.681 27.1841C13.5144 27.4972 13.2513 27.7503 12.8916 27.9435C12.5318 28.1301 12.0722 28.2233 11.5126 28.2233H10.1736V31.0612H9.17432ZM12.8516 31.0612L11.3427 27.9535H12.4419L14.0107 31.0612H12.8516ZM10.1736 27.4639H11.4726C11.9656 27.4639 12.3286 27.344 12.5618 27.1041C12.795 26.8577 12.9115 26.5446 12.9115 26.1648C12.9115 25.7785 12.7983 25.472 12.5718 25.2455C12.3453 25.019 11.9789 24.9058 11.4726 24.9058H10.1736V27.4639Z"></path>
<path fill="#F6F4EC" d="M0.0385742 31.0612V24.0664H2.62665C3.11295 24.0664 3.51932 24.1463 3.84574 24.3062C4.17217 24.4594 4.41532 24.6726 4.5752 24.9458C4.74174 25.2122 4.82501 25.5153 4.82501 25.8551C4.82501 26.2081 4.7484 26.5046 4.59518 26.7444C4.44197 26.9842 4.23878 27.1708 3.98564 27.304C3.73915 27.4306 3.47269 27.5038 3.18623 27.5238L3.32613 27.4239C3.63257 27.4306 3.91236 27.5138 4.1655 27.6737C4.41865 27.8269 4.6185 28.0335 4.76506 28.2933C4.91162 28.5531 4.98489 28.8395 4.98489 29.1526C4.98489 29.5124 4.89829 29.8388 4.72509 30.1319C4.55188 30.4183 4.29541 30.6448 3.95566 30.8114C3.61591 30.9779 3.19956 31.0612 2.70659 31.0612H0.0385742ZM1.03783 30.2318H2.57669C3.01636 30.2318 3.35611 30.1319 3.59593 29.932C3.84241 29.7255 3.96565 29.4357 3.96565 29.0627C3.96565 28.6963 3.83908 28.4032 3.58594 28.1833C3.33945 27.9635 2.99637 27.8536 2.5567 27.8536H1.03783V30.2318ZM1.03783 27.0842H2.51673C2.93642 27.0842 3.25618 26.9876 3.47602 26.7944C3.69585 26.5945 3.80577 26.3214 3.80577 25.975C3.80577 25.6419 3.69585 25.3788 3.47602 25.1856C3.25618 24.9857 2.92643 24.8858 2.48675 24.8858H1.03783V27.0842Z"></path>
<path fill="#F6F4EC" d="M107.378 31.0617V24.0669H108.377L111.945 29.4329V24.0669H112.944V31.0617H111.945L108.377 25.7057V31.0617H107.378Z"></path>
<path fill="#F6F4EC" d="M99.7595 31.1809C99.0867 31.1809 98.4938 31.031 97.9808 30.7312C97.4745 30.4248 97.0748 30.0018 96.7817 29.4622C96.4953 28.9159 96.3521 28.2831 96.3521 27.5636C96.3521 26.8508 96.4953 26.2246 96.7817 25.685C97.0748 25.1387 97.4745 24.7124 97.9808 24.4059C98.4938 24.0995 99.0867 23.9463 99.7595 23.9463C100.446 23.9463 101.045 24.0995 101.558 24.4059C102.071 24.7124 102.468 25.1387 102.747 25.685C103.034 26.2246 103.177 26.8508 103.177 27.5636C103.177 28.2831 103.034 28.9159 102.747 29.4622C102.468 30.0018 102.071 30.4248 101.558 30.7312C101.045 31.031 100.446 31.1809 99.7595 31.1809ZM99.7695 30.2916C100.249 30.2916 100.669 30.1817 101.029 29.9618C101.388 29.742 101.665 29.4289 101.858 29.0225C102.058 28.6161 102.158 28.1298 102.158 27.5636C102.158 26.9974 102.058 26.511 101.858 26.1047C101.665 25.6983 101.388 25.3885 101.029 25.1754C100.669 24.9555 100.249 24.8456 99.7695 24.8456C99.2899 24.8456 98.8702 24.9555 98.5104 25.1754C98.1507 25.3885 97.8709 25.6983 97.6711 26.1047C97.4712 26.511 97.3713 26.9974 97.3713 27.5636C97.3713 28.1298 97.4712 28.6161 97.6711 29.0225C97.8709 29.4289 98.1507 29.742 98.5104 29.9618C98.8702 30.1817 99.2899 30.2916 99.7695 30.2916Z"></path>
<path fill="#F6F4EC" d="M90.0378 31.1809C89.5249 31.1809 89.0752 31.091 88.6888 30.9111C88.3024 30.7246 88.0027 30.4648 87.7895 30.1317C87.5763 29.7986 87.4697 29.4089 87.4697 28.9626H88.5189C88.5256 29.2157 88.5856 29.4489 88.6988 29.662C88.8187 29.8686 88.9886 30.0351 89.2084 30.1617C89.4349 30.2816 89.7114 30.3415 90.0378 30.3415C90.3176 30.3415 90.5574 30.2949 90.7573 30.2016C90.9638 30.1084 91.1203 29.9818 91.2269 29.8219C91.3335 29.6554 91.3868 29.4655 91.3868 29.2523C91.3868 29.0059 91.3302 28.8027 91.2169 28.6428C91.1037 28.4829 90.9505 28.353 90.7573 28.2531C90.5708 28.1465 90.3509 28.0532 90.0978 27.9733C89.8513 27.8934 89.5915 27.8068 89.3183 27.7135C88.7654 27.5336 88.3524 27.3005 88.0793 27.014C87.8128 26.7276 87.6796 26.3545 87.6796 25.8948C87.6796 25.5018 87.7728 25.1621 87.9594 24.8756C88.1459 24.5825 88.4057 24.356 88.7388 24.1961C89.0785 24.0296 89.4782 23.9463 89.9379 23.9463C90.3909 23.9463 90.7873 24.0296 91.127 24.1961C91.4668 24.3626 91.7332 24.5925 91.9264 24.8856C92.1196 25.1787 92.2162 25.5218 92.2162 25.9148H91.157C91.157 25.735 91.1104 25.5584 91.0171 25.3852C90.9238 25.212 90.7839 25.0721 90.5974 24.9655C90.4109 24.8523 90.181 24.7957 89.9079 24.7957C89.6814 24.789 89.4782 24.8256 89.2984 24.9056C89.1185 24.9855 88.9786 25.1021 88.8787 25.2553C88.7788 25.4085 88.7288 25.5917 88.7288 25.8049C88.7288 26.0181 88.7721 26.1913 88.8587 26.3245C88.952 26.4511 89.0852 26.561 89.2584 26.6543C89.4316 26.7475 89.6315 26.8341 89.8579 26.9141C90.0911 26.9874 90.3476 27.0706 90.6274 27.1639C90.9738 27.2771 91.2802 27.417 91.5467 27.5836C91.8198 27.7435 92.033 27.9533 92.1862 28.2131C92.3461 28.4663 92.426 28.7927 92.426 29.1924C92.426 29.5388 92.3361 29.8619 92.1562 30.1617C91.9764 30.4614 91.7099 30.7079 91.3568 30.9011C91.0038 31.0876 90.5641 31.1809 90.0378 31.1809Z"></path>
<path fill="#F6F4EC" d="M77.7266 31.0617V24.0669H78.7258L82.2932 29.4329V24.0669H83.2924V31.0617H82.2932L78.7258 25.7057V31.0617H77.7266Z"></path>
<path fill="#F6F4EC" d="M72.2655 31.0617V24.0669H73.2648V31.0617H72.2655ZM67.8188 31.0617V24.0669H68.8181V31.0617H67.8188ZM68.6482 27.904V27.0846H72.4854V27.904H68.6482Z"></path>
<path fill="#F6F4EC" d="M60.2009 31.1809C59.5281 31.1809 58.9352 31.031 58.4222 30.7312C57.916 30.4248 57.5163 30.0018 57.2231 29.4622C56.9367 28.9159 56.7935 28.2831 56.7935 27.5636C56.7935 26.8508 56.9367 26.2246 57.2231 25.685C57.5163 25.1387 57.916 24.7124 58.4222 24.4059C58.9352 24.0995 59.5281 23.9463 60.2009 23.9463C60.8871 23.9463 61.4866 24.0995 61.9996 24.4059C62.5125 24.7124 62.9089 25.1387 63.1887 25.685C63.4752 26.2246 63.6184 26.8508 63.6184 27.5636C63.6184 28.2831 63.4752 28.9159 63.1887 29.4622C62.9089 30.0018 62.5125 30.4248 61.9996 30.7312C61.4866 31.031 60.8871 31.1809 60.2009 31.1809ZM60.2109 30.2916C60.6906 30.2916 61.1102 30.1817 61.47 29.9618C61.8297 29.742 62.1062 29.4289 62.2994 29.0225C62.4992 28.6161 62.5991 28.1298 62.5991 27.5636C62.5991 26.9974 62.4992 26.511 62.2994 26.1047C62.1062 25.6983 61.8297 25.3885 61.47 25.1754C61.1102 24.9555 60.6906 24.8456 60.2109 24.8456C59.7313 24.8456 59.3116 24.9555 58.9519 25.1754C58.5921 25.3885 58.3123 25.6983 58.1125 26.1047C57.9126 26.511 57.8127 26.9974 57.8127 27.5636C57.8127 28.1298 57.9126 28.6161 58.1125 29.0225C58.3123 29.4289 58.5921 29.742 58.9519 29.9618C59.3116 30.1817 59.7313 30.2916 60.2109 30.2916Z"></path>
<path fill="#F6F4EC" d="M50.5821 31.1816C50.1491 31.1816 49.776 31.1017 49.4629 30.9418C49.1498 30.7752 48.9066 30.5354 48.7334 30.2223C48.5602 29.9092 48.4736 29.5362 48.4736 29.1031H49.4829C49.4829 29.3296 49.5195 29.5328 49.5928 29.7127C49.6661 29.8926 49.7793 30.0358 49.9325 30.1424C50.0924 30.2423 50.3023 30.2923 50.5621 30.2923C50.8219 30.2923 51.0251 30.2423 51.1716 30.1424C51.3248 30.0424 51.4348 29.9092 51.5014 29.7427C51.568 29.5695 51.6013 29.3729 51.6013 29.1531V24.0669H52.6006V29.1531C52.6006 29.7993 52.4207 30.2989 52.061 30.652C51.7012 31.0051 51.2083 31.1816 50.5821 31.1816Z"></path>
<rect stroke-width="0.567799" stroke="#F6F4EC" rx="4.15158" height="8.30316" width="34.4365" y="23.4128" x="122.826"></rect>
<path fill="#F6F4EC" d="M146.645 26.1627L144.904 29.6389H144.066L146.295 25.4902H146.83L146.645 26.1627ZM147.007 29.6389L146.46 26.0801L146.497 25.4902H146.998L147.791 29.6389H147.007ZM147.215 28.0974L147.104 28.7157H144.941L145.049 28.0974H147.215Z"></path>
<path fill="#F6F4EC" d="M142.993 25.4902L142.275 29.6389H141.511L142.232 25.4902H142.993ZM144.244 25.4902L144.136 26.1085H140.89L140.998 25.4902H144.244Z"></path>
<path fill="#F6F4EC" d="M139.375 29.0235L139.266 29.6389H137.124L137.229 29.0235H139.375ZM138.081 25.4902L137.36 29.6389H136.594L137.312 25.4902H138.081ZM139.409 27.2027L139.306 27.8039H137.44L137.545 27.2027H139.409ZM139.976 25.4902L139.868 26.1085H137.734L137.845 25.4902H139.976Z"></path>
<path fill="#F6F4EC" d="M134.198 27.7897H133.129L133.223 27.2369L134.064 27.2398C134.195 27.2398 134.319 27.2208 134.437 27.1828C134.557 27.1429 134.657 27.0802 134.736 26.9947C134.818 26.9092 134.869 26.7953 134.89 26.6528C134.907 26.5217 134.895 26.4172 134.853 26.3393C134.811 26.2596 134.745 26.2026 134.654 26.1684C134.565 26.1342 134.459 26.1152 134.338 26.1114L133.676 26.1085L133.064 29.6389H132.297L133.015 25.4902L134.36 25.4931C134.537 25.495 134.706 25.5168 134.868 25.5586C135.031 25.5985 135.174 25.6612 135.298 25.7467C135.423 25.8322 135.519 25.9452 135.586 26.0858C135.654 26.2244 135.681 26.3944 135.665 26.5958C135.652 26.8142 135.587 26.9947 135.472 27.1372C135.358 27.2796 135.211 27.3879 135.033 27.462C134.856 27.5361 134.668 27.5798 134.469 27.5931L134.198 27.7897ZM133.853 29.6389H132.568L132.993 29.0235L133.879 29.0263C134.012 29.0244 134.135 29.0007 134.249 28.9551C134.365 28.9095 134.462 28.8402 134.54 28.7471C134.618 28.654 134.666 28.5381 134.685 28.3995C134.702 28.2779 134.696 28.1734 134.665 28.086C134.637 27.9967 134.584 27.9274 134.506 27.878C134.43 27.8267 134.329 27.7982 134.204 27.7925L133.372 27.7897L133.471 27.2369L134.449 27.2398L134.583 27.4506C134.763 27.4658 134.92 27.5133 135.053 27.5931C135.188 27.6729 135.288 27.7811 135.355 27.9179C135.423 28.0547 135.452 28.2161 135.44 28.4023C135.419 28.6948 135.333 28.9323 135.181 29.1146C135.031 29.297 134.839 29.4309 134.605 29.5164C134.372 29.6 134.121 29.6408 133.853 29.6389Z"></path>
</svg>
