<svg xmlns="http://www.w3.org/2000/svg" fill="none" viewBox="0 0 39 20" height="20" width="39">
<g clip-path="url(#clip0_2722_10752)">
<path fill="black" d="M37.7027 14.6667C38.4463 13.2309 38.8284 11.6266 38.8143 10C38.822 4.50794 34.4713 0.0349206 29.0877 0C23.928 0.0333333 19.6977 4.19841 19.3611 9.42857C19.3889 9.13651 19.3627 8.83016 19.3611 8.57143H10.3756V12.7619L13.2472 12.8571C12.3996 13.8937 11.1321 14.5841 9.72714 14.5714C9.1422 14.5752 8.56234 14.4596 8.0212 14.2312C7.48007 14.0028 6.98843 13.6662 6.5748 13.2409C6.16118 12.8157 5.83379 12.3102 5.61165 11.7539C5.3895 11.1975 5.27701 10.6014 5.2807 10C5.27607 7.50635 7.25998 5.46349 9.72714 5.42857C11.3683 5.46349 12.815 6.4 13.6178 7.80952L18.1569 5.14286C17.3213 3.59435 16.1003 2.30206 14.6191 1.39837C13.1378 0.494676 11.4495 0.0120726 9.72714 0C4.34355 0.0333333 -0.00717684 4.50635 0.000542686 10C-0.00374049 11.3145 0.244922 12.6168 0.732212 13.832C1.2195 15.0473 1.93579 16.1514 2.83985 17.0809C3.7439 18.0103 4.81785 18.7468 5.99987 19.2478C7.18189 19.7488 8.44863 20.0044 9.72714 20C14.8792 20.0127 19.1033 15.8619 19.4537 10.6667C19.7116 15.8619 23.9357 20.0143 29.0877 20C30.9852 20.0127 32.739 19.4651 34.1826 18.4762L35.3868 19.7143L38.9996 16L37.7027 14.6667Z"></path>
<path fill="white" d="M33.534 10.6666L32.6077 9.80942L29.1802 13.5237L30.1992 14.4761C29.8324 14.5441 29.4602 14.576 29.0876 14.5713C26.6559 14.584 24.6704 12.5428 24.6411 9.9999C24.661 8.79385 25.1358 7.64291 25.9654 6.78999C26.795 5.93706 27.9145 5.44888 29.0876 5.42847C31.5547 5.46339 33.5402 7.50624 33.534 9.9999C33.5402 10.2396 33.5247 10.4539 33.534 10.6666Z"></path>
</g>
<defs>
<clipPath id="clip0_2722_10752">
<rect fill="white" height="20" width="39"></rect>
</clipPath>
</defs>
</svg>
