<svg xmlns="http://www.w3.org/2000/svg" fill="none" viewBox="0 0 157 30" height="30" width="157">
<path fill="#111C35" d="M21.3553 0H18.4492V14.1311H30.0793V11.1043H21.3553V0Z"></path>
<path fill="#111C35" d="M79.2045 0H72.6157V14.1311H75.5217V8.57895H79.2045C82.5003 8.57895 84.2428 7.67153 84.2428 5.28764V3.49126C84.2428 1.11043 82.4974 0 79.2045 0ZM81.3367 4.46019C81.3367 5.6506 80.9499 5.5491 79.2045 5.5491H75.5217V3.02678H79.2045C80.9499 3.02678 81.3367 3.02678 81.3367 4.21719V4.46019Z"></path>
<path fill="#111C35" d="M135.5 9.42793L130.462 0H126.779V14.1311H129.685V4.7032L134.723 14.1311H138.406V0H135.5V9.42793Z"></path>
<path fill="#111C35" d="M44.4382 9.28643C44.4382 11.1628 43.4489 11.1043 42.2085 11.1043H40.8529C39.6126 11.1043 38.6232 11.1659 38.6232 9.28643V0H35.7172V9.28643C35.7172 12.4978 37.4035 14.1311 40.4277 14.1311H42.6367C45.6609 14.1311 47.3472 12.4947 47.3472 9.28643V0H44.4412V9.28643H44.4382Z"></path>
<path fill="#111C35" d="M97.0601 0H90.4713V14.1311H93.3773V8.57895H96.9036L99.1894 14.1311H102.095L99.6915 8.29596C101.28 7.87147 102.095 6.92407 102.095 5.28764V3.49126C102.095 1.11043 100.35 0 97.0571 0H97.0601ZM99.1924 4.46019C99.1924 5.6506 98.8055 5.5491 97.0601 5.5491H93.3773V3.02678H97.0601C98.8055 3.02678 99.1924 3.02678 99.1924 4.21719V4.46019Z"></path>
<path fill="#111C35" d="M145.228 0V3.02678H149.587V14.1311H152.496V3.02678H156.855V0H145.228Z"></path>
<path fill="#111C35" d="M6.5888 0H0V14.1311H6.5888C9.88468 14.1311 11.6271 13.0207 11.6271 10.6399V8.84349C11.6271 8.11755 11.4529 7.53004 11.1428 7.06556C11.4529 6.60109 11.6271 6.01665 11.6271 5.28764V3.49126C11.6271 1.11043 9.88173 0 6.5888 0ZM8.72108 9.91086C8.72108 11.1013 8.3342 11.1013 6.5888 11.1013H2.90604V8.57895H6.5888C8.3342 8.57895 8.72108 8.47744 8.72108 9.66785V9.91086ZM8.72108 4.46019C8.72108 5.6506 8.3342 5.5491 6.5888 5.5491H2.90604V3.02678H6.5888C8.3342 3.02678 8.72108 3.02678 8.72108 4.21719V4.46019Z"></path>
<path fill="#111C35" d="M54.1635 14.1311H65.7935V11.1043H57.0725V8.57895H62.8875V5.55217H57.0725V3.02678H65.7935V0H54.1635V14.1311Z"></path>
<path fill="#111C35" d="M108.33 3.02678H112.692V11.1043H108.33V14.1311H119.96V11.1043H115.598V3.02678H119.96V0H108.33V3.02678Z"></path>
<path fill="#111C35" d="M131.004 29V22H132.204L135.574 27.06V22H136.774V29H135.574L132.204 23.95V29H131.004Z"></path>
<path fill="#111C35" d="M123.381 29.12C122.708 29.12 122.111 28.97 121.591 28.67C121.078 28.3633 120.675 27.94 120.381 27.4C120.088 26.8533 119.941 26.22 119.941 25.5C119.941 24.7867 120.088 24.16 120.381 23.62C120.675 23.0733 121.078 22.6467 121.591 22.34C122.111 22.0333 122.708 21.88 123.381 21.88C124.068 21.88 124.671 22.0333 125.191 22.34C125.711 22.6467 126.115 23.0733 126.401 23.62C126.688 24.16 126.831 24.7867 126.831 25.5C126.831 26.22 126.688 26.8533 126.401 27.4C126.115 27.94 125.711 28.3633 125.191 28.67C124.671 28.97 124.068 29.12 123.381 29.12ZM123.391 28.04C123.838 28.04 124.228 27.94 124.561 27.74C124.895 27.5333 125.151 27.24 125.331 26.86C125.511 26.48 125.601 26.0267 125.601 25.5C125.601 24.9733 125.511 24.52 125.331 24.14C125.151 23.76 124.895 23.47 124.561 23.27C124.228 23.0633 123.838 22.96 123.391 22.96C122.945 22.96 122.555 23.0633 122.221 23.27C121.888 23.47 121.628 23.76 121.441 24.14C121.261 24.52 121.171 24.9733 121.171 25.5C121.171 26.0267 121.261 26.48 121.441 26.86C121.628 27.24 121.888 27.5333 122.221 27.74C122.555 27.94 122.945 28.04 123.391 28.04Z"></path>
<path fill="#111C35" d="M113.575 29.12C113.068 29.12 112.618 29.03 112.225 28.85C111.832 28.67 111.525 28.4133 111.305 28.08C111.085 27.7467 110.972 27.35 110.965 26.89H112.235C112.235 27.1233 112.288 27.3333 112.395 27.52C112.508 27.7 112.662 27.8433 112.855 27.95C113.055 28.0567 113.295 28.11 113.575 28.11C113.815 28.11 114.022 28.0733 114.195 28C114.375 27.92 114.512 27.81 114.605 27.67C114.705 27.5233 114.755 27.3533 114.755 27.16C114.755 26.94 114.702 26.76 114.595 26.62C114.495 26.4733 114.355 26.35 114.175 26.25C113.995 26.15 113.788 26.0633 113.555 25.99C113.322 25.91 113.075 25.8267 112.815 25.74C112.262 25.5533 111.845 25.3167 111.565 25.03C111.285 24.7367 111.145 24.3467 111.145 23.86C111.145 23.4533 111.242 23.1033 111.435 22.81C111.628 22.5167 111.898 22.29 112.245 22.13C112.598 21.9633 113.005 21.88 113.465 21.88C113.932 21.88 114.338 21.9633 114.685 22.13C115.038 22.2967 115.315 22.53 115.515 22.83C115.722 23.1233 115.828 23.4767 115.835 23.89H114.555C114.548 23.7167 114.502 23.5567 114.415 23.41C114.328 23.2567 114.202 23.1333 114.035 23.04C113.875 22.94 113.678 22.89 113.445 22.89C113.245 22.8833 113.065 22.9167 112.905 22.99C112.752 23.0567 112.628 23.1567 112.535 23.29C112.448 23.4167 112.405 23.5767 112.405 23.77C112.405 23.9567 112.445 24.1133 112.525 24.24C112.612 24.36 112.735 24.4633 112.895 24.55C113.055 24.63 113.242 24.7067 113.455 24.78C113.668 24.8533 113.902 24.9333 114.155 25.02C114.502 25.1333 114.815 25.2733 115.095 25.44C115.382 25.6 115.608 25.81 115.775 26.07C115.942 26.33 116.025 26.6667 116.025 27.08C116.025 27.44 115.932 27.7767 115.745 28.09C115.558 28.3967 115.285 28.6467 114.925 28.84C114.565 29.0267 114.115 29.12 113.575 29.12Z"></path>
<path fill="#111C35" d="M101.047 29V22H102.247L105.617 27.06V22H106.817V29H105.617L102.247 23.95V29H101.047Z"></path>
<path fill="#111C35" d="M95.4239 29V22H96.6239V29H95.4239ZM91.0039 29V22H92.2039V29H91.0039ZM92.0239 25.92V24.94H95.6539V25.92H92.0239Z"></path>
<path fill="#111C35" d="M83.3814 29.12C82.7081 29.12 82.1114 28.97 81.5914 28.67C81.0781 28.3633 80.6747 27.94 80.3814 27.4C80.0881 26.8533 79.9414 26.22 79.9414 25.5C79.9414 24.7867 80.0881 24.16 80.3814 23.62C80.6747 23.0733 81.0781 22.6467 81.5914 22.34C82.1114 22.0333 82.7081 21.88 83.3814 21.88C84.0681 21.88 84.6714 22.0333 85.1914 22.34C85.7114 22.6467 86.1147 23.0733 86.4014 23.62C86.6881 24.16 86.8314 24.7867 86.8314 25.5C86.8314 26.22 86.6881 26.8533 86.4014 27.4C86.1147 27.94 85.7114 28.3633 85.1914 28.67C84.6714 28.97 84.0681 29.12 83.3814 29.12ZM83.3914 28.04C83.8381 28.04 84.2281 27.94 84.5614 27.74C84.8947 27.5333 85.1514 27.24 85.3314 26.86C85.5114 26.48 85.6014 26.0267 85.6014 25.5C85.6014 24.9733 85.5114 24.52 85.3314 24.14C85.1514 23.76 84.8947 23.47 84.5614 23.27C84.2281 23.0633 83.8381 22.96 83.3914 22.96C82.9447 22.96 82.5547 23.0633 82.2214 23.27C81.8881 23.47 81.6281 23.76 81.4414 24.14C81.2614 24.52 81.1714 24.9733 81.1714 25.5C81.1714 26.0267 81.2614 26.48 81.4414 26.86C81.6281 27.24 81.8881 27.5333 82.2214 27.74C82.5547 27.94 82.9447 28.04 83.3914 28.04Z"></path>
<path fill="#111C35" d="M73.6805 29.12C73.2338 29.12 72.8438 29.0367 72.5105 28.87C72.1838 28.6967 71.9305 28.45 71.7505 28.13C71.5705 27.8033 71.4805 27.41 71.4805 26.95H72.6805C72.6805 27.17 72.7138 27.3633 72.7805 27.53C72.8471 27.6967 72.9505 27.8267 73.0905 27.92C73.2371 28.0067 73.4238 28.05 73.6505 28.05C73.8771 28.05 74.0571 28.0067 74.1905 27.92C74.3238 27.8333 74.4205 27.7133 74.4805 27.56C74.5471 27.4 74.5805 27.2167 74.5805 27.01V22H75.7805V27.01C75.7805 27.69 75.5905 28.2133 75.2105 28.58C74.8371 28.94 74.3271 29.12 73.6805 29.12Z"></path>
<path fill="#111C35" d="M56.2812 29V22H57.4813L60.8512 27.06V22H62.0513V29H60.8512L57.4813 23.95V29H56.2812Z"></path>
<path fill="#111C35" d="M45.8594 29L48.4194 22H49.7594L52.3194 29H51.0494L49.0794 23.4L47.1094 29H45.8594ZM46.9994 27.35L47.3194 26.4H50.7694L51.0894 27.35H46.9994Z"></path>
<path fill="#111C35" d="M39.7167 29V26.48L37.3867 22H38.7467L40.4567 25.56H40.1967L41.9067 22H43.2567L40.9167 26.48V29H39.7167Z"></path>
<path fill="#111C35" d="M28.9883 29V22H31.4983C32.0516 22 32.5083 22.0967 32.8683 22.29C33.2349 22.4767 33.5049 22.73 33.6783 23.05C33.8583 23.3633 33.9483 23.72 33.9483 24.12C33.9483 24.4933 33.8616 24.84 33.6883 25.16C33.5149 25.48 33.2449 25.7367 32.8783 25.93C32.5116 26.1233 32.0416 26.22 31.4683 26.22H30.1883V29H28.9883ZM32.6383 29L31.1683 25.91H32.4683L34.0083 29H32.6383ZM30.1883 25.33H31.4183C31.8649 25.33 32.1916 25.2233 32.3983 25.01C32.6116 24.79 32.7183 24.5033 32.7183 24.15C32.7183 23.8033 32.6149 23.5267 32.4083 23.32C32.2016 23.1067 31.8716 23 31.4183 23H30.1883V25.33Z"></path>
<path fill="#111C35" d="M19.7109 29V22H22.4509C22.9443 22 23.3543 22.0767 23.6809 22.23C24.0143 22.3833 24.2643 22.5967 24.4309 22.87C24.5976 23.1367 24.6809 23.4467 24.6809 23.8C24.6809 24.1533 24.6043 24.45 24.4509 24.69C24.2976 24.93 24.0943 25.1133 23.8409 25.24C23.5943 25.3667 23.3243 25.4433 23.0309 25.47L23.1809 25.36C23.4943 25.3667 23.7743 25.45 24.0209 25.61C24.2743 25.77 24.4743 25.98 24.6209 26.24C24.7676 26.4933 24.8409 26.7767 24.8409 27.09C24.8409 27.4567 24.7509 27.7867 24.5709 28.08C24.3976 28.3667 24.1409 28.5933 23.8009 28.76C23.4609 28.92 23.0443 29 22.5509 29H19.7109ZM20.9109 28.02H22.3709C22.7643 28.02 23.0709 27.9267 23.2909 27.74C23.5109 27.5533 23.6209 27.2933 23.6209 26.96C23.6209 26.6267 23.5076 26.3633 23.2809 26.17C23.0543 25.97 22.7443 25.87 22.3509 25.87H20.9109V28.02ZM20.9109 24.96H22.2809C22.6676 24.96 22.9609 24.8733 23.1609 24.7C23.3609 24.52 23.4609 24.2733 23.4609 23.96C23.4609 23.6533 23.3609 23.4133 23.1609 23.24C22.9609 23.06 22.6643 22.97 22.2709 22.97H20.9109V24.96Z"></path>
</svg>
