<svg xmlns="http://www.w3.org/2000/svg" fill="none" viewBox="0 0 109 15" height="15" width="109">
<g clip-path="url(#clip0_2722_10740)">
<path fill="#211F20" d="M73.2643 0.347378H69.0184L67.2975 1.53837L67.5932 0.322425H63.3898L62.7111 0.879194C62.5404 0.787699 62.19 0.59925 62.0097 0.48852C61.7422 0.351277 61.147 0.347378 61.0797 0.347378H54.5521L53.6587 0.988624C53.4314 0.797836 52.8566 0.368953 52.1397 0.228591C50.8441 -0.0539524 50.507 -0.00326618 50.0876 0.0159686C49.9603 0.021947 49.8296 0.0279253 49.6784 0.0279253C48.7574 0.0279253 47.7623 0.318006 47.3088 0.467986L47.3266 0.321905L43.0688 0.347898L41.2766 1.67094L41.2288 0.347898H37.0789L36.141 0.987844L36.4035 0.347638H32.6842L31.1774 1.34707L31.1306 0.347638H27.4083L26.233 1.15602L26.14 0.322945H16.0999L15.9985 0.372332L16.0261 0.321126L12.2238 0.347898L11.0296 1.14848L10.8648 0.322945H6.86587L3.58461 2.74549L0 14.9016H3.53813L5.38973 13.6422L5.58463 14.9016H9.03207L9.53144 14.513L9.67734 14.5255L9.92238 14.9016H16.7511L18.263 13.8809L18.0827 14.9016H21.5181L23.6124 13.5487L23.2632 14.9016H26.7684L30.2783 12.4661L34.4778 4.52704L35.1304 9.6778L33.5362 14.9016H37.3977L39.9213 13.1138C40.1655 13.5572 40.9192 14.7098 42.2427 14.899C42.6753 14.9739 43.3817 14.9986 43.4116 14.9996H43.4172C43.9532 14.9996 44.2827 14.9952 44.8325 14.8987C45.4789 14.7854 45.8324 14.6466 46.4188 14.4153L46.4639 14.3979C47.0539 14.1652 47.8003 13.7439 48.2194 13.4969L47.9101 14.9013H51.5652L52.963 14.0145L52.7228 14.9013H60.4111L62.0869 13.7868L62.4812 14.9013H66.7291L70.0732 12.4268L68.55 5.84202L73.2635 0.347118L73.2643 0.347378Z"></path>
<path fill="#231F20" d="M101.096 0.323098L100.368 0.785772C100.186 0.6831 99.7683 0.454103 99.4472 0.334015C98.591 0.0143022 98.0238 -0.00831163 97.1208 0.00390504C96.0251 0.0195008 95.2689 0.125292 94.171 0.659707C93.6854 0.896242 93.0962 1.34852 92.8239 1.56686C92.6414 1.28094 92.2301 0.707794 91.7556 0.508948C90.6636 0.0436742 89.9665 0.044454 88.8331 0.077465C87.7904 0.108137 87.1854 0.225625 86.2467 0.579908C85.5938 0.826841 84.7728 1.3571 84.4404 1.57986C84.3114 1.37035 84.0687 0.993196 83.8777 0.800068C83.6084 0.468659 82.8998 0.339474 82.8198 0.325957L76.2086 0.323358L73.1399 2.57331L69.4204 14.9018H73.2019L76.5874 12.5078L77.0453 11.216C77.2538 11.2193 77.7072 11.2212 78.0396 11.1887C78.2818 11.1645 78.5964 11.106 78.8085 11.0631C78.7296 11.5318 78.6006 12.6237 78.9724 13.2969C79.6681 14.556 80.9051 14.8123 82.1374 14.9015C82.4213 14.9241 82.6733 14.9353 82.9077 14.9353C83.7476 14.9353 84.3751 14.791 85.2384 14.5256C86.1126 14.2566 87.2325 13.5873 87.6051 13.356C87.8127 13.5951 88.327 14.1539 88.8106 14.4146C89.4987 14.7863 90.002 14.8316 90.7664 14.9007C91.0402 14.9259 91.2841 14.9379 91.5136 14.9379C92.3101 14.9379 92.9585 14.7983 93.9077 14.4232C94.8197 14.0679 96.1755 13.2665 96.8101 12.8792L96.2772 14.8038H99.8669L103.202 12.4574L105.494 5.05329L108.239 2.88912L108.999 0.323618H101.096L101.096 0.323098Z"></path>
<path fill="white" d="M15.4107 0.740571H12.7964L11.1023 5.90537L10.486 0.740571H7.14843L3.88688 11.9383L3.86914 12.0007H6.42937L8.33701 5.95735L9.05889 12.0007H11.9177L15.3913 0.802955M33.1023 0.740571L30.2328 6.08472L30.791 0.795157L30.7966 0.741351H27.9336L25.2269 5.97373L25.7826 0.795157L25.7883 0.740571H16.3656L13.0513 11.9383L13.033 12.0007H19.4806L20.2636 9.93531H16.6895L17.5119 7.28039H20.7608L21.4325 5.21499H18.1301L18.9489 2.85484H22.4225L21.7339 11.9479L21.7299 12.0004H24.6448L27.7227 5.93994L27.0557 12.0007H29.8655L35.7408 0.811532L35.7774 0.740831M52.3398 6.5032L52.3668 6.5071L53.2388 3.69103H53.2242C53.2354 3.63982 53.2608 3.54989 53.285 3.46229C53.4053 3.02925 53.6295 2.22373 53.5131 1.81252C53.249 0.67403 52.3871 0.460888 52.0325 0.421898C51.2213 0.281536 51.0036 0.279977 50.422 0.274778L50.2384 0.273219C49.8316 0.26958 49.5708 0.266201 49.1377 0.323905C48.4887 0.410201 48.1248 0.48766 47.5503 0.74629C47.1692 0.917843 46.9639 1.04001 46.6338 1.29344C46.0296 1.75767 45.4215 2.74047 45.3911 2.79323L43.259 10.0245C43.2505 10.0624 43.0534 10.9711 43.3731 11.4372C43.5477 11.6919 43.7316 11.7959 43.9859 11.9388L44.0828 11.9934C44.6247 12.3038 45.0249 12.3558 45.6311 12.4337L45.702 12.4431C45.9916 12.4808 46.2363 12.4982 46.4724 12.4982C46.8267 12.4982 47.1596 12.4582 47.5829 12.3937C48.1665 12.3046 48.5242 12.2424 49.0889 11.9965C49.5311 11.8042 49.7728 11.6586 50.166 11.3504C50.6166 10.9969 51.2025 10.2758 51.2475 10.1459H51.2486C51.5464 9.16488 52.3274 6.59964 52.364 6.51464L52.3403 6.50424L52.3398 6.5032ZM62.6497 1.76105C62.5849 1.52972 62.5111 1.39975 62.3455 1.22482C62.1743 1.04287 62.0357 0.971389 61.8236 0.869237C61.7025 0.810752 61.5054 0.74629 61.4969 0.743691L54.8856 0.741091L51.5709 11.9383L51.5526 12.0007H54.5392L55.9776 7.4769L57.2068 7.47612C57.3076 7.49353 57.5836 7.56709 57.6478 7.69446C57.6915 7.78102 57.6602 7.94841 57.6444 8.00533L56.5257 11.9386L56.508 12.0002H59.654L60.9432 7.78673C60.9516 7.76256 61.1417 7.19773 60.9375 6.90869C60.8367 6.76677 60.7353 6.70803 60.5953 6.62667L60.548 6.59912C60.441 6.53673 60.2889 6.47747 60.1819 6.43952C60.3407 6.37324 60.6212 6.25159 60.8136 6.1419L60.8953 6.09589C61.0891 5.98672 61.2288 5.90823 61.4093 5.74161C61.5256 5.63452 61.6741 5.44893 61.6808 5.44113L62.6497 2.42023C62.6534 2.4036 62.7196 2.00955 62.6497 1.76105ZM82.3007 7.45714C82.4528 7.27155 82.5195 7.12028 82.5976 6.94508C82.6285 6.87308 82.6623 6.7964 82.7057 6.71115C83.4174 5.28933 83.9301 2.8395 83.9337 2.82053C83.9399 2.80077 84.0971 2.33446 83.9872 2.0319C83.9675 1.95652 83.9613 1.88634 83.9568 1.81824C83.9484 1.71427 83.9399 1.60614 83.878 1.48241C83.7766 1.27863 83.6647 1.18427 83.4912 1.04755C83.3603 0.944356 83.2558 0.898609 83.1341 0.845583C83.0716 0.81855 83.0037 0.788399 82.9234 0.74733L82.911 0.741091H76.5964L73.2024 11.9388L73.1836 12.0012H76.117L77.2357 8.60993C77.4315 8.61773 78.2835 8.65204 79.0082 8.65204C79.4926 8.65204 79.8278 8.63696 80.0032 8.60733C80.468 8.53195 80.7685 8.4376 81.2011 8.22887C81.6664 8.00533 81.974 7.85717 82.301 7.45792M92.3529 1.98303C92.3377 1.92507 92.3247 1.86736 92.3118 1.8107C92.2493 1.53414 92.1907 1.27265 91.9254 1.13904C91.6029 0.940717 91.348 0.78398 90.9339 0.645178C90.3932 0.464527 90.0349 0.448411 89.4924 0.424238L89.4262 0.421638C89.2333 0.412541 89.0778 0.408642 88.9362 0.408642C88.5503 0.408642 88.2208 0.439833 87.7622 0.520411C87.2806 0.605148 87.006 0.668571 86.5528 0.842724C86.0109 1.05171 85.6881 1.2087 85.2071 1.58872C84.8654 1.85775 84.4446 2.36123 84.4269 2.38254L82.045 9.98028C82.0407 10.0198 81.9486 10.9607 82.2934 11.4377C82.5018 11.7267 82.7009 11.8424 83.0023 12.0173C83.4997 12.3066 83.8847 12.3527 84.4168 12.4176C84.4824 12.4254 84.5508 12.4332 84.6215 12.4426C84.9623 12.4857 85.2282 12.505 85.4842 12.505C85.7839 12.505 86.0785 12.4795 86.5016 12.4176C87.1198 12.3272 87.4699 12.2591 88.0084 12.0199C88.4652 11.8177 88.7182 11.6605 89.0863 11.3485C89.5217 10.98 90.0174 10.275 90.0594 10.1464H90.06C90.3718 9.18593 91.1888 6.6745 91.2288 6.58872L91.2035 6.57702L91.2325 6.58066L92.1577 3.56808H92.1431C92.1521 3.53117 92.1684 3.47503 92.1845 3.41992C92.2848 3.0776 92.4704 2.43999 92.3521 1.98355"></path>
<path fill="#231F20" d="M89.0722 2.78381C89.0055 2.66061 88.7247 2.59458 88.5005 2.56105C88.4286 2.55014 88.3579 2.54468 88.2898 2.54468C88.0025 2.54468 87.7755 2.63877 87.5085 2.76198C87.2812 2.86699 87.0671 3.30835 87.055 3.33304L85.1899 9.23656C85.1829 9.26515 85.0257 9.94097 85.4631 10.1292C85.6631 10.1986 85.8839 10.2622 86.1368 10.2622C86.1861 10.2622 86.236 10.2596 86.2861 10.255C86.5227 10.23 86.7162 10.1375 86.8719 10.0631L86.9452 10.0283C87.1778 9.91263 87.2646 9.68 87.3164 9.54068C87.3257 9.51598 87.3361 9.48713 87.3445 9.46841H87.3465C87.4023 9.46841 87.4214 9.46841 88.9435 4.34261L89.1792 3.46717C89.1854 3.45417 89.3494 3.14122 89.0722 2.78355"></path>
<path fill="white" d="M41.0102 4.61755L40.7511 0.741223H37.7092L38.6753 7.3754L37.3281 12.0008H40.2613L41.6555 7.54747L46.6616 0.741223H43.6549M65.907 4.2903L66.984 0.740964H63.8903L60.3097 11.9379L60.2894 12.0008H63.5171L65.0896 7.21814L66.0354 11.9606L66.043 12.0006H69.4299L68.0368 5.76826L72.2842 0.820242L72.3518 0.740704H69.3944M101.397 0.740704L100.809 2.75698H102.699L99.895 11.9382L99.8758 12.0006H102.784L105.607 2.85497H107.632L108.283 0.803607L108.302 0.740704M98.4194 6.56468C98.2132 6.27798 98.0268 6.10772 97.8121 5.9107C97.7181 5.82492 97.6178 5.73317 97.5079 5.62426C97.3418 5.4592 97.1981 5.33132 97.061 5.20837C96.8787 5.04461 96.7066 4.89074 96.4977 4.66694C96.421 4.5848 96.3489 4.518 96.2799 4.45301C96.1267 4.31005 95.9946 4.18659 95.8921 3.96383C95.7682 3.6935 95.6865 3.51545 95.7372 3.23187C95.7682 3.05901 95.7918 2.95556 95.9098 2.83937C96 2.751 96.0862 2.7302 96.2157 2.69849L96.2847 2.68134C96.4574 2.63663 96.5523 2.61479 96.7165 2.63351C96.908 2.6556 97.0207 2.70811 97.1652 2.84067C97.2821 2.94802 97.3302 3.02574 97.3646 3.16091C97.3933 3.27657 97.3787 3.35923 97.359 3.46346C97.3511 3.50895 97.3421 3.55704 97.3364 3.61214L97.3345 3.62774C97.3156 3.80813 97.304 3.91704 97.2584 4.09743C97.2142 4.26898 97.1015 4.53047 97.1007 4.53307L97.0714 4.60065H100.014L100.025 4.56478C100.027 4.55855 100.219 3.93238 100.318 3.53027C100.347 3.41538 100.377 3.31634 100.406 3.22303C100.472 3.00417 100.53 2.81494 100.533 2.53604V2.50224C100.538 2.08168 100.541 1.77808 100.285 1.40274C100.105 1.13892 99.9383 1.01337 99.6561 0.847015C99.3725 0.67962 99.17 0.631273 98.8641 0.557194L98.8151 0.545497C98.4808 0.464919 98.2704 0.450363 97.9518 0.428528L97.7279 0.412933C97.502 0.396297 97.3237 0.383301 97.1348 0.383301C96.9556 0.383301 96.7804 0.395517 96.5833 0.42151C96.407 0.444904 96.2799 0.476096 96.1459 0.509367C96.067 0.529121 95.9853 0.549396 95.8867 0.56993C95.7673 0.594623 95.6659 0.609699 95.5674 0.623995C95.3967 0.649468 95.235 0.673382 95.0266 0.744343C94.6951 0.857672 94.5083 0.977759 94.2492 1.14463L94.136 1.21689C93.8467 1.40144 93.6831 1.51321 93.4364 1.73935L93.3699 1.79914C93.1789 1.97329 93.0409 2.09805 92.8945 2.33979C92.7677 2.54981 92.7221 2.69745 92.6584 2.90124L92.6235 3.01379C92.5418 3.27294 92.5001 3.40836 92.4621 3.65997L92.4472 3.75796C92.4066 4.01529 92.3779 4.20192 92.4365 4.48706C92.4787 4.69683 92.5421 4.81977 92.6294 4.99029L92.6796 5.08854C92.8562 5.44023 93.0418 5.65259 93.2578 5.89822C93.346 5.99959 93.4381 6.10435 93.5378 6.22833C93.7893 6.54025 93.9321 6.71648 94.2053 7.01748C94.3331 7.15784 94.4419 7.26441 94.5461 7.36734C94.6593 7.47859 94.7666 7.58386 94.8982 7.7302C94.9449 7.78219 94.9874 7.82716 95.0277 7.86927C95.1263 7.9722 95.204 8.05382 95.2925 8.19106L95.315 8.22615C95.4369 8.4133 95.5102 8.52637 95.5527 8.74081C95.5989 8.97371 95.5933 9.11251 95.5274 9.33345C95.4727 9.5154 95.4355 9.62457 95.3001 9.75453C95.1378 9.91101 94.9976 9.97547 94.7446 10.0106C94.663 10.0217 94.5962 10.0267 94.5345 10.0267C94.3861 10.0267 94.2594 9.99419 94.112 9.91751C93.9459 9.83173 93.8642 9.77403 93.7867 9.64198C93.7115 9.5141 93.7121 9.41741 93.7129 9.27106V9.22272C93.7129 9.09327 93.74 9.0075 93.7735 8.89911C93.7884 8.85128 93.8036 8.80033 93.8186 8.74185C93.8631 8.56198 93.9504 8.28047 93.9509 8.27735L93.9701 8.21497H90.9339L90.9198 8.24512C90.9156 8.25474 90.8122 8.48582 90.7592 8.64204C90.6956 8.82581 90.6691 8.95135 90.6353 9.11095C90.6241 9.16501 90.6119 9.2222 90.5976 9.2864C90.5722 9.39817 90.5441 9.49538 90.5182 9.58662C90.457 9.80028 90.4041 9.98483 90.4103 10.2562C90.4173 10.5759 90.4477 10.7846 90.601 11.1106C90.7176 11.358 90.8128 11.5119 91.0392 11.7162C91.2307 11.8888 91.3856 11.958 91.6011 12.0533L91.6918 12.0939C92.1368 12.294 92.4252 12.3486 92.933 12.418C93.1753 12.451 93.3851 12.4664 93.5949 12.4664C93.8363 12.4664 94.0642 12.4471 94.385 12.418C95.0136 12.3608 95.373 12.3133 95.9425 12.1202C96.3667 11.9764 96.6072 11.8654 97.0184 11.6237C97.3911 11.4046 97.6172 11.2658 97.9344 10.952C98.2521 10.638 98.4098 10.4226 98.6098 10.0298C98.8295 9.59832 98.8954 9.33501 98.9607 8.9095C99.0466 8.34728 99.0841 8.02964 98.9326 7.5129C98.8154 7.11573 98.6678 6.91091 98.4194 6.56468Z"></path>
<path fill="#231F20" d="M50.1975 2.77336C50.0406 2.6096 49.8674 2.58101 49.6567 2.56022C49.4632 2.54072 49.3503 2.56723 49.1593 2.61064C48.9847 2.65041 48.8884 2.68082 48.7436 2.764C48.6205 2.83574 48.4724 2.98754 48.4662 2.9943L46.4834 9.25729C46.4788 9.27081 46.3746 9.58948 46.458 9.78183C46.5307 9.94975 46.6439 10.0288 46.8033 10.1023C46.9036 10.1486 46.9971 10.1681 47.1159 10.1681C47.1633 10.1681 47.2117 10.1655 47.2641 10.1621C47.2951 10.16 47.328 10.1579 47.3754 10.1561C47.626 10.1457 47.8063 10.1379 48.0288 10.001C48.1893 9.90218 48.271 9.82056 48.3656 9.6646C48.3924 9.61989 48.4017 9.55543 48.4099 9.49825C48.4127 9.48265 48.4155 9.46082 48.4189 9.44366H48.4256C48.4811 9.44366 48.5 9.44366 50.0221 4.31708L50.2592 3.44008C50.264 3.42968 50.3803 3.18327 50.3423 3.01691C50.3169 2.90514 50.2662 2.84536 50.1972 2.7731M59.2676 3.21654C59.2625 3.18794 59.2603 3.16013 59.258 3.13336C59.249 3.03797 59.24 2.94751 59.144 2.86771C59.0603 2.79831 58.9891 2.77622 58.8778 2.7575C58.7989 2.74399 58.6288 2.75594 58.6283 2.75646H57.4436L56.5528 5.39734L56.5319 5.46077H58.1334L58.1433 5.45713C58.1537 5.45297 58.401 5.35887 58.5311 5.25178C58.6854 5.12442 58.7401 4.99861 58.8035 4.85305C58.8218 4.81094 58.8412 4.76624 58.8643 4.71867C58.9758 4.48915 59.0172 4.33345 59.075 4.11823L59.1074 3.99762C59.1299 3.91367 59.1572 3.84011 59.1834 3.76889C59.2482 3.59213 59.3048 3.43956 59.2676 3.21654Z"></path>
<path fill="black" d="M80.7277 2.94744C80.6533 2.86114 80.5767 2.82917 80.4874 2.79226C80.4649 2.78291 80.4418 2.77303 80.4165 2.76159C80.2661 2.69349 80.065 2.65918 79.8182 2.65918C79.4062 2.65918 79.0113 2.75457 78.9947 2.75873L78.9651 2.76575L77.8385 6.38189L77.8267 6.41906L77.8633 6.43803C77.87 6.44193 78.0424 6.53317 78.168 6.5654C78.2587 6.58931 78.3393 6.59919 78.4356 6.59919C78.4778 6.59919 78.5195 6.59763 78.5657 6.59581C78.5967 6.59425 78.6288 6.59321 78.6643 6.59217L78.7167 6.59113C78.9223 6.58593 79.0575 6.58281 79.2659 6.51575C79.5718 6.41802 79.7526 6.29117 79.9579 6.03124C80.0734 5.88438 80.1143 5.76248 80.1613 5.62133C80.181 5.56233 80.2024 5.49917 80.2309 5.42977C80.4514 4.89093 80.6835 4.00691 80.6849 4.00067C80.6888 3.98846 80.7843 3.69656 80.7933 3.49693C80.7961 3.44755 80.8026 3.40076 80.8082 3.35605C80.8274 3.21517 80.8449 3.08208 80.7288 2.94796"></path>
</g>
<defs>
<clipPath id="clip0_2722_10740">
<rect fill="white" height="15" width="109"></rect>
</clipPath>
</defs>
</svg>
