<svg xmlns="http://www.w3.org/2000/svg" fill="none" viewBox="0 0 70 18" height="18" width="70">
<g clip-path="url(#clip0_2722_10755)">
<path fill="black" d="M20.6052 0.513565C16.5782 0.541457 13.2842 4.8773 13.2842 8.65916C13.2842 12.6389 15.6988 17.4936 20.6052 17.4779C25.5115 17.4621 28.0581 12.2356 28.0581 8.65916C28.0581 4.70867 24.6322 0.485674 20.6052 0.513565ZM20.6052 0.661902C23.9756 0.661902 24.8849 4.26798 24.8849 8.65916C24.8849 14.4532 23.788 17.3117 20.6052 17.3063C17.4223 17.3008 16.3868 14.9613 16.3868 8.65916C16.3868 4.71138 17.2347 0.661902 20.6052 0.661902Z"></path>
<path fill="black" d="M29.3878 8.76615C29.3697 4.46299 32.9248 0.651222 35.9343 0.462102C37.0214 0.387495 38.4187 0.869741 39.2345 1.21327C39.8268 1.46273 41.0361 1.10165 41.2508 0.439209H41.3679V6.30092H41.2508C41.2508 6.05104 40.1302 0.609475 35.9343 0.609475C32.8351 0.609475 32.5357 5.88879 32.5357 8.76615C32.5357 11.6435 32.626 17.3397 36.2426 17.3397C37.9947 17.3397 39.2915 16.5971 39.6277 15.0949V10.5271H38.1571V10.3325H43.8574V10.5271H42.4515V17.2052H42.337C42.337 17.2052 42.1084 16.2416 40.9486 16.2448C39.4662 16.2489 38.0681 17.4966 36.3639 17.4814C31.857 17.4412 29.4058 13.0693 29.3878 8.76615Z"></path>
<path fill="black" d="M2.22852 1.09098H0.453613V0.897705H6.6712V1.09098H5.11136L9.55398 12.7787C10.9432 8.63538 12.0194 5.57263 13.4677 1.09098H11.9248V0.897705H15.2077V1.09098H13.7127L8.31319 17.3976L2.22852 1.09098Z"></path>
<path fill="black" d="M44.7278 13.4053L44.6997 1.07219H43.0103V0.887451H49.2345V1.07219H47.546L47.5835 14.5948C47.9573 16.1432 48.6219 17.3182 50.8923 17.3357C53.1627 17.3531 54.7062 16.0345 55.2798 14.2325V1.07219H53.3472L53.3472 0.892893H69.1656L69.1985 6.81328H69.0465C68.7531 2.99071 67.2305 1.54605 64.5678 1.12459C63.6515 0.979567 62.6903 1.08708 61.4751 1.07792V8.6339C62.5333 8.71309 63.6604 8.6483 64.42 8.01628C65.1108 7.44155 65.306 6.11367 65.3568 5.57422H65.4905V12.1531H65.3458C65.304 12.1531 65.2484 10.5022 64.42 9.7189C63.5862 8.9305 62.5244 8.73666 61.4751 8.9245V16.9959C62.9573 16.9959 64.1387 17.1175 65.1648 16.845C68.2836 16.0167 69.3816 13.4677 69.3732 10.9111H69.5466V17.187H57.139V16.9959H58.5419V1.07219H55.5108V14.2325C55.1673 15.4917 53.9116 17.5749 50.6937 17.5606C47.7017 17.5474 44.7343 16.2407 44.7278 13.4053Z"></path>
</g>
<defs>
<clipPath id="clip0_2722_10755">
<rect fill="white" height="18" width="70"></rect>
</clipPath>
</defs>
</svg>
