<svg width="53" height="18" viewBox="0 0 53 18" fill="none" xmlns="http://www.w3.org/2000/svg">
<path d="M16.5843 17.2088C14.6653 17.037 13.3937 16.1434 13.1349 14.7854C13.0807 14.5007 13.0912 13.8222 13.1539 13.5655C13.1705 13.4974 13.1795 13.4418 13.1738 13.4418C13.1681 13.4418 12.8755 13.6509 12.5231 13.9066C11.1598 14.896 10.0379 15.5913 8.9012 16.1513C7.5902 16.7972 6.82687 16.9885 5.55577 16.9913C4.69317 16.9927 4.16402 16.8952 3.60162 16.632C2.73237 16.2246 2.32624 15.6081 2.32624 14.6976C2.32624 14.2529 2.36757 14.0662 2.54095 13.7316L2.69057 13.4068C2.69057 13.3872 2.56992 13.1558 2.4222 12.8921C1.89637 11.9527 1.25037 10.5424 0.745445 9.23157C-0.413555 6.22064 0.95207 3.5961 4.39582 2.2129C4.63332 2.1177 5.22137 1.8503 5.70444 1.61837C6.69814 1.14097 6.78982 1.1013 7.23394 0.960371C8.10889 0.682704 8.90879 0.770903 9.55812 1.21704C9.94681 1.51405 10.2228 1.93062 10.3419 2.40004C10.3628 2.5055 10.3903 2.63057 10.4027 2.67864L10.425 2.76544L10.69 2.6861C11.7521 2.3697 12.9729 2.09997 13.9029 1.97677C14.5641 1.88904 16.0238 1.86944 16.5596 1.94084L16.8636 1.98144L17.104 1.8265C18.3817 1.0019 20.5259 0.977171 23.6376 1.75184C24.6256 1.99777 25.1718 2.1625 25.7086 2.37577C26.7251 2.78037 26.7688 2.7785 27.6276 2.28524C28.4626 1.8055 29.8948 1.26977 31.0414 1.0075C31.8071 0.832504 32.2935 0.779771 33.1647 0.778837C34.1422 0.777437 34.5184 0.826904 35.182 1.0439C35.8342 1.25717 36.0037 1.27724 36.5452 1.20584C37.1323 1.12884 38.8794 1.10037 39.8883 1.15217C42.3241 1.27677 44.0241 1.5255 48.3846 2.3935L52.4753 3.1607L52.6577 3.1887L52.6544 3.3091C52.6525 3.37537 52.6226 3.4659 52.5879 3.51117C52.301 3.88544 51.0052 5.4749 50.6917 5.83797C50.1654 6.44697 49.4695 7.1353 48.9893 7.51797L48.595 7.8353L48.6174 8.18437C48.643 8.5801 48.5955 9.0617 48.5043 9.33097L48.4445 9.50737L48.7223 9.86204C49.0235 10.247 49.279 10.6484 49.3873 10.913L49.4586 11.081L49.3921 11.3759C48.9437 13.3569 47.9329 14.6612 46.2675 15.4079C44.9874 15.9819 41.4596 16.7743 39.0224 17.0366C37.6924 17.1798 35.8807 17.2116 35.0143 17.1066C33.6074 16.9367 32.6108 16.6226 31.8413 16.1056L31.5668 15.9212L31.2946 16.0659C30.4529 16.512 29.2426 16.8592 27.8922 17.0412C27.2414 17.1299 25.6706 17.1658 25.0065 17.108C23.439 16.9717 22.0881 16.5722 21.1956 15.981C21.0864 15.9091 20.9895 15.8503 20.9795 15.8503C20.9695 15.8503 20.8622 15.9436 20.742 16.0566C20.1454 16.6175 19.2348 17.003 18.1509 17.1532C17.7077 17.2148 16.9615 17.2396 16.5796 17.2055L16.5843 17.2088ZM17.977 15.3561C18.6515 15.2796 19.1441 15.105 19.3607 14.8661C19.5269 14.6832 19.6314 14.4904 19.848 13.9771C19.9525 13.7279 20.2033 13.1931 20.4038 12.7871L20.7695 12.0498L20.7914 12.2747C20.9149 13.551 21.6416 14.3374 23.1645 14.8414C24.789 15.379 26.1731 15.476 27.8641 15.1718C29.3062 14.9118 30.9298 14.3005 32.427 13.4544L32.8094 13.2444C32.8151 13.2444 32.8132 13.4278 32.8056 13.6523C32.7733 14.6146 33.054 14.8638 34.4823 15.141C35.8185 15.4009 37.3741 15.4284 39.0105 15.2217C40.4659 15.0378 43.8232 14.2963 44.9727 13.9048C46.4366 13.4064 47.1244 12.7488 47.4284 11.5593L47.5092 11.2457L47.4379 11.1883C47.3287 11.095 46.9895 11.0077 46.6779 10.982C46.0519 10.9354 45.2339 11.0684 43.6474 11.4926C42.0951 11.9079 41.3684 12.0386 40.4013 12.0768C39.3672 12.1179 38.164 11.9042 38.0263 11.6559C37.9484 11.5103 38.0182 11.2966 38.183 11.1752C38.7293 10.7739 39.5833 10.6418 41.9854 10.5854C44.4516 10.5275 45.2962 10.3576 46.0248 9.77337C46.5535 9.3487 46.8618 8.7495 46.7919 8.28284C46.7026 7.69017 45.8742 7.32384 44.7371 7.3747C44.1894 7.39944 43.8004 7.4713 42.6647 7.75737C42.1635 7.88337 41.5897 8.01124 41.3893 8.0411C40.8587 8.1195 39.8218 8.1111 39.6864 8.0271C39.657 8.00844 39.6627 7.9739 39.7121 7.8899C39.7482 7.82784 39.8322 7.6449 39.8992 7.48297C40.0275 7.1703 40.1367 6.9799 40.227 6.90524C40.303 6.84224 41.4506 6.8749 42.5497 6.9715C43.5235 7.05737 44.8316 7.07417 45.299 7.0079C46.7558 6.8007 47.8327 6.23184 48.814 5.15524C48.9381 5.01766 49.0656 4.88306 49.1964 4.75157C49.279 4.6713 49.3284 4.59384 49.3284 4.54344C49.3284 4.45664 49.3018 4.4431 49.0634 4.40904C48.72 4.35957 47.5728 4.1477 46.3796 3.91344C43.5382 3.35344 42.2367 3.14484 40.568 2.9801C39.7391 2.89844 37.358 2.8961 36.7376 2.97544C36.1486 3.0515 36.0869 3.08464 35.3364 3.7417C35.2347 3.83504 35.143 3.89477 35.1321 3.8845C35.1212 3.87424 35.1582 3.71977 35.2129 3.54104C35.2599 3.39352 35.3009 3.24422 35.3359 3.0935C35.363 2.94604 35.362 2.9451 34.793 2.80044C32.931 2.32677 30.9474 2.68844 28.3786 3.96804C26.0382 5.1347 24.3729 6.23837 22.8638 7.62437L22.5598 7.90297L22.7983 7.50864C23.3664 6.56877 23.8157 5.94297 24.6622 4.91164C25.263 4.17897 25.2996 4.12904 25.2426 4.10897C24.8887 3.9839 22.4116 3.39404 21.4393 3.20364C20.5449 3.0277 19.8419 2.96237 19.3018 3.0039C18.6463 3.05524 18.2786 3.20177 17.8692 3.5779C17.4431 3.9699 17.35 3.99184 16.7672 3.8439C15.849 3.61197 14.6344 3.6507 13.0266 3.96337C10.7404 4.4081 9.92672 4.83044 9.85594 5.60837C9.84407 5.74137 9.86924 5.94437 9.94524 6.32237C10.1276 7.22864 10.0678 7.4237 9.18619 8.79804C8.79384 9.4103 8.58294 9.6791 8.34544 9.87277C8.13882 10.0408 7.92839 10.1528 7.8904 10.1145C7.81202 10.0361 7.75359 9.25117 7.77069 8.5017C7.79349 7.49837 7.98729 6.30277 8.4072 4.57097C8.56062 3.9377 8.59719 3.3259 8.50695 2.9199L8.44994 2.66324L8.16352 2.6819C7.73127 2.70897 7.50897 2.7953 6.60172 3.2853C6.23476 3.4732 5.85893 3.64388 5.47549 3.79677C3.97355 4.3941 3.26769 4.8141 2.80124 5.39044C2.35142 5.94577 2.1695 6.53844 2.20465 7.33784C2.2265 7.84184 2.28825 8.05977 2.71432 9.12984C3.40117 10.8565 3.84482 11.7282 4.66657 12.9705C4.87415 13.2846 5.0442 13.5557 5.0442 13.5725C5.0442 13.5893 4.86844 13.7792 4.65279 13.9925C4.34879 14.2949 4.25285 14.4111 4.22197 14.517C4.16022 14.728 4.17257 14.7812 4.3051 14.8904C4.5236 15.0696 4.76585 15.1307 5.33252 15.1494C6.54377 15.189 7.50992 14.8712 9.30732 13.8418C11.2729 12.7162 12.3692 11.7348 14.7185 8.99777L15.6923 7.84184C16.0642 7.38124 16.1896 7.24824 16.362 7.12877L16.4998 7.0331L16.5392 7.20577C16.5606 7.30097 16.5857 7.5945 16.5948 7.8577C16.6233 8.68697 16.5074 9.15224 15.9469 10.457C15.1346 12.347 14.7917 13.7732 14.976 14.4862C15.0985 14.9613 15.6676 15.2385 16.7871 15.3682C17.1844 15.3924 17.5828 15.388 17.9794 15.3552L17.977 15.3561ZM26.9203 12.2528C26.2344 12.1006 25.8649 11.724 25.8668 11.178C25.8677 10.885 25.9128 10.7226 26.0967 10.3534C26.452 9.63944 26.9631 9.0141 28.0703 7.94544C28.4764 7.55344 28.9348 7.09144 29.0887 6.91877C29.2426 6.7461 29.3737 6.61077 29.3813 6.61777C29.4036 6.6397 29.2008 7.3565 28.9125 8.27304C28.6631 9.06637 28.428 9.87837 28.428 9.94744C28.428 10.0165 29.5086 9.9493 31.1274 9.77337L32.6441 9.62124C32.9433 9.6007 32.9732 9.5923 33.0288 9.51297C33.1086 9.40097 33.2426 9.0813 33.3138 8.83257C33.3447 8.72337 33.3813 8.62257 33.3946 8.60857C33.4278 8.57264 33.5751 8.85404 33.6672 9.12984C33.7622 9.4285 33.7788 10.108 33.6876 10.3105C33.6335 10.4304 33.6268 10.4342 33.4606 10.4342C32.8013 10.4342 31.9377 10.6838 30.8623 11.1855C28.9063 12.0974 28.4603 12.2434 27.5502 12.2682C27.277 12.2756 26.9935 12.2686 26.9208 12.2523L26.9203 12.2528ZM34.3398 6.1161C34.3531 6.08344 34.4372 5.8501 34.527 5.5953L34.744 4.99097L34.7977 4.8491L34.9003 4.94617C35.0585 5.09644 35.3041 5.20284 35.8612 5.36384C36.3315 5.49917 36.7419 5.65177 36.7419 5.6905C36.7419 5.71757 36.4094 5.77777 35.7159 5.87904C35.0618 5.97377 34.6091 6.06384 34.4111 6.13944C34.3256 6.1721 34.3189 6.1693 34.3398 6.11704V6.1161Z" fill="black"></path>
</svg>
