<svg xmlns="http://www.w3.org/2000/svg" fill="none" viewBox="0 0 463 72" height="72" width="463">
<path fill="#231F20" d="M26.5363 22.7319V47.7709C29.9193 45.9439 32.2883 42.7629 33.4383 39.1759L33.7093 39.3119C32.9643 48.2449 26.8743 57.1769 17.4003 57.1769C7.85831 57.1769 0.820312 50.0719 0.820312 38.7019C0.820312 30.1759 6.36931 24.8289 13.4753 20.0239C12.437 19.7516 11.3677 19.6151 10.2943 19.6179C5.42131 19.6179 2.57931 22.9339 2.57931 26.3179H2.17331C2.10531 25.8439 2.10531 25.3709 2.10531 24.8969C2.10531 18.8739 5.28631 11.5649 13.0013 11.5649C17.9413 11.5649 21.7313 16.0989 27.4833 16.0989C29.7843 16.0989 32.6263 15.0159 33.7763 12.5119H33.9793C33.9123 16.9119 32.5593 21.4459 26.5363 22.7319ZM30.1903 48.3799C26.8063 51.9659 23.1523 55.0119 18.4153 55.0119C9.61831 55.0119 2.85131 48.1089 2.85131 38.0929C2.85131 32.2059 5.28731 29.0259 7.99431 25.3029H7.72331C6.03131 26.9949 1.56531 31.2579 1.56531 38.4989C1.56531 49.5979 8.53531 56.4329 17.6713 56.4329C24.0323 56.4329 28.3633 52.0349 30.3263 48.4479L30.1903 48.3799ZM32.8963 15.5589C31.7463 17.7239 29.3103 20.4979 24.3703 20.4979C19.4303 20.4979 14.8963 17.1139 10.9033 17.1139C7.24831 17.1139 4.74531 19.5509 3.79731 21.3779L3.86531 21.5139C5.15131 20.2279 7.11331 18.9419 10.2943 18.9419C15.5723 18.9419 18.9563 22.1909 24.3023 22.1909C29.9873 22.1909 32.5583 18.4679 33.0323 15.6269L32.8963 15.5589ZM14.0833 20.2279C10.6323 23.8149 7.45131 27.7399 7.45131 35.3869C7.45131 39.5819 8.87231 43.9129 12.0533 46.6199L14.0153 45.6039V27.4689L12.1883 28.4159L11.8503 27.7389L21.3243 22.5949C18.7533 22.0549 16.4523 20.9049 14.0833 20.2279ZM25.7913 22.8669C25.3173 22.9339 24.8443 22.9339 24.3023 22.9339C23.3553 22.9339 22.4753 22.8669 21.5953 22.6629V42.4229L12.7303 47.2299C14.5573 48.5829 16.7903 49.3949 19.6323 49.3949C21.9333 49.3949 23.9633 48.9209 25.7903 48.1089L25.7913 22.8669ZM16.0463 26.3189L14.7603 27.0629V45.1999L16.0463 44.5229V26.3189ZM54.9583 28.8899V52.3049C54.9583 58.8009 49.2063 63.2009 42.7773 64.4859L42.6423 64.2149C45.8233 62.6579 47.6503 59.4779 47.6503 56.0939V31.8669L43.9963 28.5519L42.5753 30.1079V48.9889L44.6053 50.8159V50.9519L39.1243 56.9069L32.8313 51.1549V50.8839L35.2673 48.3119V18.4009L42.4403 10.7549L42.5753 10.8219V28.9579L48.4633 22.5969L54.6213 28.1469L55.7713 26.9279L56.3133 27.4029L54.9583 28.8899ZM36.0103 51.0189V50.8839L37.4313 49.4619V17.2499L36.0103 18.7399V48.7859L33.8443 50.9519V51.0869L39.1223 55.8239L40.0693 54.7409L36.0103 51.0189ZM49.8153 30.7839L45.4163 26.9949L44.4693 28.0099L48.3943 31.5299V55.8919C48.3943 57.5159 48.0563 59.2069 47.4473 60.1549L47.5153 60.2229C49.2073 59.0039 49.8163 57.1769 49.8163 54.8089V30.7839H49.8153ZM65.7183 42.4919V45.9429L72.2823 51.0859L76.0723 47.0259L76.6143 47.5669L67.8173 56.9729L58.8843 49.7999L57.5313 51.2209L56.9893 50.6799L58.5463 49.0559V31.9349L71.3363 22.5959L78.0363 33.4239L65.7183 42.4919ZM60.7103 48.4479V31.2579L59.2893 32.2739V49.1249L67.6813 55.9599L68.7643 54.8099L60.7103 48.4479ZM65.8543 27.6039L65.7183 27.6719V41.5449L71.7413 37.1459L65.8543 27.6039ZM67.6133 26.2509L66.3953 27.1299L72.3513 36.6719L73.5693 35.7919L67.6133 26.2509ZM122.147 56.9059L112.74 48.7849L105.567 56.9059L95.8223 48.5139V35.2509H93.9273C92.2353 35.2509 91.3563 36.3339 90.9493 37.6189H90.7463C90.5303 36.7787 90.4169 35.9154 90.4083 35.0479C90.4083 33.2879 90.8823 28.6869 95.8223 28.6869V17.0469C95.8223 14.8139 93.1833 13.9339 93.1833 10.9559C93.1833 7.09994 96.8373 3.30994 103.537 0.939941L103.808 1.14294C101.372 2.56494 100.086 3.91794 100.086 6.82794C100.086 11.2949 104.417 10.1439 104.417 17.1819V19.8889L112.335 11.5649L120.659 19.7529L128.509 11.5649L136.088 19.0089V44.0479L122.147 56.9059ZM97.9883 47.4319V33.1539H94.1983C92.2353 33.1539 91.3563 34.4389 91.2203 35.5899L91.2873 35.6579C91.9643 34.9139 92.6413 34.5079 94.1973 34.5079H96.5653V48.1779L105.498 55.8929L106.513 54.6739L97.9883 47.4319ZM97.9883 16.3699C97.9883 13.5959 95.5523 12.6479 95.5523 10.8889C95.5523 8.45194 96.4993 6.42294 97.9883 4.52794L97.8533 4.46094C95.8233 6.01794 93.9283 8.52194 93.9283 10.9569C93.9283 13.3939 96.5673 14.5439 96.5673 16.7099V28.6879H97.9883V16.3699ZM112.267 23.1379L107.124 18.1299L104.417 20.9039V44.8599L110.575 50.0709L112.267 48.1759V23.1379ZM114.432 47.2969V22.1909L108.68 16.5059L107.597 17.5889L113.011 22.7989V48.0409L122.147 55.9589L123.23 54.9429L114.432 47.2969ZM127.561 22.2579L123.298 18.1969L120.862 20.7009V44.7929L127.494 50.6119L127.561 50.5449V22.2579ZM129.726 21.3109L124.786 16.5059L123.771 17.5889L128.305 21.9199V50.2069L129.726 48.8529V21.3109ZM158.481 56.9059L152.052 51.0859L146.3 56.9059L139.262 50.6799L138.314 51.6949L137.773 51.1539L138.991 49.8679V31.7329L151.714 22.5289L159.023 28.2139L160.309 26.8599L160.851 27.4019L159.362 28.9579V47.7039L162.948 51.0189L164.099 49.8009L164.64 50.2749L158.481 56.9059ZM141.157 49.3949V31.1229L139.736 32.1379V50.0719L146.233 55.8919L147.316 54.8089L141.157 49.3949ZM152.052 31.5969L146.503 27.2659L146.3 27.4019V47.0939L150.902 51.0859L152.052 49.9359V31.5969ZM154.218 50.0039V30.5819L148.466 25.9119L147.113 26.8589L152.797 31.3259V50.6799L158.482 55.8229L159.497 54.7399L154.218 50.0039ZM178.174 34.8449H185.144V49.3269L174.384 56.9059C172.963 55.2819 170.932 54.1319 168.429 54.1319C166.399 54.1319 164.774 54.8089 162.609 56.6359L162.271 56.4999L171.475 43.1009H165.79V30.5139L177.092 22.6639C178.445 23.7469 179.46 24.3549 181.22 24.3549C182.574 24.3549 184.536 24.0839 186.025 22.8669L186.296 23.0019L178.174 34.8449ZM170.595 52.1689C168.632 52.1689 167.076 52.8459 165.722 53.7929V53.9289C166.805 53.4549 167.888 53.3199 168.903 53.3199C170.459 53.3199 172.896 54.0649 174.52 55.9599L176.077 54.8099C174.79 53.3199 173.234 52.1689 170.595 52.1689ZM177.835 40.7999H174.045L166.127 52.2379L166.195 52.3729C168.157 50.9519 170.052 50.0049 172.353 50.0049C174.383 50.0049 176.481 50.9519 177.767 52.5759L177.835 52.5089V40.7999ZM167.955 40.7999V29.9059L166.534 30.9209V42.2899H172.015L173.098 40.8009L167.955 40.7999ZM182.099 27.5359C180.678 28.5519 179.866 29.0929 177.497 29.0929C176.143 29.0929 174.519 28.4839 173.234 27.1299L173.099 27.1979V37.0779H175.67L182.167 27.6029L182.099 27.5359ZM178.851 26.9269C177.633 26.9269 176.077 26.3189 175.061 24.9649L173.369 26.1149C174.655 27.6719 175.873 28.3479 177.767 28.3479C178.985 28.3479 180.745 28.0089 182.572 26.4519L182.639 26.2499C181.49 26.7249 180.069 26.9269 178.851 26.9269ZM180.001 38.5679H175.602L174.587 39.9889H178.58V53.1169L180.001 52.1019V38.5679ZM208.491 28.8899V52.3049C208.491 58.8009 202.739 63.2009 196.31 64.4859L196.175 64.2149C199.356 62.6579 201.183 59.4779 201.183 56.0939V31.8669L197.529 28.5519L196.108 30.1079V48.9889L198.138 50.8159V50.9519L192.657 56.9069L186.364 51.1549V50.8839L188.8 48.3119V18.4009L195.973 10.7549L196.108 10.8219V28.9579L201.996 22.5969L208.154 28.1469L209.304 26.9279L209.846 27.4029L208.491 28.8899ZM189.543 51.0189V50.8839L190.964 49.4619V17.2499L189.543 18.7389V48.7849L187.377 50.9509V51.0859L192.655 55.8229L193.602 54.7399L189.543 51.0189ZM203.348 30.7839L198.949 26.9949L198.002 28.0099L201.927 31.5299V55.8919C201.927 57.5159 201.589 59.2069 200.98 60.1549L201.048 60.2229C202.74 59.0039 203.349 57.1769 203.349 54.8089L203.348 30.7839ZM220.808 56.9059L214.988 51.5599L213.634 52.9809L213.092 52.4389L214.649 50.7479V31.1909L211.807 28.4839L210.724 29.7029L210.182 29.1609L216.272 22.5289L221.686 27.4019L223.04 25.9129L223.649 26.3869L221.957 28.2139V47.9749L225.206 51.0199L226.695 49.4629L227.236 50.0049L220.808 56.9059ZM216.815 50.2749V30.1079L213.296 26.8599L212.349 27.9429L215.394 30.8529V50.9519L220.808 55.8239L221.823 54.7409L216.815 50.2749ZM218.845 21.9879L213.296 16.9129L218.372 11.4989L223.921 16.5739L218.845 21.9879ZM215.394 15.8289L214.379 16.8439L218.777 20.9719L219.792 19.8219L215.394 15.8289ZM249.423 56.9059L243.535 51.5599V31.7999L239.948 28.5519L238.053 30.5819V48.8529L240.151 50.8149V51.0859L234.602 56.9059L228.308 51.1539V50.9509L230.745 48.3799V31.3259L227.564 28.4159L226.278 29.8369L225.737 29.2959L231.895 22.5959L238.053 28.0779V29.4309L244.482 22.5959L250.504 28.0099L251.858 26.5889L252.467 27.1299L250.843 28.8219V48.1759L253.888 51.0179L255.377 49.3939L255.918 49.9349L249.423 56.9059ZM231.557 51.0189V50.8839C231.557 51.0189 232.911 49.5299 232.911 49.5299V30.3099L229.053 26.7909L228.105 27.8059L231.489 30.9189V48.7839L229.391 50.9499V51.0849L234.602 55.8219L235.684 54.6719L231.557 51.0189ZM245.7 50.4779V30.6499L241.505 26.8599L240.422 28.0099L244.279 31.4609V51.1539L249.354 55.8909L250.437 54.7399L245.7 50.4779ZM268.506 69.0869C266.274 66.6509 264.717 65.6359 262.619 65.6359C260.386 65.6359 257.814 66.5159 255.175 67.9369L254.972 67.7349L264.311 56.9069L257.679 51.6289L256.393 52.9829L255.852 52.5089L257.34 50.8849V31.7329L270.198 22.5289L277.371 28.2139L278.59 26.8599L279.131 27.4019L277.71 28.9579V52.1029C277.71 55.6219 279.672 55.4869 279.672 58.1249C279.672 61.1699 275.273 64.0119 268.506 69.0869ZM259.506 50.3419V31.1909L258.085 32.2069V50.9519L264.784 56.3659L265.8 55.1469L259.506 50.3419ZM264.243 63.8769C262.01 63.8769 259.979 64.5539 258.085 65.8389V65.9749C259.303 65.5009 260.656 64.8919 262.957 64.8919C265.055 64.8919 266.814 66.0419 268.574 68.0729L269.928 66.9899C268.235 65.0279 266.205 63.8769 264.243 63.8769ZM272.499 57.3799C270.808 56.2969 270.401 55.1469 270.401 52.2369V51.0179L259.167 64.0109L259.235 64.0779C261.4 62.7929 263.363 61.8459 266.544 61.8459C269.251 61.8459 271.078 62.9279 273.176 64.6879C274.462 63.6049 275.341 62.5229 275.341 60.8309C275.341 59.4779 274.19 58.4629 272.499 57.3799ZM270.401 31.5969L264.784 27.1989L264.648 27.3339V48.1089L268.98 51.4929L270.401 49.8689V31.5969ZM274.529 56.4329C272.769 55.0789 272.566 53.9289 272.566 51.0189V30.4469L266.881 25.8449L265.596 26.7249L271.145 31.1229V51.9659C271.145 54.8759 271.281 55.6889 273.108 56.9059C274.732 57.9889 276.017 59.1389 276.017 60.6959C276.017 61.1009 275.95 61.7779 275.95 61.7779L276.017 61.8459C276.356 61.5069 276.762 60.9659 276.762 60.0859C276.763 58.5979 276.018 57.5829 274.529 56.4329ZM290.771 56.9059L284.545 52.0339L283.259 53.4549L282.718 52.9129L284.206 51.2889V27.6039H280.281L280.145 27.4689L282.514 23.9489H284.205V19.4159L291.379 11.7689L291.514 11.9049V23.9499H296.928L297.064 24.0859L294.695 27.6049H291.514V48.1099L295.237 50.9529L296.658 49.3959L297.199 49.9369L290.771 56.9059ZM286.372 18.2649L284.951 19.8219V23.9499H286.372V18.2649ZM286.372 50.6129V27.6039H284.951V51.4249L290.703 55.8919L291.718 54.8089L286.372 50.6129ZM319.328 29.5669V48.5149L307.891 56.9739L299.296 50.4779L298.281 51.6279L297.74 51.0859L298.958 49.7329V31.1909L310.937 22.5959L318.922 28.8229L320.207 27.4689L320.749 28.0099L319.328 29.5669ZM301.125 49.0569V30.5819L299.703 31.5969V49.8009L307.824 56.0269L309.11 55.0799L301.125 49.0569ZM312.02 31.7999L306.335 27.3329L306.268 27.4009V47.5669L312.02 51.8979V31.7999ZM314.186 30.5819L307.892 25.7089L306.607 26.6559L312.765 31.3929V52.4399L314.186 51.3579V30.5819ZM345.18 56.9059L339.292 51.5599V31.7999L335.705 28.5519L333.81 30.5819V48.8529L335.908 50.8149V51.0859L330.359 56.9059L324.065 51.1539V50.9509L326.502 48.3799V31.3259L323.321 28.4159L322.035 29.8369L321.494 29.2959L327.652 22.5959L333.81 28.0779V29.4309L340.239 22.5959L346.262 28.0099L347.615 26.5889L348.224 27.1299L346.6 28.8219V48.1759L349.645 51.0179L351.134 49.3939L351.675 49.9349L345.18 56.9059ZM327.313 51.0189V50.8839C327.313 51.0189 328.667 49.5299 328.667 49.5299V30.3099L324.81 26.7909L323.863 27.8059L327.247 30.9189V48.7839L325.149 50.9499V51.0849L330.36 55.8219L331.443 54.6719L327.313 51.0189ZM341.457 50.4779V30.6499L337.262 26.8599L336.179 28.0099L340.036 31.4609V51.1539L345.111 55.8909L346.194 54.7399L341.457 50.4779ZM386.986 56.9059C385.091 54.8759 384.415 54.1989 382.181 53.5899V66.8539L382.045 66.9209L379.338 64.4839L371.488 71.7249L371.352 71.6579V53.4549C368.984 53.9959 366.48 55.2149 364.043 57.6499L363.908 57.5829C364.382 52.3719 366.953 48.5149 371.351 47.0259V33.8299H369.93C367.968 33.8299 366.885 34.8449 365.938 36.6719H365.735C365.532 36.0639 365.396 35.1149 365.396 33.5599C365.396 30.7169 367.494 27.7399 370.946 27.7399H371.351V20.4309L368.577 17.9269L367.223 19.2809L366.749 18.8069L373.584 11.5659L379.945 17.3859V23.5439L381.434 21.9199V14.1369H382.178V21.2429L391.178 11.5649L398.825 18.5359V47.9739L386.986 56.9059ZM371.354 50.9509C368.58 51.4919 366.618 53.1839 365.332 55.4169L365.399 55.5529C367.295 53.9289 369.053 53.1849 371.354 52.6429V50.9509ZM373.52 31.5299H369.798C367.226 31.5299 366.211 33.1539 366.144 35.0489L366.211 35.1159C367.023 33.7619 367.835 33.2889 369.459 33.0869H372.099V69.9679L373.52 68.6139V31.5299ZM373.52 19.3479L370.136 16.2359L369.053 17.3859L372.099 20.0919V27.7389H373.52V19.3479ZM381.438 23.2049L379.949 24.7619V63.9449L381.438 65.2989V23.2049ZM390.303 21.6489L386.31 17.9949L382.182 22.4619V46.2819C385.701 46.6209 388.137 47.6359 390.235 49.9359L390.303 49.8689V21.6489ZM382.182 50.9509V52.7109C384.483 53.2519 385.43 53.9289 387.054 55.8229L388.611 54.6049C386.986 52.5749 385.362 51.3579 382.182 50.9509ZM392.468 20.5669L387.866 16.3029L386.783 17.4529L391.047 21.3779V52.8459L392.468 51.7629V20.5669ZM422.447 29.5669V48.5149L411.009 56.9739L402.415 50.4779L401.399 51.6279L400.858 51.0859L402.076 49.7329V31.1909L414.055 22.5959L422.04 28.8229L423.325 27.4689L423.867 28.0099L422.447 29.5669ZM404.243 49.0569V30.5819L402.821 31.5969V49.8009L410.942 56.0269L412.228 55.0799L404.243 49.0569ZM415.138 31.7999L409.454 27.3329L409.386 27.4009V47.5669L415.138 51.8979V31.7999ZM417.304 30.5819L411.01 25.7089L409.725 26.6559L415.883 31.3929V52.4399L417.304 51.3579V30.5819ZM438.146 34.8449H445.117V49.3269L434.357 56.9059C432.936 55.2819 430.906 54.1319 428.402 54.1319C426.372 54.1319 424.748 54.8089 422.582 56.6359L422.244 56.4999L431.447 43.1009H425.762V30.5139L437.064 22.6639C438.418 23.7469 439.432 24.3549 441.192 24.3549C442.546 24.3549 444.507 24.0839 445.997 22.8669L446.268 23.0019L438.146 34.8449ZM430.567 52.1689C428.605 52.1689 427.048 52.8459 425.695 53.7929V53.9289C426.778 53.4549 427.86 53.3199 428.876 53.3199C430.433 53.3199 432.868 54.0649 434.492 55.9599L436.049 54.8099C434.764 53.3199 433.207 52.1689 430.567 52.1689ZM437.809 40.7999H434.019L426.102 52.2379L426.169 52.3729C428.131 50.9519 430.026 50.0049 432.327 50.0049C434.357 50.0049 436.455 50.9519 437.741 52.5759L437.808 52.5089L437.809 40.7999ZM427.929 40.7999V29.9059L426.507 30.9209V42.2899H431.988L433.071 40.8009L427.929 40.7999ZM442.072 27.5359C440.65 28.5519 439.839 29.0929 437.469 29.0929C436.115 29.0929 434.491 28.4839 433.206 27.1299L433.07 27.1979V37.0779H435.641L442.138 27.6029L442.072 27.5359ZM438.823 26.9269C437.605 26.9269 436.049 26.3189 435.034 24.9649L433.342 26.1149C434.628 27.6719 435.846 28.3479 437.741 28.3479C438.959 28.3479 440.719 28.0089 442.546 26.4519L442.613 26.2499C441.463 26.7249 440.042 26.9269 438.823 26.9269ZM439.974 38.5679H435.576L434.561 39.9889H438.553V53.1169L439.974 52.1019V38.5679ZM456.351 56.9059L450.125 52.0339L448.839 53.4549L448.298 52.9129L449.786 51.2889V27.6039H445.861L445.726 27.4689L448.094 23.9489H449.785V19.4159L456.959 11.7689L457.095 11.9049V23.9499H462.508L462.644 24.0859L460.275 27.6049H457.095V48.1099L460.817 50.9529L462.238 49.3959L462.779 49.9369L456.351 56.9059ZM451.952 18.2649L450.531 19.8219V23.9499H451.952V18.2649ZM451.952 50.6129V27.6039H450.531V51.4249L456.283 55.8919L457.298 54.8089L451.952 50.6129Z"></path>
</svg>
