<svg xmlns="http://www.w3.org/2000/svg" fill="none" viewBox="0 0 431 44" height="44" width="431">
<path fill="#333333" d="M5.908 11.14C5.14267 11.14 4.438 11.014 3.794 10.762C3.15 10.51 2.59 10.16 2.114 9.712C1.638 9.25467 1.26933 8.72267 1.008 8.116C0.746667 7.5 0.616 6.828 0.616 6.1C0.616 5.372 0.746667 4.70467 1.008 4.098C1.26933 3.482 1.638 2.95 2.114 2.502C2.59 2.04467 3.15 1.69 3.794 1.438C4.438 1.186 5.138 1.06 5.894 1.06C6.65933 1.06 7.35933 1.186 7.994 1.438C8.638 1.69 9.198 2.04467 9.674 2.502C10.15 2.95 10.5187 3.482 10.78 4.098C11.0413 4.70467 11.172 5.372 11.172 6.1C11.172 6.828 11.0413 7.5 10.78 8.116C10.5187 8.732 10.15 9.264 9.674 9.712C9.198 10.16 8.638 10.51 7.994 10.762C7.35933 11.014 6.664 11.14 5.908 11.14ZM5.894 9.544C6.38867 9.544 6.846 9.46 7.266 9.292C7.686 9.124 8.05 8.886 8.358 8.578C8.666 8.26067 8.904 7.89667 9.072 7.486C9.24933 7.066 9.338 6.604 9.338 6.1C9.338 5.596 9.24933 5.13867 9.072 4.728C8.904 4.308 8.666 3.944 8.358 3.636C8.05 3.31867 7.686 3.076 7.266 2.908C6.846 2.74 6.38867 2.656 5.894 2.656C5.39933 2.656 4.942 2.74 4.522 2.908C4.11133 3.076 3.74733 3.31867 3.43 3.636C3.122 3.944 2.87933 4.308 2.702 4.728C2.534 5.13867 2.45 5.596 2.45 6.1C2.45 6.59467 2.534 7.052 2.702 7.472C2.87933 7.892 3.122 8.26067 3.43 8.578C3.738 8.886 4.102 9.124 4.522 9.292C4.942 9.46 5.39933 9.544 5.894 9.544ZM15.8155 11.098C14.9942 11.098 14.3595 10.888 13.9115 10.468C13.4635 10.0387 13.2395 9.40867 13.2395 8.578V1.872H14.9895V8.536C14.9895 8.89067 15.0782 9.166 15.2555 9.362C15.4422 9.558 15.6988 9.656 16.0255 9.656C16.4175 9.656 16.7442 9.55333 17.0055 9.348L17.4955 10.594C17.2902 10.762 17.0382 10.888 16.7395 10.972C16.4408 11.056 16.1328 11.098 15.8155 11.098ZM12.0075 4.98V3.58H16.9915V4.98H12.0075ZM23.1771 3.44C23.7744 3.44 24.3064 3.55667 24.7731 3.79C25.2491 4.02333 25.6224 4.38267 25.8931 4.868C26.1638 5.344 26.2991 5.96 26.2991 6.716V11H24.5491V6.94C24.5491 6.27733 24.3904 5.78267 24.0731 5.456C23.7651 5.12933 23.3311 4.966 22.7711 4.966C22.3604 4.966 21.9964 5.05 21.6791 5.218C21.3618 5.386 21.1144 5.638 20.9371 5.974C20.7691 6.30067 20.6851 6.716 20.6851 7.22V11H18.9351V0.611999H20.6851V5.54L20.3071 4.924C20.5684 4.448 20.9464 4.084 21.4411 3.832C21.9451 3.57067 22.5238 3.44 23.1771 3.44ZM32.0468 11.098C31.2161 11.098 30.4881 10.9347 29.8628 10.608C29.2468 10.272 28.7661 9.81467 28.4208 9.236C28.0848 8.65733 27.9168 7.99933 27.9168 7.262C27.9168 6.51533 28.0801 5.85733 28.4068 5.288C28.7428 4.70933 29.2001 4.25667 29.7788 3.93C30.3668 3.60333 31.0341 3.44 31.7808 3.44C32.5088 3.44 33.1574 3.59867 33.7268 3.916C34.2961 4.23333 34.7441 4.68133 35.0708 5.26C35.3974 5.83867 35.5608 6.52 35.5608 7.304C35.5608 7.37867 35.5561 7.46267 35.5468 7.556C35.5468 7.64933 35.5421 7.738 35.5328 7.822H29.3028V6.66H34.6088L33.9228 7.024C33.9321 6.59467 33.8434 6.21667 33.6568 5.89C33.4701 5.56333 33.2134 5.30667 32.8868 5.12C32.5694 4.93333 32.2008 4.84 31.7808 4.84C31.3514 4.84 30.9734 4.93333 30.6468 5.12C30.3294 5.30667 30.0774 5.568 29.8908 5.904C29.7134 6.23067 29.6248 6.618 29.6248 7.066V7.346C29.6248 7.794 29.7274 8.19067 29.9328 8.536C30.1381 8.88133 30.4274 9.14733 30.8008 9.334C31.1741 9.52067 31.6034 9.614 32.0888 9.614C32.5088 9.614 32.8868 9.54867 33.2228 9.418C33.5588 9.28733 33.8574 9.082 34.1188 8.802L35.0568 9.88C34.7208 10.272 34.2961 10.5753 33.7828 10.79C33.2788 10.9953 32.7001 11.098 32.0468 11.098ZM37.2418 11V3.524H38.9078V5.582L38.7118 4.98C38.9358 4.476 39.2858 4.09333 39.7618 3.832C40.2471 3.57067 40.8491 3.44 41.5678 3.44V5.106C41.4931 5.08733 41.4231 5.078 41.3578 5.078C41.2924 5.06867 41.2271 5.064 41.1618 5.064C40.4991 5.064 39.9718 5.26 39.5798 5.652C39.1878 6.03467 38.9918 6.60867 38.9918 7.374V11H37.2418ZM47.1578 11V1.2H48.9778V11H47.1578ZM55.7025 3.44C56.2998 3.44 56.8318 3.55667 57.2985 3.79C57.7745 4.02333 58.1478 4.38267 58.4185 4.868C58.6892 5.344 58.8245 5.96 58.8245 6.716V11H57.0745V6.94C57.0745 6.27733 56.9158 5.78267 56.5985 5.456C56.2905 5.12933 55.8565 4.966 55.2965 4.966C54.8858 4.966 54.5218 5.05 54.2045 5.218C53.8872 5.386 53.6398 5.638 53.4625 5.974C53.2945 6.30067 53.2105 6.716 53.2105 7.22V11H51.4605V3.524H53.1265V5.54L52.8325 4.924C53.0938 4.448 53.4718 4.084 53.9665 3.832C54.4705 3.57067 55.0492 3.44 55.7025 3.44ZM64.4462 13.814C63.7555 13.814 63.0788 13.7207 62.4162 13.534C61.7628 13.3567 61.2262 13.0953 60.8062 12.75L61.5902 11.434C61.9168 11.7047 62.3275 11.9193 62.8222 12.078C63.3262 12.246 63.8348 12.33 64.3482 12.33C65.1695 12.33 65.7715 12.1387 66.1542 11.756C66.5368 11.3827 66.7282 10.818 66.7282 10.062V8.732L66.8682 7.038L66.8122 5.344V3.524H68.4782V9.866C68.4782 11.2193 68.1328 12.2133 67.4422 12.848C66.7515 13.492 65.7528 13.814 64.4462 13.814ZM64.2222 10.664C63.5128 10.664 62.8688 10.5147 62.2902 10.216C61.7208 9.908 61.2682 9.48333 60.9322 8.942C60.6055 8.40067 60.4422 7.766 60.4422 7.038C60.4422 6.31933 60.6055 5.68933 60.9322 5.148C61.2682 4.60667 61.7208 4.18667 62.2902 3.888C62.8688 3.58933 63.5128 3.44 64.2222 3.44C64.8568 3.44 65.4262 3.566 65.9302 3.818C66.4342 4.07 66.8355 4.462 67.1342 4.994C67.4422 5.526 67.5962 6.20733 67.5962 7.038C67.5962 7.86867 67.4422 8.55467 67.1342 9.096C66.8355 9.628 66.4342 10.0247 65.9302 10.286C65.4262 10.538 64.8568 10.664 64.2222 10.664ZM64.4882 9.18C64.9268 9.18 65.3188 9.09133 65.6642 8.914C66.0095 8.72733 66.2755 8.47533 66.4622 8.158C66.6582 7.83133 66.7562 7.458 66.7562 7.038C66.7562 6.618 66.6582 6.24933 66.4622 5.932C66.2755 5.60533 66.0095 5.358 65.6642 5.19C65.3188 5.01267 64.9268 4.924 64.4882 4.924C64.0495 4.924 63.6528 5.01267 63.2982 5.19C62.9528 5.358 62.6822 5.60533 62.4862 5.932C62.2995 6.24933 62.2062 6.618 62.2062 7.038C62.2062 7.458 62.2995 7.83133 62.4862 8.158C62.6822 8.47533 62.9528 8.72733 63.2982 8.914C63.6528 9.09133 64.0495 9.18 64.4882 9.18ZM70.7789 11V3.524H72.4449V5.582L72.2489 4.98C72.4729 4.476 72.8229 4.09333 73.2989 3.832C73.7842 3.57067 74.3862 3.44 75.1049 3.44V5.106C75.0302 5.08733 74.9602 5.078 74.8949 5.078C74.8295 5.06867 74.7642 5.064 74.6989 5.064C74.0362 5.064 73.5089 5.26 73.1169 5.652C72.7249 6.03467 72.5289 6.60867 72.5289 7.374V11H70.7789ZM80.035 11.098C79.2044 11.098 78.4764 10.9347 77.851 10.608C77.235 10.272 76.7544 9.81467 76.409 9.236C76.073 8.65733 75.905 7.99933 75.905 7.262C75.905 6.51533 76.0684 5.85733 76.395 5.288C76.731 4.70933 77.1884 4.25667 77.767 3.93C78.355 3.60333 79.0224 3.44 79.769 3.44C80.497 3.44 81.1457 3.59867 81.715 3.916C82.2844 4.23333 82.7324 4.68133 83.059 5.26C83.3857 5.83867 83.549 6.52 83.549 7.304C83.549 7.37867 83.5444 7.46267 83.535 7.556C83.535 7.64933 83.5304 7.738 83.521 7.822H77.291V6.66H82.597L81.911 7.024C81.9204 6.59467 81.8317 6.21667 81.645 5.89C81.4584 5.56333 81.2017 5.30667 80.875 5.12C80.5577 4.93333 80.189 4.84 79.769 4.84C79.3397 4.84 78.9617 4.93333 78.635 5.12C78.3177 5.30667 78.0657 5.568 77.879 5.904C77.7017 6.23067 77.613 6.618 77.613 7.066V7.346C77.613 7.794 77.7157 8.19067 77.921 8.536C78.1264 8.88133 78.4157 9.14733 78.789 9.334C79.1624 9.52067 79.5917 9.614 80.077 9.614C80.497 9.614 80.875 9.54867 81.211 9.418C81.547 9.28733 81.8457 9.082 82.107 8.802L83.045 9.88C82.709 10.272 82.2844 10.5753 81.771 10.79C81.267 10.9953 80.6884 11.098 80.035 11.098ZM88.394 11.098C87.6754 11.098 87.0267 10.9393 86.448 10.622C85.8787 10.2953 85.4307 9.84733 85.104 9.278C84.7774 8.70867 84.614 8.03667 84.614 7.262C84.614 6.48733 84.7774 5.81533 85.104 5.246C85.4307 4.67667 85.8787 4.23333 86.448 3.916C87.0267 3.59867 87.6754 3.44 88.394 3.44C89.0194 3.44 89.5794 3.58 90.074 3.86C90.5687 4.13067 90.9607 4.546 91.25 5.106C91.5394 5.666 91.684 6.38467 91.684 7.262C91.684 8.13 91.544 8.84867 91.264 9.418C90.984 9.978 90.5967 10.398 90.102 10.678C89.6074 10.958 89.038 11.098 88.394 11.098ZM88.604 9.6C89.024 9.6 89.3974 9.50667 89.724 9.32C90.06 9.13333 90.326 8.86267 90.522 8.508C90.7274 8.15333 90.83 7.738 90.83 7.262C90.83 6.77667 90.7274 6.36133 90.522 6.016C90.326 5.66133 90.06 5.39067 89.724 5.204C89.3974 5.01733 89.024 4.924 88.604 4.924C88.184 4.924 87.806 5.01733 87.47 5.204C87.1434 5.39067 86.8774 5.66133 86.672 6.016C86.476 6.36133 86.378 6.77667 86.378 7.262C86.378 7.738 86.476 8.15333 86.672 8.508C86.8774 8.86267 87.1434 9.13333 87.47 9.32C87.806 9.50667 88.184 9.6 88.604 9.6ZM90.872 11V9.236L90.942 7.248L90.802 5.26V0.611999H92.538V11H90.872ZM94.8414 11V3.524H96.5914V11H94.8414ZM95.7234 2.292C95.3967 2.292 95.126 2.18933 94.9114 1.984C94.706 1.77867 94.6034 1.53133 94.6034 1.242C94.6034 0.943333 94.706 0.695999 94.9114 0.499999C95.126 0.294666 95.3967 0.192 95.7234 0.192C96.05 0.192 96.316 0.29 96.5214 0.485999C96.736 0.672666 96.8434 0.910666 96.8434 1.2C96.8434 1.508 96.7407 1.76933 96.5354 1.984C96.33 2.18933 96.0594 2.292 95.7234 2.292ZM102.402 11.098C101.572 11.098 100.844 10.9347 100.218 10.608C99.6022 10.272 99.1216 9.81467 98.7762 9.236C98.4402 8.65733 98.2722 7.99933 98.2722 7.262C98.2722 6.51533 98.4356 5.85733 98.7622 5.288C99.0982 4.70933 99.5556 4.25667 100.134 3.93C100.722 3.60333 101.39 3.44 102.136 3.44C102.864 3.44 103.513 3.59867 104.082 3.916C104.652 4.23333 105.1 4.68133 105.426 5.26C105.753 5.83867 105.916 6.52 105.916 7.304C105.916 7.37867 105.912 7.46267 105.902 7.556C105.902 7.64933 105.898 7.738 105.888 7.822H99.6582V6.66H104.964L104.278 7.024C104.288 6.59467 104.199 6.21667 104.012 5.89C103.826 5.56333 103.569 5.30667 103.242 5.12C102.925 4.93333 102.556 4.84 102.136 4.84C101.707 4.84 101.329 4.93333 101.002 5.12C100.685 5.30667 100.433 5.568 100.246 5.904C100.069 6.23067 99.9802 6.618 99.9802 7.066V7.346C99.9802 7.794 100.083 8.19067 100.288 8.536C100.494 8.88133 100.783 9.14733 101.156 9.334C101.53 9.52067 101.959 9.614 102.444 9.614C102.864 9.614 103.242 9.54867 103.578 9.418C103.914 9.28733 104.213 9.082 104.474 8.802L105.412 9.88C105.076 10.272 104.652 10.5753 104.138 10.79C103.634 10.9953 103.056 11.098 102.402 11.098ZM111.839 3.44C112.437 3.44 112.969 3.55667 113.435 3.79C113.911 4.02333 114.285 4.38267 114.555 4.868C114.826 5.344 114.961 5.96 114.961 6.716V11H113.211V6.94C113.211 6.27733 113.053 5.78267 112.735 5.456C112.427 5.12933 111.993 4.966 111.433 4.966C111.023 4.966 110.659 5.05 110.341 5.218C110.024 5.386 109.777 5.638 109.599 5.974C109.431 6.30067 109.347 6.716 109.347 7.22V11H107.597V3.524H109.263V5.54L108.969 4.924C109.231 4.448 109.609 4.084 110.103 3.832C110.607 3.57067 111.186 3.44 111.839 3.44ZM119.995 11.098C119.174 11.098 118.539 10.888 118.091 10.468C117.643 10.0387 117.419 9.40867 117.419 8.578V1.872H119.169V8.536C119.169 8.89067 119.258 9.166 119.435 9.362C119.622 9.558 119.879 9.656 120.205 9.656C120.597 9.656 120.924 9.55333 121.185 9.348L121.675 10.594C121.47 10.762 121.218 10.888 120.919 10.972C120.621 11.056 120.313 11.098 119.995 11.098ZM116.187 4.98V3.58H121.171V4.98H116.187ZM125.425 11.098C124.799 11.098 124.197 11.0187 123.619 10.86C123.049 10.692 122.597 10.4913 122.261 10.258L122.933 8.928C123.269 9.14267 123.67 9.32 124.137 9.46C124.603 9.6 125.07 9.67 125.537 9.67C126.087 9.67 126.484 9.59533 126.727 9.446C126.979 9.29667 127.105 9.096 127.105 8.844C127.105 8.63867 127.021 8.48467 126.853 8.382C126.685 8.27 126.465 8.186 126.195 8.13C125.924 8.074 125.621 8.02267 125.285 7.976C124.958 7.92933 124.627 7.86867 124.291 7.794C123.964 7.71 123.665 7.59333 123.395 7.444C123.124 7.28533 122.905 7.07533 122.737 6.814C122.569 6.55267 122.485 6.20733 122.485 5.778C122.485 5.302 122.62 4.89133 122.891 4.546C123.161 4.19133 123.539 3.92067 124.025 3.734C124.519 3.538 125.103 3.44 125.775 3.44C126.279 3.44 126.787 3.496 127.301 3.608C127.814 3.72 128.239 3.87867 128.575 4.084L127.903 5.414C127.548 5.19933 127.189 5.05467 126.825 4.98C126.47 4.896 126.115 4.854 125.761 4.854C125.229 4.854 124.832 4.93333 124.571 5.092C124.319 5.25067 124.193 5.45133 124.193 5.694C124.193 5.918 124.277 6.086 124.445 6.198C124.613 6.31 124.832 6.39867 125.103 6.464C125.373 6.52933 125.672 6.58533 125.999 6.632C126.335 6.66933 126.666 6.73 126.993 6.814C127.319 6.898 127.618 7.01467 127.889 7.164C128.169 7.304 128.393 7.50467 128.561 7.766C128.729 8.02733 128.813 8.368 128.813 8.788C128.813 9.25467 128.673 9.66067 128.393 10.006C128.122 10.3513 127.735 10.622 127.231 10.818C126.727 11.0047 126.125 11.098 125.425 11.098ZM130.88 5.764C130.563 5.764 130.292 5.65667 130.068 5.442C129.844 5.218 129.732 4.938 129.732 4.602C129.732 4.24733 129.844 3.96733 130.068 3.762C130.292 3.54733 130.563 3.44 130.88 3.44C131.197 3.44 131.468 3.54733 131.692 3.762C131.916 3.96733 132.028 4.24733 132.028 4.602C132.028 4.938 131.916 5.218 131.692 5.442C131.468 5.65667 131.197 5.764 130.88 5.764ZM130.88 11.098C130.563 11.098 130.292 10.9907 130.068 10.776C129.844 10.552 129.732 10.272 129.732 9.936C129.732 9.58133 129.844 9.30133 130.068 9.096C130.292 8.88133 130.563 8.774 130.88 8.774C131.197 8.774 131.468 8.88133 131.692 9.096C131.916 9.30133 132.028 9.58133 132.028 9.936C132.028 10.272 131.916 10.552 131.692 10.776C131.468 10.9907 131.197 11.098 130.88 11.098ZM136.583 11L141.063 1.2H142.085L146.565 11H145.473L141.357 1.802H141.777L137.661 11H136.583ZM138.347 8.382L138.655 7.542H144.353L144.661 8.382H138.347ZM147.976 11V0.611999H148.97V11H147.976ZM151.736 11V0.611999H152.73V11H151.736ZM158.533 11.07C157.908 11.07 157.362 10.9533 156.895 10.72C156.429 10.4867 156.065 10.1367 155.803 9.67C155.551 9.20333 155.425 8.62 155.425 7.92V3.65H156.419V7.808C156.419 8.592 156.611 9.18467 156.993 9.586C157.385 9.978 157.931 10.174 158.631 10.174C159.145 10.174 159.588 10.0713 159.961 9.866C160.344 9.65133 160.633 9.34333 160.829 8.942C161.035 8.54067 161.137 8.06 161.137 7.5V3.65H162.131V11H161.179V8.984L161.333 9.348C161.1 9.88933 160.736 10.314 160.241 10.622C159.756 10.9207 159.187 11.07 158.533 11.07ZM164.902 11V0.611999H165.896V11H164.902ZM171.657 11.07C170.948 11.07 170.309 10.9113 169.739 10.594C169.179 10.2673 168.736 9.824 168.409 9.264C168.083 8.69467 167.919 8.046 167.919 7.318C167.919 6.58067 168.083 5.932 168.409 5.372C168.736 4.812 169.179 4.37333 169.739 4.056C170.299 3.73867 170.939 3.58 171.657 3.58C172.385 3.58 173.029 3.73867 173.589 4.056C174.159 4.37333 174.602 4.812 174.919 5.372C175.246 5.932 175.409 6.58067 175.409 7.318C175.409 8.046 175.246 8.69467 174.919 9.264C174.602 9.824 174.159 10.2673 173.589 10.594C173.02 10.9113 172.376 11.07 171.657 11.07ZM171.657 10.188C172.189 10.188 172.661 10.0713 173.071 9.838C173.482 9.59533 173.804 9.25933 174.037 8.83C174.28 8.39133 174.401 7.88733 174.401 7.318C174.401 6.73933 174.28 6.23533 174.037 5.806C173.804 5.37667 173.482 5.04533 173.071 4.812C172.661 4.56933 172.194 4.448 171.671 4.448C171.149 4.448 170.682 4.56933 170.271 4.812C169.861 5.04533 169.534 5.37667 169.291 5.806C169.049 6.23533 168.927 6.73933 168.927 7.318C168.927 7.88733 169.049 8.39133 169.291 8.83C169.534 9.25933 169.861 9.59533 170.271 9.838C170.682 10.0713 171.144 10.188 171.657 10.188ZM179.413 11.07C178.806 11.07 178.232 10.986 177.691 10.818C177.149 10.6407 176.725 10.4213 176.417 10.16L176.865 9.376C177.163 9.6 177.546 9.796 178.013 9.964C178.479 10.1227 178.969 10.202 179.483 10.202C180.183 10.202 180.687 10.0947 180.995 9.88C181.303 9.656 181.457 9.362 181.457 8.998C181.457 8.72733 181.368 8.51733 181.191 8.368C181.023 8.20933 180.799 8.09267 180.519 8.018C180.239 7.934 179.926 7.864 179.581 7.808C179.235 7.752 178.89 7.68667 178.545 7.612C178.209 7.53733 177.901 7.43 177.621 7.29C177.341 7.14067 177.112 6.94 176.935 6.688C176.767 6.436 176.683 6.1 176.683 5.68C176.683 5.27867 176.795 4.91933 177.019 4.602C177.243 4.28467 177.569 4.03733 177.999 3.86C178.437 3.67333 178.969 3.58 179.595 3.58C180.071 3.58 180.547 3.64533 181.023 3.776C181.499 3.89733 181.891 4.06067 182.199 4.266L181.765 5.064C181.438 4.84 181.088 4.68133 180.715 4.588C180.341 4.48533 179.968 4.434 179.595 4.434C178.932 4.434 178.442 4.55067 178.125 4.784C177.817 5.008 177.663 5.29733 177.663 5.652C177.663 5.932 177.747 6.15133 177.915 6.31C178.092 6.46867 178.321 6.59467 178.601 6.688C178.89 6.772 179.203 6.842 179.539 6.898C179.884 6.954 180.225 7.024 180.561 7.108C180.906 7.18267 181.219 7.29 181.499 7.43C181.788 7.56067 182.017 7.752 182.185 8.004C182.362 8.24667 182.451 8.56867 182.451 8.97C182.451 9.39933 182.329 9.77267 182.087 10.09C181.853 10.398 181.508 10.6407 181.051 10.818C180.603 10.986 180.057 11.07 179.413 11.07ZM187.397 11.07C186.631 11.07 185.959 10.9113 185.381 10.594C184.802 10.2673 184.349 9.824 184.023 9.264C183.696 8.69467 183.533 8.046 183.533 7.318C183.533 6.59 183.687 5.946 183.995 5.386C184.312 4.826 184.741 4.38733 185.283 4.07C185.833 3.74333 186.449 3.58 187.131 3.58C187.821 3.58 188.433 3.73867 188.965 4.056C189.506 4.364 189.931 4.80267 190.239 5.372C190.547 5.932 190.701 6.58067 190.701 7.318C190.701 7.36467 190.696 7.416 190.687 7.472C190.687 7.51867 190.687 7.57 190.687 7.626H184.289V6.884H190.155L189.763 7.178C189.763 6.646 189.646 6.17467 189.413 5.764C189.189 5.344 188.881 5.01733 188.489 4.784C188.097 4.55067 187.644 4.434 187.131 4.434C186.627 4.434 186.174 4.55067 185.773 4.784C185.371 5.01733 185.059 5.344 184.835 5.764C184.611 6.184 184.499 6.66467 184.499 7.206V7.36C184.499 7.92 184.62 8.41467 184.863 8.844C185.115 9.264 185.46 9.59533 185.899 9.838C186.347 10.0713 186.855 10.188 187.425 10.188C187.873 10.188 188.288 10.1087 188.671 9.95C189.063 9.79133 189.399 9.54867 189.679 9.222L190.239 9.866C189.912 10.258 189.501 10.5567 189.007 10.762C188.521 10.9673 187.985 11.07 187.397 11.07ZM192.122 13.044L192.738 10.454L192.85 11.056C192.635 11.056 192.453 10.986 192.304 10.846C192.164 10.706 192.094 10.524 192.094 10.3C192.094 10.076 192.164 9.894 192.304 9.754C192.453 9.614 192.631 9.544 192.836 9.544C193.051 9.544 193.223 9.61867 193.354 9.768C193.494 9.91733 193.564 10.0947 193.564 10.3C193.564 10.3747 193.559 10.4493 193.55 10.524C193.541 10.5987 193.522 10.6827 193.494 10.776C193.466 10.8693 193.429 10.9813 193.382 11.112L192.794 13.044H192.122ZM199.565 11V1.2H200.419L207.181 9.712H206.733V1.2H207.755V11H206.901L200.153 2.488H200.601V11H199.565ZM215.349 11V9.376L215.307 9.11V6.394C215.307 5.76867 215.13 5.288 214.775 4.952C214.43 4.616 213.912 4.448 213.221 4.448C212.745 4.448 212.293 4.52733 211.863 4.686C211.434 4.84467 211.07 5.05467 210.771 5.316L210.323 4.574C210.697 4.25667 211.145 4.014 211.667 3.846C212.19 3.66867 212.741 3.58 213.319 3.58C214.271 3.58 215.004 3.818 215.517 4.294C216.04 4.76067 216.301 5.47467 216.301 6.436V11H215.349ZM212.815 11.07C212.265 11.07 211.784 10.9813 211.373 10.804C210.972 10.6173 210.664 10.3653 210.449 10.048C210.235 9.72133 210.127 9.348 210.127 8.928C210.127 8.54533 210.216 8.2 210.393 7.892C210.58 7.57467 210.879 7.32267 211.289 7.136C211.709 6.94 212.269 6.842 212.969 6.842H215.503V7.584H212.997C212.288 7.584 211.793 7.71 211.513 7.962C211.243 8.214 211.107 8.52667 211.107 8.9C211.107 9.32 211.271 9.656 211.597 9.908C211.924 10.16 212.381 10.286 212.969 10.286C213.529 10.286 214.01 10.16 214.411 9.908C214.822 9.64667 215.121 9.27333 215.307 8.788L215.531 9.474C215.345 9.95933 215.018 10.3467 214.551 10.636C214.094 10.9253 213.515 11.07 212.815 11.07ZM221.325 11.07C220.635 11.07 220.103 10.8833 219.729 10.51C219.356 10.1367 219.169 9.60933 219.169 8.928V2.026H220.163V8.872C220.163 9.30133 220.271 9.63267 220.485 9.866C220.709 10.0993 221.027 10.216 221.437 10.216C221.876 10.216 222.24 10.09 222.529 9.838L222.879 10.552C222.683 10.7293 222.445 10.86 222.165 10.944C221.895 11.028 221.615 11.07 221.325 11.07ZM217.853 4.476V3.65H222.403V4.476H217.853ZM227.727 11.07C227.101 11.07 226.555 10.9533 226.089 10.72C225.622 10.4867 225.258 10.1367 224.997 9.67C224.745 9.20333 224.619 8.62 224.619 7.92V3.65H225.613V7.808C225.613 8.592 225.804 9.18467 226.187 9.586C226.579 9.978 227.125 10.174 227.825 10.174C228.338 10.174 228.781 10.0713 229.155 9.866C229.537 9.65133 229.827 9.34333 230.023 8.942C230.228 8.54067 230.331 8.06 230.331 7.5V3.65H231.325V11H230.373V8.984L230.527 9.348C230.293 9.88933 229.929 10.314 229.435 10.622C228.949 10.9207 228.38 11.07 227.727 11.07ZM234.095 11V3.65H235.047V5.652L234.949 5.302C235.154 4.742 235.5 4.31733 235.985 4.028C236.47 3.72933 237.072 3.58 237.791 3.58V4.546C237.754 4.546 237.716 4.546 237.679 4.546C237.642 4.53667 237.604 4.532 237.567 4.532C236.792 4.532 236.186 4.77 235.747 5.246C235.308 5.71267 235.089 6.38 235.089 7.248V11H234.095ZM243.664 11V9.376L243.622 9.11V6.394C243.622 5.76867 243.445 5.288 243.09 4.952C242.745 4.616 242.227 4.448 241.536 4.448C241.06 4.448 240.607 4.52733 240.178 4.686C239.749 4.84467 239.385 5.05467 239.086 5.316L238.638 4.574C239.011 4.25667 239.459 4.014 239.982 3.846C240.505 3.66867 241.055 3.58 241.634 3.58C242.586 3.58 243.319 3.818 243.832 4.294C244.355 4.76067 244.616 5.47467 244.616 6.436V11H243.664ZM241.13 11.07C240.579 11.07 240.099 10.9813 239.688 10.804C239.287 10.6173 238.979 10.3653 238.764 10.048C238.549 9.72133 238.442 9.348 238.442 8.928C238.442 8.54533 238.531 8.2 238.708 7.892C238.895 7.57467 239.193 7.32267 239.604 7.136C240.024 6.94 240.584 6.842 241.284 6.842H243.818V7.584H241.312C240.603 7.584 240.108 7.71 239.828 7.962C239.557 8.214 239.422 8.52667 239.422 8.9C239.422 9.32 239.585 9.656 239.912 9.908C240.239 10.16 240.696 10.286 241.284 10.286C241.844 10.286 242.325 10.16 242.726 9.908C243.137 9.64667 243.435 9.27333 243.622 8.788L243.846 9.474C243.659 9.95933 243.333 10.3467 242.866 10.636C242.409 10.9253 241.83 11.07 241.13 11.07ZM247.316 11V0.611999H248.31V11H247.316ZM254.95 11V1.2H259.178C260.27 1.2 261.114 1.41933 261.712 1.858C262.318 2.29667 262.622 2.91733 262.622 3.72C262.622 4.252 262.496 4.7 262.244 5.064C262.001 5.428 261.665 5.70333 261.236 5.89C260.816 6.07667 260.354 6.17 259.85 6.17L260.088 5.834C260.713 5.834 261.25 5.932 261.698 6.128C262.155 6.31467 262.51 6.59933 262.762 6.982C263.014 7.35533 263.14 7.822 263.14 8.382C263.14 9.21267 262.832 9.85667 262.216 10.314C261.609 10.7713 260.69 11 259.458 11H254.95ZM255.986 10.146H259.444C260.302 10.146 260.96 10.0013 261.418 9.712C261.875 9.41333 262.104 8.942 262.104 8.298C262.104 7.66333 261.875 7.20133 261.418 6.912C260.96 6.61333 260.302 6.464 259.444 6.464H255.874V5.61H259.108C259.892 5.61 260.498 5.46067 260.928 5.162C261.366 4.86333 261.586 4.42 261.586 3.832C261.586 3.23467 261.366 2.79133 260.928 2.502C260.498 2.20333 259.892 2.054 259.108 2.054H255.986V10.146ZM265.294 11V0.611999H266.288V11H265.294ZM272.05 11.07C271.341 11.07 270.701 10.9113 270.132 10.594C269.572 10.2673 269.129 9.824 268.802 9.264C268.475 8.69467 268.312 8.046 268.312 7.318C268.312 6.58067 268.475 5.932 268.802 5.372C269.129 4.812 269.572 4.37333 270.132 4.056C270.692 3.73867 271.331 3.58 272.05 3.58C272.778 3.58 273.422 3.73867 273.982 4.056C274.551 4.37333 274.995 4.812 275.312 5.372C275.639 5.932 275.802 6.58067 275.802 7.318C275.802 8.046 275.639 8.69467 275.312 9.264C274.995 9.824 274.551 10.2673 273.982 10.594C273.413 10.9113 272.769 11.07 272.05 11.07ZM272.05 10.188C272.582 10.188 273.053 10.0713 273.464 9.838C273.875 9.59533 274.197 9.25933 274.43 8.83C274.673 8.39133 274.794 7.88733 274.794 7.318C274.794 6.73933 274.673 6.23533 274.43 5.806C274.197 5.37667 273.875 5.04533 273.464 4.812C273.053 4.56933 272.587 4.448 272.064 4.448C271.541 4.448 271.075 4.56933 270.664 4.812C270.253 5.04533 269.927 5.37667 269.684 5.806C269.441 6.23533 269.32 6.73933 269.32 7.318C269.32 7.88733 269.441 8.39133 269.684 8.83C269.927 9.25933 270.253 9.59533 270.664 9.838C271.075 10.0713 271.537 10.188 272.05 10.188ZM280.827 11.07C280.118 11.07 279.479 10.9113 278.909 10.594C278.349 10.2673 277.906 9.824 277.579 9.264C277.253 8.69467 277.089 8.046 277.089 7.318C277.089 6.58067 277.253 5.932 277.579 5.372C277.906 4.812 278.349 4.37333 278.909 4.056C279.469 3.73867 280.109 3.58 280.827 3.58C281.555 3.58 282.199 3.73867 282.759 4.056C283.329 4.37333 283.772 4.812 284.089 5.372C284.416 5.932 284.579 6.58067 284.579 7.318C284.579 8.046 284.416 8.69467 284.089 9.264C283.772 9.824 283.329 10.2673 282.759 10.594C282.19 10.9113 281.546 11.07 280.827 11.07ZM280.827 10.188C281.359 10.188 281.831 10.0713 282.241 9.838C282.652 9.59533 282.974 9.25933 283.207 8.83C283.45 8.39133 283.571 7.88733 283.571 7.318C283.571 6.73933 283.45 6.23533 283.207 5.806C282.974 5.37667 282.652 5.04533 282.241 4.812C281.831 4.56933 281.364 4.448 280.841 4.448C280.319 4.448 279.852 4.56933 279.441 4.812C279.031 5.04533 278.704 5.37667 278.461 5.806C278.219 6.23533 278.097 6.73933 278.097 7.318C278.097 7.88733 278.219 8.39133 278.461 8.83C278.704 9.25933 279.031 9.59533 279.441 9.838C279.852 10.0713 280.314 10.188 280.827 10.188ZM289.535 11.07C288.835 11.07 288.205 10.9113 287.645 10.594C287.094 10.2767 286.66 9.838 286.343 9.278C286.025 8.70867 285.867 8.05533 285.867 7.318C285.867 6.57133 286.025 5.918 286.343 5.358C286.66 4.798 287.094 4.364 287.645 4.056C288.205 3.73867 288.835 3.58 289.535 3.58C290.179 3.58 290.753 3.72467 291.257 4.014C291.77 4.30333 292.176 4.728 292.475 5.288C292.783 5.83867 292.937 6.51533 292.937 7.318C292.937 8.11133 292.787 8.788 292.489 9.348C292.19 9.908 291.784 10.3373 291.271 10.636C290.767 10.9253 290.188 11.07 289.535 11.07ZM289.605 10.188C290.127 10.188 290.594 10.0713 291.005 9.838C291.425 9.59533 291.751 9.25933 291.985 8.83C292.227 8.39133 292.349 7.88733 292.349 7.318C292.349 6.73933 292.227 6.23533 291.985 5.806C291.751 5.37667 291.425 5.04533 291.005 4.812C290.594 4.56933 290.127 4.448 289.605 4.448C289.091 4.448 288.629 4.56933 288.219 4.812C287.808 5.04533 287.481 5.37667 287.239 5.806C286.996 6.23533 286.875 6.73933 286.875 7.318C286.875 7.88733 286.996 8.39133 287.239 8.83C287.481 9.25933 287.808 9.59533 288.219 9.838C288.629 10.0713 289.091 10.188 289.605 10.188ZM292.377 11V8.788L292.475 7.304L292.335 5.82V0.611999H293.329V11H292.377ZM304.255 11.084C303.518 11.084 302.832 10.9627 302.197 10.72C301.572 10.468 301.026 10.118 300.559 9.67C300.102 9.21267 299.742 8.68533 299.481 8.088C299.229 7.48133 299.103 6.81867 299.103 6.1C299.103 5.38133 299.229 4.72333 299.481 4.126C299.742 3.51933 300.102 2.992 300.559 2.544C301.026 2.08667 301.572 1.73667 302.197 1.494C302.822 1.242 303.508 1.116 304.255 1.116C304.992 1.116 305.674 1.242 306.299 1.494C306.924 1.73667 307.466 2.082 307.923 2.53C308.39 2.978 308.749 3.50533 309.001 4.112C309.262 4.71867 309.393 5.38133 309.393 6.1C309.393 6.81867 309.262 7.48133 309.001 8.088C308.749 8.69467 308.39 9.222 307.923 9.67C307.466 10.118 306.924 10.468 306.299 10.72C305.674 10.9627 304.992 11.084 304.255 11.084ZM304.255 10.16C304.843 10.16 305.384 10.062 305.879 9.866C306.383 9.66067 306.817 9.376 307.181 9.012C307.554 8.63867 307.844 8.20933 308.049 7.724C308.254 7.22933 308.357 6.688 308.357 6.1C308.357 5.512 308.254 4.97533 308.049 4.49C307.844 3.99533 307.554 3.566 307.181 3.202C306.817 2.82867 306.383 2.544 305.879 2.348C305.384 2.14267 304.843 2.04 304.255 2.04C303.667 2.04 303.121 2.14267 302.617 2.348C302.113 2.544 301.674 2.82867 301.301 3.202C300.937 3.566 300.648 3.99533 300.433 4.49C300.228 4.97533 300.125 5.512 300.125 6.1C300.125 6.67867 300.228 7.21533 300.433 7.71C300.648 8.20467 300.937 8.63867 301.301 9.012C301.674 9.376 302.113 9.66067 302.617 9.866C303.121 10.062 303.667 10.16 304.255 10.16ZM311.505 11V3.65H312.457V5.652L312.359 5.302C312.564 4.742 312.91 4.31733 313.395 4.028C313.88 3.72933 314.482 3.58 315.201 3.58V4.546C315.164 4.546 315.126 4.546 315.089 4.546C315.052 4.53667 315.014 4.532 314.977 4.532C314.202 4.532 313.596 4.77 313.157 5.246C312.718 5.71267 312.499 6.38 312.499 7.248V11H311.505ZM321.074 11V9.376L321.032 9.11V6.394C321.032 5.76867 320.855 5.288 320.5 4.952C320.155 4.616 319.637 4.448 318.946 4.448C318.47 4.448 318.017 4.52733 317.588 4.686C317.159 4.84467 316.795 5.05467 316.496 5.316L316.048 4.574C316.421 4.25667 316.869 4.014 317.392 3.846C317.915 3.66867 318.465 3.58 319.044 3.58C319.996 3.58 320.729 3.818 321.242 4.294C321.765 4.76067 322.026 5.47467 322.026 6.436V11H321.074ZM318.54 11.07C317.989 11.07 317.509 10.9813 317.098 10.804C316.697 10.6173 316.389 10.3653 316.174 10.048C315.959 9.72133 315.852 9.348 315.852 8.928C315.852 8.54533 315.941 8.2 316.118 7.892C316.305 7.57467 316.603 7.32267 317.014 7.136C317.434 6.94 317.994 6.842 318.694 6.842H321.228V7.584H318.722C318.013 7.584 317.518 7.71 317.238 7.962C316.967 8.214 316.832 8.52667 316.832 8.9C316.832 9.32 316.995 9.656 317.322 9.908C317.649 10.16 318.106 10.286 318.694 10.286C319.254 10.286 319.735 10.16 320.136 9.908C320.547 9.64667 320.845 9.27333 321.032 8.788L321.256 9.474C321.069 9.95933 320.743 10.3467 320.276 10.636C319.819 10.9253 319.24 11.07 318.54 11.07ZM328.478 3.58C329.075 3.58 329.598 3.69667 330.046 3.93C330.503 4.154 330.858 4.49933 331.11 4.966C331.371 5.43267 331.502 6.02067 331.502 6.73V11H330.508V6.828C330.508 6.05333 330.312 5.47 329.92 5.078C329.537 4.67667 328.996 4.476 328.296 4.476C327.773 4.476 327.316 4.58333 326.924 4.798C326.541 5.00333 326.243 5.30667 326.028 5.708C325.823 6.1 325.72 6.576 325.72 7.136V11H324.726V3.65H325.678V5.666L325.524 5.288C325.757 4.756 326.131 4.34067 326.644 4.042C327.157 3.734 327.769 3.58 328.478 3.58ZM337.323 13.786C336.651 13.786 336.007 13.688 335.391 13.492C334.775 13.296 334.275 13.016 333.893 12.652L334.397 11.896C334.742 12.204 335.167 12.4467 335.671 12.624C336.184 12.8107 336.725 12.904 337.295 12.904C338.228 12.904 338.914 12.6847 339.353 12.246C339.791 11.8167 340.011 11.1447 340.011 10.23V8.396L340.151 7.136L340.053 5.876V3.65H341.005V10.104C341.005 11.3733 340.692 12.302 340.067 12.89C339.451 13.4873 338.536 13.786 337.323 13.786ZM337.141 10.72C336.441 10.72 335.811 10.5707 335.251 10.272C334.691 9.964 334.247 9.53933 333.921 8.998C333.603 8.45667 333.445 7.836 333.445 7.136C333.445 6.436 333.603 5.82 333.921 5.288C334.247 4.74667 334.691 4.32667 335.251 4.028C335.811 3.72933 336.441 3.58 337.141 3.58C337.794 3.58 338.382 3.71533 338.905 3.986C339.427 4.25667 339.843 4.658 340.151 5.19C340.459 5.722 340.613 6.37067 340.613 7.136C340.613 7.90133 340.459 8.55 340.151 9.082C339.843 9.614 339.427 10.02 338.905 10.3C338.382 10.58 337.794 10.72 337.141 10.72ZM337.239 9.838C337.78 9.838 338.261 9.726 338.681 9.502C339.101 9.26867 339.432 8.95133 339.675 8.55C339.917 8.13933 340.039 7.668 340.039 7.136C340.039 6.604 339.917 6.13733 339.675 5.736C339.432 5.33467 339.101 5.022 338.681 4.798C338.261 4.56467 337.78 4.448 337.239 4.448C336.707 4.448 336.226 4.56467 335.797 4.798C335.377 5.022 335.045 5.33467 334.803 5.736C334.569 6.13733 334.453 6.604 334.453 7.136C334.453 7.668 334.569 8.13933 334.803 8.55C335.045 8.95133 335.377 9.26867 335.797 9.502C336.226 9.726 336.707 9.838 337.239 9.838ZM346.893 11.07C346.127 11.07 345.455 10.9113 344.877 10.594C344.298 10.2673 343.845 9.824 343.519 9.264C343.192 8.69467 343.029 8.046 343.029 7.318C343.029 6.59 343.183 5.946 343.491 5.386C343.808 4.826 344.237 4.38733 344.779 4.07C345.329 3.74333 345.945 3.58 346.627 3.58C347.317 3.58 347.929 3.73867 348.461 4.056C349.002 4.364 349.427 4.80267 349.735 5.372C350.043 5.932 350.197 6.58067 350.197 7.318C350.197 7.36467 350.192 7.416 350.183 7.472C350.183 7.51867 350.183 7.57 350.183 7.626H343.785V6.884H349.651L349.259 7.178C349.259 6.646 349.142 6.17467 348.909 5.764C348.685 5.344 348.377 5.01733 347.985 4.784C347.593 4.55067 347.14 4.434 346.627 4.434C346.123 4.434 345.67 4.55067 345.269 4.784C344.867 5.01733 344.555 5.344 344.331 5.764C344.107 6.184 343.995 6.66467 343.995 7.206V7.36C343.995 7.92 344.116 8.41467 344.359 8.844C344.611 9.264 344.956 9.59533 345.395 9.838C345.843 10.0713 346.351 10.188 346.921 10.188C347.369 10.188 347.784 10.1087 348.167 9.95C348.559 9.79133 348.895 9.54867 349.175 9.222L349.735 9.866C349.408 10.258 348.997 10.5567 348.503 10.762C348.017 10.9673 347.481 11.07 346.893 11.07ZM357.018 5.946H362.198V6.842H357.018V5.946ZM357.13 11H356.094V1.2H362.814V2.096H357.13V11ZM364.743 11V0.611999H365.737V11H364.743ZM373.109 11V9.376L373.067 9.11V6.394C373.067 5.76867 372.89 5.288 372.535 4.952C372.19 4.616 371.672 4.448 370.981 4.448C370.505 4.448 370.053 4.52733 369.623 4.686C369.194 4.84467 368.83 5.05467 368.531 5.316L368.083 4.574C368.457 4.25667 368.905 4.014 369.427 3.846C369.95 3.66867 370.501 3.58 371.079 3.58C372.031 3.58 372.764 3.818 373.277 4.294C373.8 4.76067 374.061 5.47467 374.061 6.436V11H373.109ZM370.575 11.07C370.025 11.07 369.544 10.9813 369.133 10.804C368.732 10.6173 368.424 10.3653 368.209 10.048C367.995 9.72133 367.887 9.348 367.887 8.928C367.887 8.54533 367.976 8.2 368.153 7.892C368.34 7.57467 368.639 7.32267 369.049 7.136C369.469 6.94 370.029 6.842 370.729 6.842H373.263V7.584H370.757C370.048 7.584 369.553 7.71 369.273 7.962C369.003 8.214 368.867 8.52667 368.867 8.9C368.867 9.32 369.031 9.656 369.357 9.908C369.684 10.16 370.141 10.286 370.729 10.286C371.289 10.286 371.77 10.16 372.171 9.908C372.582 9.64667 372.881 9.27333 373.067 8.788L373.291 9.474C373.105 9.95933 372.778 10.3467 372.311 10.636C371.854 10.9253 371.275 11.07 370.575 11.07ZM378.514 11L375.252 3.65H376.288L379.284 10.468H378.794L381.832 3.65H382.812L379.536 11H378.514ZM387.003 11.07C386.294 11.07 385.654 10.9113 385.085 10.594C384.525 10.2673 384.082 9.824 383.755 9.264C383.428 8.69467 383.265 8.046 383.265 7.318C383.265 6.58067 383.428 5.932 383.755 5.372C384.082 4.812 384.525 4.37333 385.085 4.056C385.645 3.73867 386.284 3.58 387.003 3.58C387.731 3.58 388.375 3.73867 388.935 4.056C389.504 4.37333 389.948 4.812 390.265 5.372C390.592 5.932 390.755 6.58067 390.755 7.318C390.755 8.046 390.592 8.69467 390.265 9.264C389.948 9.824 389.504 10.2673 388.935 10.594C388.366 10.9113 387.722 11.07 387.003 11.07ZM387.003 10.188C387.535 10.188 388.006 10.0713 388.417 9.838C388.828 9.59533 389.15 9.25933 389.383 8.83C389.626 8.39133 389.747 7.88733 389.747 7.318C389.747 6.73933 389.626 6.23533 389.383 5.806C389.15 5.37667 388.828 5.04533 388.417 4.812C388.006 4.56933 387.54 4.448 387.017 4.448C386.494 4.448 386.028 4.56933 385.617 4.812C385.206 5.04533 384.88 5.37667 384.637 5.806C384.394 6.23533 384.273 6.73933 384.273 7.318C384.273 7.88733 384.394 8.39133 384.637 8.83C384.88 9.25933 385.206 9.59533 385.617 9.838C386.028 10.0713 386.49 10.188 387.003 10.188ZM392.784 11V3.65H393.736V5.652L393.638 5.302C393.844 4.742 394.189 4.31733 394.674 4.028C395.16 3.72933 395.762 3.58 396.48 3.58V4.546C396.443 4.546 396.406 4.546 396.368 4.546C396.331 4.53667 396.294 4.532 396.256 4.532C395.482 4.532 394.875 4.77 394.436 5.246C393.998 5.71267 393.778 6.38 393.778 7.248V11H392.784ZM403.566 11L400.794 3.65H401.746L404.266 10.468H403.832L406.422 3.65H407.276L409.838 10.468H409.404L411.966 3.65H412.876L410.09 11H409.152L406.688 4.588H406.982L404.504 11H403.566ZM414.372 11V3.65H415.366V11H414.372ZM414.876 2.026C414.671 2.026 414.498 1.956 414.358 1.816C414.218 1.676 414.148 1.508 414.148 1.312C414.148 1.116 414.218 0.952666 414.358 0.821999C414.498 0.681999 414.671 0.611999 414.876 0.611999C415.082 0.611999 415.254 0.677333 415.394 0.807999C415.534 0.938666 415.604 1.102 415.604 1.298C415.604 1.50333 415.534 1.676 415.394 1.816C415.264 1.956 415.091 2.026 414.876 2.026ZM420.456 11.07C419.765 11.07 419.233 10.8833 418.86 10.51C418.487 10.1367 418.3 9.60933 418.3 8.928V2.026H419.294V8.872C419.294 9.30133 419.401 9.63267 419.616 9.866C419.84 10.0993 420.157 10.216 420.568 10.216C421.007 10.216 421.371 10.09 421.66 9.838L422.01 10.552C421.814 10.7293 421.576 10.86 421.296 10.944C421.025 11.028 420.745 11.07 420.456 11.07ZM416.984 4.476V3.65H421.534V4.476H416.984ZM427.572 3.58C428.169 3.58 428.692 3.69667 429.14 3.93C429.597 4.154 429.952 4.49933 430.204 4.966C430.465 5.43267 430.596 6.02067 430.596 6.73V11H429.602V6.828C429.602 6.05333 429.406 5.47 429.014 5.078C428.631 4.67667 428.09 4.476 427.39 4.476C426.867 4.476 426.41 4.58333 426.018 4.798C425.635 5.00333 425.336 5.30667 425.122 5.708C424.916 6.1 424.814 6.576 424.814 7.136V11H423.82V0.611999H424.814V5.666L424.618 5.288C424.851 4.756 425.224 4.34067 425.738 4.042C426.251 3.734 426.862 3.58 427.572 3.58ZM4.382 26.07C3.67267 26.07 3.03333 25.9113 2.464 25.594C1.904 25.2673 1.46067 24.824 1.134 24.264C0.807333 23.6947 0.644 23.046 0.644 22.318C0.644 21.5807 0.807333 20.932 1.134 20.372C1.46067 19.812 1.904 19.3733 2.464 19.056C3.024 18.7387 3.66333 18.58 4.382 18.58C5.11 18.58 5.754 18.7387 6.314 19.056C6.88333 19.3733 7.32667 19.812 7.644 20.372C7.97067 20.932 8.134 21.5807 8.134 22.318C8.134 23.046 7.97067 23.6947 7.644 24.264C7.32667 24.824 6.88333 25.2673 6.314 25.594C5.74467 25.9113 5.10067 26.07 4.382 26.07ZM4.382 25.188C4.914 25.188 5.38533 25.0713 5.796 24.838C6.20667 24.5953 6.52867 24.2593 6.762 23.83C7.00467 23.3913 7.126 22.8873 7.126 22.318C7.126 21.7393 7.00467 21.2353 6.762 20.806C6.52867 20.3767 6.20667 20.0453 5.796 19.812C5.38533 19.5693 4.91867 19.448 4.396 19.448C3.87333 19.448 3.40667 19.5693 2.996 19.812C2.58533 20.0453 2.25867 20.3767 2.016 20.806C1.77333 21.2353 1.652 21.7393 1.652 22.318C1.652 22.8873 1.77333 23.3913 2.016 23.83C2.25867 24.2593 2.58533 24.5953 2.996 24.838C3.40667 25.0713 3.86867 25.188 4.382 25.188ZM12.4873 26.07C11.7967 26.07 11.2647 25.8833 10.8913 25.51C10.518 25.1367 10.3313 24.6093 10.3313 23.928V17.026H11.3253V23.872C11.3253 24.3013 11.4327 24.6327 11.6473 24.866C11.8713 25.0993 12.1887 25.216 12.5993 25.216C13.038 25.216 13.402 25.09 13.6913 24.838L14.0413 25.552C13.8453 25.7293 13.6073 25.86 13.3273 25.944C13.0567 26.028 12.7767 26.07 12.4873 26.07ZM9.01534 19.476V18.65H13.5653V19.476H9.01534ZM19.6028 18.58C20.2002 18.58 20.7228 18.6967 21.1708 18.93C21.6282 19.154 21.9828 19.4993 22.2348 19.966C22.4962 20.4327 22.6268 21.0207 22.6268 21.73V26H21.6328V21.828C21.6328 21.0533 21.4368 20.47 21.0448 20.078C20.6622 19.6767 20.1208 19.476 19.4208 19.476C18.8982 19.476 18.4408 19.5833 18.0488 19.798C17.6662 20.0033 17.3675 20.3067 17.1528 20.708C16.9475 21.1 16.8448 21.576 16.8448 22.136V26H15.8508V15.612H16.8448V20.666L16.6488 20.288C16.8822 19.756 17.2555 19.3407 17.7688 19.042C18.2822 18.734 18.8935 18.58 19.6028 18.58ZM28.4338 26.07C27.6684 26.07 26.9964 25.9113 26.4178 25.594C25.8391 25.2673 25.3864 24.824 25.0598 24.264C24.7331 23.6947 24.5698 23.046 24.5698 22.318C24.5698 21.59 24.7238 20.946 25.0318 20.386C25.3491 19.826 25.7784 19.3873 26.3198 19.07C26.8704 18.7433 27.4864 18.58 28.1678 18.58C28.8584 18.58 29.4698 18.7387 30.0018 19.056C30.5431 19.364 30.9678 19.8027 31.2758 20.372C31.5838 20.932 31.7378 21.5807 31.7378 22.318C31.7378 22.3647 31.7331 22.416 31.7238 22.472C31.7238 22.5187 31.7238 22.57 31.7238 22.626H25.3258V21.884H31.1918L30.7998 22.178C30.7998 21.646 30.6831 21.1747 30.4498 20.764C30.2258 20.344 29.9178 20.0173 29.5258 19.784C29.1338 19.5507 28.6811 19.434 28.1678 19.434C27.6638 19.434 27.2111 19.5507 26.8098 19.784C26.4084 20.0173 26.0958 20.344 25.8718 20.764C25.6478 21.184 25.5358 21.6647 25.5358 22.206V22.36C25.5358 22.92 25.6571 23.4147 25.8998 23.844C26.1518 24.264 26.4971 24.5953 26.9358 24.838C27.3838 25.0713 27.8924 25.188 28.4618 25.188C28.9098 25.188 29.3251 25.1087 29.7078 24.95C30.0998 24.7913 30.4358 24.5487 30.7158 24.222L31.2758 24.866C30.9491 25.258 30.5384 25.5567 30.0438 25.762C29.5584 25.9673 29.0218 26.07 28.4338 26.07ZM33.761 26V18.65H34.713V20.652L34.615 20.302C34.8203 19.742 35.1657 19.3173 35.651 19.028C36.1363 18.7293 36.7383 18.58 37.457 18.58V19.546C37.4197 19.546 37.3823 19.546 37.345 19.546C37.3077 19.5367 37.2703 19.532 37.233 19.532C36.4583 19.532 35.8517 19.77 35.413 20.246C34.9743 20.7127 34.755 21.38 34.755 22.248V26H33.761ZM43.2542 26V16.2H44.1082L50.8702 24.712H50.4222V16.2H51.4442V26H50.5902L43.8422 17.488H44.2902V26H43.2542ZM59.0389 26V24.376L58.9969 24.11V21.394C58.9969 20.7687 58.8195 20.288 58.4649 19.952C58.1195 19.616 57.6015 19.448 56.9109 19.448C56.4349 19.448 55.9822 19.5273 55.5529 19.686C55.1235 19.8447 54.7595 20.0547 54.4609 20.316L54.0129 19.574C54.3862 19.2567 54.8342 19.014 55.3569 18.846C55.8795 18.6687 56.4302 18.58 57.0089 18.58C57.9609 18.58 58.6935 18.818 59.2069 19.294C59.7295 19.7607 59.9909 20.4747 59.9909 21.436V26H59.0389ZM56.5049 26.07C55.9542 26.07 55.4735 25.9813 55.0629 25.804C54.6615 25.6173 54.3535 25.3653 54.1389 25.048C53.9242 24.7213 53.8169 24.348 53.8169 23.928C53.8169 23.5453 53.9055 23.2 54.0829 22.892C54.2695 22.5747 54.5682 22.3227 54.9789 22.136C55.3989 21.94 55.9589 21.842 56.6589 21.842H59.1929V22.584H56.6869C55.9775 22.584 55.4829 22.71 55.2029 22.962C54.9322 23.214 54.7969 23.5267 54.7969 23.9C54.7969 24.32 54.9602 24.656 55.2869 24.908C55.6135 25.16 56.0709 25.286 56.6589 25.286C57.2189 25.286 57.6995 25.16 58.1009 24.908C58.5115 24.6467 58.8102 24.2733 58.9969 23.788L59.2209 24.474C59.0342 24.9593 58.7075 25.3467 58.2409 25.636C57.7835 25.9253 57.2049 26.07 56.5049 26.07ZM65.0147 26.07C64.324 26.07 63.792 25.8833 63.4187 25.51C63.0454 25.1367 62.8587 24.6093 62.8587 23.928V17.026H63.8527V23.872C63.8527 24.3013 63.96 24.6327 64.1747 24.866C64.3987 25.0993 64.716 25.216 65.1267 25.216C65.5654 25.216 65.9294 25.09 66.2187 24.838L66.5687 25.552C66.3727 25.7293 66.1347 25.86 65.8547 25.944C65.584 26.028 65.304 26.07 65.0147 26.07ZM61.5427 19.476V18.65H66.0927V19.476H61.5427ZM71.4162 26.07C70.7909 26.07 70.2449 25.9533 69.7782 25.72C69.3115 25.4867 68.9475 25.1367 68.6862 24.67C68.4342 24.2033 68.3082 23.62 68.3082 22.92V18.65H69.3022V22.808C69.3022 23.592 69.4935 24.1847 69.8762 24.586C70.2682 24.978 70.8142 25.174 71.5142 25.174C72.0275 25.174 72.4709 25.0713 72.8442 24.866C73.2269 24.6513 73.5162 24.3433 73.7122 23.942C73.9175 23.5407 74.0202 23.06 74.0202 22.5V18.65H75.0142V26H74.0622V23.984L74.2162 24.348C73.9829 24.8893 73.6189 25.314 73.1242 25.622C72.6389 25.9207 72.0695 26.07 71.4162 26.07ZM77.7844 26V18.65H78.7364V20.652L78.6384 20.302C78.8438 19.742 79.1891 19.3173 79.6744 19.028C80.1598 18.7293 80.7618 18.58 81.4804 18.58V19.546C81.4431 19.546 81.4058 19.546 81.3684 19.546C81.3311 19.5367 81.2938 19.532 81.2564 19.532C80.4818 19.532 79.8751 19.77 79.4364 20.246C78.9978 20.7127 78.7784 21.38 78.7784 22.248V26H77.7844ZM87.3533 26V24.376L87.3113 24.11V21.394C87.3113 20.7687 87.134 20.288 86.7793 19.952C86.434 19.616 85.916 19.448 85.2253 19.448C84.7493 19.448 84.2967 19.5273 83.8673 19.686C83.438 19.8447 83.074 20.0547 82.7753 20.316L82.3273 19.574C82.7007 19.2567 83.1487 19.014 83.6713 18.846C84.194 18.6687 84.7447 18.58 85.3233 18.58C86.2753 18.58 87.008 18.818 87.5213 19.294C88.044 19.7607 88.3053 20.4747 88.3053 21.436V26H87.3533ZM84.8193 26.07C84.2687 26.07 83.788 25.9813 83.3773 25.804C82.976 25.6173 82.668 25.3653 82.4533 25.048C82.2387 24.7213 82.1313 24.348 82.1313 23.928C82.1313 23.5453 82.22 23.2 82.3973 22.892C82.584 22.5747 82.8827 22.3227 83.2933 22.136C83.7133 21.94 84.2733 21.842 84.9733 21.842H87.5073V22.584H85.0013C84.292 22.584 83.7973 22.71 83.5173 22.962C83.2467 23.214 83.1113 23.5267 83.1113 23.9C83.1113 24.32 83.2747 24.656 83.6013 24.908C83.928 25.16 84.3853 25.286 84.9733 25.286C85.5333 25.286 86.014 25.16 86.4153 24.908C86.826 24.6467 87.1247 24.2733 87.3113 23.788L87.5353 24.474C87.3487 24.9593 87.022 25.3467 86.5553 25.636C86.098 25.9253 85.5193 26.07 84.8193 26.07ZM91.0051 26V15.612H91.9991V26H91.0051ZM99.563 20.946H104.743V21.842H99.563V20.946ZM99.675 26H98.639V16.2H105.359V17.096H99.675V26ZM107.288 26V15.612H108.282V26H107.288ZM115.654 26V24.376L115.612 24.11V21.394C115.612 20.7687 115.435 20.288 115.08 19.952C114.735 19.616 114.217 19.448 113.526 19.448C113.05 19.448 112.597 19.5273 112.168 19.686C111.739 19.8447 111.375 20.0547 111.076 20.316L110.628 19.574C111.001 19.2567 111.449 19.014 111.972 18.846C112.495 18.6687 113.045 18.58 113.624 18.58C114.576 18.58 115.309 18.818 115.822 19.294C116.345 19.7607 116.606 20.4747 116.606 21.436V26H115.654ZM113.12 26.07C112.569 26.07 112.089 25.9813 111.678 25.804C111.277 25.6173 110.969 25.3653 110.754 25.048C110.539 24.7213 110.432 24.348 110.432 23.928C110.432 23.5453 110.521 23.2 110.698 22.892C110.885 22.5747 111.183 22.3227 111.594 22.136C112.014 21.94 112.574 21.842 113.274 21.842H115.808V22.584H113.302C112.593 22.584 112.098 22.71 111.818 22.962C111.547 23.214 111.412 23.5267 111.412 23.9C111.412 24.32 111.575 24.656 111.902 24.908C112.229 25.16 112.686 25.286 113.274 25.286C113.834 25.286 114.315 25.16 114.716 24.908C115.127 24.6467 115.425 24.2733 115.612 23.788L115.836 24.474C115.649 24.9593 115.323 25.3467 114.856 25.636C114.399 25.9253 113.82 26.07 113.12 26.07ZM121.059 26L117.797 18.65H118.833L121.829 25.468H121.339L124.377 18.65H125.357L122.081 26H121.059ZM129.548 26.07C128.839 26.07 128.199 25.9113 127.63 25.594C127.07 25.2673 126.627 24.824 126.3 24.264C125.973 23.6947 125.81 23.046 125.81 22.318C125.81 21.5807 125.973 20.932 126.3 20.372C126.627 19.812 127.07 19.3733 127.63 19.056C128.19 18.7387 128.829 18.58 129.548 18.58C130.276 18.58 130.92 18.7387 131.48 19.056C132.049 19.3733 132.493 19.812 132.81 20.372C133.137 20.932 133.3 21.5807 133.3 22.318C133.3 23.046 133.137 23.6947 132.81 24.264C132.493 24.824 132.049 25.2673 131.48 25.594C130.911 25.9113 130.267 26.07 129.548 26.07ZM129.548 25.188C130.08 25.188 130.551 25.0713 130.962 24.838C131.373 24.5953 131.695 24.2593 131.928 23.83C132.171 23.3913 132.292 22.8873 132.292 22.318C132.292 21.7393 132.171 21.2353 131.928 20.806C131.695 20.3767 131.373 20.0453 130.962 19.812C130.551 19.5693 130.085 19.448 129.562 19.448C129.039 19.448 128.573 19.5693 128.162 19.812C127.751 20.0453 127.425 20.3767 127.182 20.806C126.939 21.2353 126.818 21.7393 126.818 22.318C126.818 22.8873 126.939 23.3913 127.182 23.83C127.425 24.2593 127.751 24.5953 128.162 24.838C128.573 25.0713 129.035 25.188 129.548 25.188ZM135.329 26V18.65H136.281V20.652L136.183 20.302C136.389 19.742 136.734 19.3173 137.219 19.028C137.705 18.7293 138.307 18.58 139.025 18.58V19.546C138.988 19.546 138.951 19.546 138.913 19.546C138.876 19.5367 138.839 19.532 138.801 19.532C138.027 19.532 137.42 19.77 136.981 20.246C136.543 20.7127 136.323 21.38 136.323 22.248V26H135.329ZM142.895 26.07C142.288 26.07 141.714 25.986 141.173 25.818C140.632 25.6407 140.207 25.4213 139.899 25.16L140.347 24.376C140.646 24.6 141.028 24.796 141.495 24.964C141.962 25.1227 142.452 25.202 142.965 25.202C143.665 25.202 144.169 25.0947 144.477 24.88C144.785 24.656 144.939 24.362 144.939 23.998C144.939 23.7273 144.85 23.5173 144.673 23.368C144.505 23.2093 144.281 23.0927 144.001 23.018C143.721 22.934 143.408 22.864 143.063 22.808C142.718 22.752 142.372 22.6867 142.027 22.612C141.691 22.5373 141.383 22.43 141.103 22.29C140.823 22.1407 140.594 21.94 140.417 21.688C140.249 21.436 140.165 21.1 140.165 20.68C140.165 20.2787 140.277 19.9193 140.501 19.602C140.725 19.2847 141.052 19.0373 141.481 18.86C141.92 18.6733 142.452 18.58 143.077 18.58C143.553 18.58 144.029 18.6453 144.505 18.776C144.981 18.8973 145.373 19.0607 145.681 19.266L145.247 20.064C144.92 19.84 144.57 19.6813 144.197 19.588C143.824 19.4853 143.45 19.434 143.077 19.434C142.414 19.434 141.924 19.5507 141.607 19.784C141.299 20.008 141.145 20.2973 141.145 20.652C141.145 20.932 141.229 21.1513 141.397 21.31C141.574 21.4687 141.803 21.5947 142.083 21.688C142.372 21.772 142.685 21.842 143.021 21.898C143.366 21.954 143.707 22.024 144.043 22.108C144.388 22.1827 144.701 22.29 144.981 22.43C145.27 22.5607 145.499 22.752 145.667 23.004C145.844 23.2467 145.933 23.5687 145.933 23.97C145.933 24.3993 145.812 24.7727 145.569 25.09C145.336 25.398 144.99 25.6407 144.533 25.818C144.085 25.986 143.539 26.07 142.895 26.07ZM147.155 28.044L147.771 25.454L147.883 26.056C147.668 26.056 147.486 25.986 147.337 25.846C147.197 25.706 147.127 25.524 147.127 25.3C147.127 25.076 147.197 24.894 147.337 24.754C147.486 24.614 147.664 24.544 147.869 24.544C148.084 24.544 148.256 24.6187 148.387 24.768C148.527 24.9173 148.597 25.0947 148.597 25.3C148.597 25.3747 148.592 25.4493 148.583 25.524C148.574 25.5987 148.555 25.6827 148.527 25.776C148.499 25.8693 148.462 25.9813 148.415 26.112L147.827 28.044H147.155ZM158.854 26.084C158.117 26.084 157.435 25.9627 156.81 25.72C156.185 25.468 155.643 25.118 155.186 24.67C154.729 24.222 154.369 23.6947 154.108 23.088C153.856 22.4813 153.73 21.8187 153.73 21.1C153.73 20.3813 153.856 19.7187 154.108 19.112C154.369 18.5053 154.729 17.978 155.186 17.53C155.653 17.082 156.199 16.7367 156.824 16.494C157.449 16.242 158.131 16.116 158.868 16.116C159.577 16.116 160.245 16.2373 160.87 16.48C161.495 16.7133 162.023 17.068 162.452 17.544L161.794 18.202C161.393 17.7913 160.949 17.4973 160.464 17.32C159.979 17.1333 159.456 17.04 158.896 17.04C158.308 17.04 157.762 17.1427 157.258 17.348C156.754 17.544 156.315 17.8287 155.942 18.202C155.569 18.566 155.275 18.9953 155.06 19.49C154.855 19.9753 154.752 20.512 154.752 21.1C154.752 21.688 154.855 22.2293 155.06 22.724C155.275 23.2093 155.569 23.6387 155.942 24.012C156.315 24.376 156.754 24.6607 157.258 24.866C157.762 25.062 158.308 25.16 158.896 25.16C159.456 25.16 159.979 25.0667 160.464 24.88C160.949 24.6933 161.393 24.3947 161.794 23.984L162.452 24.642C162.023 25.118 161.495 25.4773 160.87 25.72C160.245 25.9627 159.573 26.084 158.854 26.084ZM164.45 26V18.65H165.444V26H164.45ZM164.954 17.026C164.749 17.026 164.576 16.956 164.436 16.816C164.296 16.676 164.226 16.508 164.226 16.312C164.226 16.116 164.296 15.9527 164.436 15.822C164.576 15.682 164.749 15.612 164.954 15.612C165.16 15.612 165.332 15.6773 165.472 15.808C165.612 15.9387 165.682 16.102 165.682 16.298C165.682 16.5033 165.612 16.676 165.472 16.816C165.342 16.956 165.169 17.026 164.954 17.026ZM170.534 26.07C169.844 26.07 169.312 25.8833 168.938 25.51C168.565 25.1367 168.378 24.6093 168.378 23.928V17.026H169.372V23.872C169.372 24.3013 169.48 24.6327 169.694 24.866C169.918 25.0993 170.236 25.216 170.646 25.216C171.085 25.216 171.449 25.09 171.738 24.838L172.088 25.552C171.892 25.7293 171.654 25.86 171.374 25.944C171.104 26.028 170.824 26.07 170.534 26.07ZM167.062 19.476V18.65H171.612V19.476H167.062ZM173.898 26V18.65H174.85V20.652L174.752 20.302C174.957 19.742 175.302 19.3173 175.788 19.028C176.273 18.7293 176.875 18.58 177.594 18.58V19.546C177.556 19.546 177.519 19.546 177.482 19.546C177.444 19.5367 177.407 19.532 177.37 19.532C176.595 19.532 175.988 19.77 175.55 20.246C175.111 20.7127 174.892 21.38 174.892 22.248V26H173.898ZM179.407 26V18.65H180.401V26H179.407ZM179.911 17.026C179.706 17.026 179.533 16.956 179.393 16.816C179.253 16.676 179.183 16.508 179.183 16.312C179.183 16.116 179.253 15.9527 179.393 15.822C179.533 15.682 179.706 15.612 179.911 15.612C180.117 15.612 180.289 15.6773 180.429 15.808C180.569 15.9387 180.639 16.102 180.639 16.298C180.639 16.5033 180.569 16.676 180.429 16.816C180.299 16.956 180.126 17.026 179.911 17.026ZM186.219 26.07C185.491 26.07 184.838 25.9113 184.259 25.594C183.69 25.2673 183.242 24.824 182.915 24.264C182.589 23.6947 182.425 23.046 182.425 22.318C182.425 21.5807 182.589 20.932 182.915 20.372C183.242 19.812 183.69 19.3733 184.259 19.056C184.838 18.7387 185.491 18.58 186.219 18.58C186.845 18.58 187.409 18.7013 187.913 18.944C188.417 19.1867 188.814 19.5507 189.103 20.036L188.361 20.54C188.109 20.1667 187.797 19.8913 187.423 19.714C187.05 19.5367 186.644 19.448 186.205 19.448C185.683 19.448 185.211 19.5693 184.791 19.812C184.371 20.0453 184.04 20.3767 183.797 20.806C183.555 21.2353 183.433 21.7393 183.433 22.318C183.433 22.8967 183.555 23.4007 183.797 23.83C184.04 24.2593 184.371 24.5953 184.791 24.838C185.211 25.0713 185.683 25.188 186.205 25.188C186.644 25.188 187.05 25.0993 187.423 24.922C187.797 24.7447 188.109 24.474 188.361 24.11L189.103 24.614C188.814 25.09 188.417 25.454 187.913 25.706C187.409 25.9487 186.845 26.07 186.219 26.07ZM193.362 26L197.842 16.2H198.864L203.344 26H202.252L198.136 16.802H198.556L194.44 26H193.362ZM195.126 23.382L195.434 22.542H201.132L201.44 23.382H195.126ZM207.739 26.07C207.011 26.07 206.357 25.9113 205.779 25.594C205.209 25.2673 204.761 24.824 204.435 24.264C204.108 23.6947 203.945 23.046 203.945 22.318C203.945 21.5807 204.108 20.932 204.435 20.372C204.761 19.812 205.209 19.3733 205.779 19.056C206.357 18.7387 207.011 18.58 207.739 18.58C208.364 18.58 208.929 18.7013 209.433 18.944C209.937 19.1867 210.333 19.5507 210.623 20.036L209.881 20.54C209.629 20.1667 209.316 19.8913 208.943 19.714C208.569 19.5367 208.163 19.448 207.725 19.448C207.202 19.448 206.731 19.5693 206.311 19.812C205.891 20.0453 205.559 20.3767 205.317 20.806C205.074 21.2353 204.953 21.7393 204.953 22.318C204.953 22.8967 205.074 23.4007 205.317 23.83C205.559 24.2593 205.891 24.5953 206.311 24.838C206.731 25.0713 207.202 25.188 207.725 25.188C208.163 25.188 208.569 25.0993 208.943 24.922C209.316 24.7447 209.629 24.474 209.881 24.11L210.623 24.614C210.333 25.09 209.937 25.454 209.433 25.706C208.929 25.9487 208.364 26.07 207.739 26.07ZM212.466 26V18.65H213.46V26H212.466ZM212.97 17.026C212.765 17.026 212.592 16.956 212.452 16.816C212.312 16.676 212.242 16.508 212.242 16.312C212.242 16.116 212.312 15.9527 212.452 15.822C212.592 15.682 212.765 15.612 212.97 15.612C213.175 15.612 213.348 15.6773 213.488 15.808C213.628 15.9387 213.698 16.102 213.698 16.298C213.698 16.5033 213.628 16.676 213.488 16.816C213.357 16.956 213.185 17.026 212.97 17.026ZM219.152 26.07C218.452 26.07 217.822 25.9113 217.262 25.594C216.711 25.2767 216.277 24.838 215.96 24.278C215.643 23.7087 215.484 23.0553 215.484 22.318C215.484 21.5713 215.643 20.918 215.96 20.358C216.277 19.798 216.711 19.364 217.262 19.056C217.822 18.7387 218.452 18.58 219.152 18.58C219.796 18.58 220.37 18.7247 220.874 19.014C221.387 19.3033 221.793 19.728 222.092 20.288C222.4 20.8387 222.554 21.5153 222.554 22.318C222.554 23.1113 222.405 23.788 222.106 24.348C221.807 24.908 221.401 25.3373 220.888 25.636C220.384 25.9253 219.805 26.07 219.152 26.07ZM219.222 25.188C219.745 25.188 220.211 25.0713 220.622 24.838C221.042 24.5953 221.369 24.2593 221.602 23.83C221.845 23.3913 221.966 22.8873 221.966 22.318C221.966 21.7393 221.845 21.2353 221.602 20.806C221.369 20.3767 221.042 20.0453 220.622 19.812C220.211 19.5693 219.745 19.448 219.222 19.448C218.709 19.448 218.247 19.5693 217.836 19.812C217.425 20.0453 217.099 20.3767 216.856 20.806C216.613 21.2353 216.492 21.7393 216.492 22.318C216.492 22.8873 216.613 23.3913 216.856 23.83C217.099 24.2593 217.425 24.5953 217.836 24.838C218.247 25.0713 218.709 25.188 219.222 25.188ZM221.994 26V23.788L222.092 22.304L221.952 20.82V15.612H222.946V26H221.994ZM225.112 28.044L225.728 25.454L225.84 26.056C225.625 26.056 225.443 25.986 225.294 25.846C225.154 25.706 225.084 25.524 225.084 25.3C225.084 25.076 225.154 24.894 225.294 24.754C225.443 24.614 225.621 24.544 225.826 24.544C226.041 24.544 226.213 24.6187 226.344 24.768C226.484 24.9173 226.554 25.0947 226.554 25.3C226.554 25.3747 226.549 25.4493 226.54 25.524C226.531 25.5987 226.512 25.6827 226.484 25.776C226.456 25.8693 226.419 25.9813 226.372 26.112L225.784 28.044H225.112ZM232.555 26V16.2H233.409L237.889 23.844H237.441L241.879 16.2H242.733V26H241.739V17.754H241.977L237.889 24.754H237.399L233.283 17.754H233.549V26H232.555ZM248.712 26.07C248.003 26.07 247.363 25.9113 246.794 25.594C246.234 25.2673 245.791 24.824 245.464 24.264C245.137 23.6947 244.974 23.046 244.974 22.318C244.974 21.5807 245.137 20.932 245.464 20.372C245.791 19.812 246.234 19.3733 246.794 19.056C247.354 18.7387 247.993 18.58 248.712 18.58C249.44 18.58 250.084 18.7387 250.644 19.056C251.213 19.3733 251.657 19.812 251.974 20.372C252.301 20.932 252.464 21.5807 252.464 22.318C252.464 23.046 252.301 23.6947 251.974 24.264C251.657 24.824 251.213 25.2673 250.644 25.594C250.075 25.9113 249.431 26.07 248.712 26.07ZM248.712 25.188C249.244 25.188 249.715 25.0713 250.126 24.838C250.537 24.5953 250.859 24.2593 251.092 23.83C251.335 23.3913 251.456 22.8873 251.456 22.318C251.456 21.7393 251.335 21.2353 251.092 20.806C250.859 20.3767 250.537 20.0453 250.126 19.812C249.715 19.5693 249.249 19.448 248.726 19.448C248.203 19.448 247.737 19.5693 247.326 19.812C246.915 20.0453 246.589 20.3767 246.346 20.806C246.103 21.2353 245.982 21.7393 245.982 22.318C245.982 22.8873 246.103 23.3913 246.346 23.83C246.589 24.2593 246.915 24.5953 247.326 24.838C247.737 25.0713 248.199 25.188 248.712 25.188ZM258.245 18.58C258.843 18.58 259.365 18.6967 259.813 18.93C260.271 19.154 260.625 19.4993 260.877 19.966C261.139 20.4327 261.269 21.0207 261.269 21.73V26H260.275V21.828C260.275 21.0533 260.079 20.47 259.687 20.078C259.305 19.6767 258.763 19.476 258.063 19.476C257.541 19.476 257.083 19.5833 256.691 19.798C256.309 20.0033 256.01 20.3067 255.795 20.708C255.59 21.1 255.487 21.576 255.487 22.136V26H254.493V18.65H255.445V20.666L255.291 20.288C255.525 19.756 255.898 19.3407 256.411 19.042C256.925 18.734 257.536 18.58 258.245 18.58ZM264.738 24.096L264.766 22.822L269.344 18.65H270.562L267.328 21.744L266.768 22.22L264.738 24.096ZM263.954 26V15.612H264.948V26H263.954ZM269.652 26L266.586 22.178L267.23 21.408L270.87 26H269.652ZM277.161 20.946H282.341V21.842H277.161V20.946ZM277.273 26H276.237V16.2H282.957V17.096H277.273V26ZM284.749 26V18.65H285.701V20.652L285.603 20.302C285.809 19.742 286.154 19.3173 286.639 19.028C287.125 18.7293 287.727 18.58 288.445 18.58V19.546C288.408 19.546 288.371 19.546 288.333 19.546C288.296 19.5367 288.259 19.532 288.221 19.532C287.447 19.532 286.84 19.77 286.401 20.246C285.963 20.7127 285.743 21.38 285.743 22.248V26H284.749ZM293.406 26.07C292.781 26.07 292.235 25.9533 291.768 25.72C291.302 25.4867 290.938 25.1367 290.676 24.67C290.424 24.2033 290.298 23.62 290.298 22.92V18.65H291.292V22.808C291.292 23.592 291.484 24.1847 291.866 24.586C292.258 24.978 292.804 25.174 293.504 25.174C294.018 25.174 294.461 25.0713 294.834 24.866C295.217 24.6513 295.506 24.3433 295.702 23.942C295.908 23.5407 296.01 23.06 296.01 22.5V18.65H297.004V26H296.052V23.984L296.206 24.348C295.973 24.8893 295.609 25.314 295.114 25.622C294.629 25.9207 294.06 26.07 293.406 26.07ZM299.775 26V18.65H300.769V26H299.775ZM300.279 17.026C300.073 17.026 299.901 16.956 299.761 16.816C299.621 16.676 299.551 16.508 299.551 16.312C299.551 16.116 299.621 15.9527 299.761 15.822C299.901 15.682 300.073 15.612 300.279 15.612C300.484 15.612 300.657 15.6773 300.797 15.808C300.937 15.9387 301.007 16.102 301.007 16.298C301.007 16.5033 300.937 16.676 300.797 16.816C300.666 16.956 300.493 17.026 300.279 17.026ZM305.858 26.07C305.168 26.07 304.636 25.8833 304.262 25.51C303.889 25.1367 303.702 24.6093 303.702 23.928V17.026H304.696V23.872C304.696 24.3013 304.804 24.6327 305.018 24.866C305.242 25.0993 305.56 25.216 305.97 25.216C306.409 25.216 306.773 25.09 307.062 24.838L307.412 25.552C307.216 25.7293 306.978 25.86 306.698 25.944C306.428 26.028 306.148 26.07 305.858 26.07ZM302.386 19.476V18.65H306.936V19.476H302.386ZM314.02 20.582H319.2V21.464H314.02V20.582ZM314.132 25.104H320.026V26H313.096V16.2H319.816V17.096H314.132V25.104ZM320.926 26L324.034 21.968L324.02 22.458L321.066 18.65H322.186L324.608 21.8L324.188 21.786L326.61 18.65H327.702L324.72 22.5L324.734 21.968L327.87 26H326.736L324.174 22.64L324.566 22.696L322.046 26H320.926ZM331.849 26.07C331.158 26.07 330.626 25.8833 330.253 25.51C329.879 25.1367 329.693 24.6093 329.693 23.928V17.026H330.687V23.872C330.687 24.3013 330.794 24.6327 331.009 24.866C331.233 25.0993 331.55 25.216 331.961 25.216C332.399 25.216 332.763 25.09 333.053 24.838L333.403 25.552C333.207 25.7293 332.969 25.86 332.689 25.944C332.418 26.028 332.138 26.07 331.849 26.07ZM328.377 19.476V18.65H332.927V19.476H328.377ZM335.212 26V18.65H336.164V20.652L336.066 20.302C336.272 19.742 336.617 19.3173 337.102 19.028C337.588 18.7293 338.19 18.58 338.908 18.58V19.546C338.871 19.546 338.834 19.546 338.796 19.546C338.759 19.5367 338.722 19.532 338.684 19.532C337.91 19.532 337.303 19.77 336.864 20.246C336.426 20.7127 336.206 21.38 336.206 22.248V26H335.212ZM344.781 26V24.376L344.739 24.11V21.394C344.739 20.7687 344.562 20.288 344.207 19.952C343.862 19.616 343.344 19.448 342.653 19.448C342.177 19.448 341.724 19.5273 341.295 19.686C340.866 19.8447 340.502 20.0547 340.203 20.316L339.755 19.574C340.128 19.2567 340.576 19.014 341.099 18.846C341.622 18.6687 342.172 18.58 342.751 18.58C343.703 18.58 344.436 18.818 344.949 19.294C345.472 19.7607 345.733 20.4747 345.733 21.436V26H344.781ZM342.247 26.07C341.696 26.07 341.216 25.9813 340.805 25.804C340.404 25.6173 340.096 25.3653 339.881 25.048C339.666 24.7213 339.559 24.348 339.559 23.928C339.559 23.5453 339.648 23.2 339.825 22.892C340.012 22.5747 340.31 22.3227 340.721 22.136C341.141 21.94 341.701 21.842 342.401 21.842H344.935V22.584H342.429C341.72 22.584 341.225 22.71 340.945 22.962C340.674 23.214 340.539 23.5267 340.539 23.9C340.539 24.32 340.702 24.656 341.029 24.908C341.356 25.16 341.813 25.286 342.401 25.286C342.961 25.286 343.442 25.16 343.843 24.908C344.254 24.6467 344.552 24.2733 344.739 23.788L344.963 24.474C344.776 24.9593 344.45 25.3467 343.983 25.636C343.526 25.9253 342.947 26.07 342.247 26.07ZM351.485 26.07C350.757 26.07 350.104 25.9113 349.525 25.594C348.956 25.2673 348.508 24.824 348.181 24.264C347.854 23.6947 347.691 23.046 347.691 22.318C347.691 21.5807 347.854 20.932 348.181 20.372C348.508 19.812 348.956 19.3733 349.525 19.056C350.104 18.7387 350.757 18.58 351.485 18.58C352.11 18.58 352.675 18.7013 353.179 18.944C353.683 19.1867 354.08 19.5507 354.369 20.036L353.627 20.54C353.375 20.1667 353.062 19.8913 352.689 19.714C352.316 19.5367 351.91 19.448 351.471 19.448C350.948 19.448 350.477 19.5693 350.057 19.812C349.637 20.0453 349.306 20.3767 349.063 20.806C348.82 21.2353 348.699 21.7393 348.699 22.318C348.699 22.8967 348.82 23.4007 349.063 23.83C349.306 24.2593 349.637 24.5953 350.057 24.838C350.477 25.0713 350.948 25.188 351.471 25.188C351.91 25.188 352.316 25.0993 352.689 24.922C353.062 24.7447 353.375 24.474 353.627 24.11L354.369 24.614C354.08 25.09 353.683 25.454 353.179 25.706C352.675 25.9487 352.11 26.07 351.485 26.07ZM358.728 26.07C358.037 26.07 357.505 25.8833 357.132 25.51C356.758 25.1367 356.572 24.6093 356.572 23.928V17.026H357.566V23.872C357.566 24.3013 357.673 24.6327 357.888 24.866C358.112 25.0993 358.429 25.216 358.84 25.216C359.278 25.216 359.642 25.09 359.932 24.838L360.282 25.552C360.086 25.7293 359.848 25.86 359.568 25.944C359.297 26.028 359.017 26.07 358.728 26.07ZM355.256 19.476V18.65H359.806V19.476H355.256ZM361.626 28.044L362.242 25.454L362.354 26.056C362.139 26.056 361.957 25.986 361.808 25.846C361.668 25.706 361.598 25.524 361.598 25.3C361.598 25.076 361.668 24.894 361.808 24.754C361.957 24.614 362.134 24.544 362.34 24.544C362.554 24.544 362.727 24.6187 362.858 24.768C362.998 24.9173 363.068 25.0947 363.068 25.3C363.068 25.3747 363.063 25.4493 363.054 25.524C363.044 25.5987 363.026 25.6827 362.998 25.776C362.97 25.8693 362.932 25.9813 362.886 26.112L362.298 28.044H361.626ZM369.069 26V16.2H372.737C373.567 16.2 374.281 16.3353 374.879 16.606C375.476 16.8673 375.933 17.25 376.251 17.754C376.577 18.2487 376.741 18.8507 376.741 19.56C376.741 20.2507 376.577 20.848 376.251 21.352C375.933 21.8467 375.476 22.2293 374.879 22.5C374.281 22.7613 373.567 22.892 372.737 22.892H369.643L370.105 22.416V26H369.069ZM375.761 26L373.241 22.444H374.361L376.895 26H375.761ZM370.105 22.5L369.643 22.01H372.709C373.689 22.01 374.431 21.7953 374.935 21.366C375.448 20.9367 375.705 20.3347 375.705 19.56C375.705 18.776 375.448 18.1693 374.935 17.74C374.431 17.3107 373.689 17.096 372.709 17.096H369.643L370.105 16.606V22.5ZM382.098 26.07C381.333 26.07 380.661 25.9113 380.082 25.594C379.503 25.2673 379.051 24.824 378.724 24.264C378.397 23.6947 378.234 23.046 378.234 22.318C378.234 21.59 378.388 20.946 378.696 20.386C379.013 19.826 379.443 19.3873 379.984 19.07C380.535 18.7433 381.151 18.58 381.832 18.58C382.523 18.58 383.134 18.7387 383.666 19.056C384.207 19.364 384.632 19.8027 384.94 20.372C385.248 20.932 385.402 21.5807 385.402 22.318C385.402 22.3647 385.397 22.416 385.388 22.472C385.388 22.5187 385.388 22.57 385.388 22.626H378.99V21.884H384.856L384.464 22.178C384.464 21.646 384.347 21.1747 384.114 20.764C383.89 20.344 383.582 20.0173 383.19 19.784C382.798 19.5507 382.345 19.434 381.832 19.434C381.328 19.434 380.875 19.5507 380.474 19.784C380.073 20.0173 379.76 20.344 379.536 20.764C379.312 21.184 379.2 21.6647 379.2 22.206V22.36C379.2 22.92 379.321 23.4147 379.564 23.844C379.816 24.264 380.161 24.5953 380.6 24.838C381.048 25.0713 381.557 25.188 382.126 25.188C382.574 25.188 382.989 25.1087 383.372 24.95C383.764 24.7913 384.1 24.5487 384.38 24.222L384.94 24.866C384.613 25.258 384.203 25.5567 383.708 25.762C383.223 25.9673 382.686 26.07 382.098 26.07ZM390.351 26.07C389.651 26.07 389.021 25.9113 388.461 25.594C387.91 25.2767 387.476 24.838 387.159 24.278C386.842 23.7087 386.683 23.0553 386.683 22.318C386.683 21.5713 386.842 20.918 387.159 20.358C387.476 19.798 387.91 19.364 388.461 19.056C389.021 18.7387 389.651 18.58 390.351 18.58C390.995 18.58 391.569 18.7247 392.073 19.014C392.586 19.3033 392.992 19.728 393.291 20.288C393.599 20.8387 393.753 21.5153 393.753 22.318C393.753 23.1113 393.604 23.788 393.305 24.348C393.006 24.908 392.6 25.3373 392.087 25.636C391.583 25.9253 391.004 26.07 390.351 26.07ZM390.421 25.188C390.944 25.188 391.41 25.0713 391.821 24.838C392.241 24.5953 392.568 24.2593 392.801 23.83C393.044 23.3913 393.165 22.8873 393.165 22.318C393.165 21.7393 393.044 21.2353 392.801 20.806C392.568 20.3767 392.241 20.0453 391.821 19.812C391.41 19.5693 390.944 19.448 390.421 19.448C389.908 19.448 389.446 19.5693 389.035 19.812C388.624 20.0453 388.298 20.3767 388.055 20.806C387.812 21.2353 387.691 21.7393 387.691 22.318C387.691 22.8873 387.812 23.3913 388.055 23.83C388.298 24.2593 388.624 24.5953 389.035 24.838C389.446 25.0713 389.908 25.188 390.421 25.188ZM393.193 26V23.788L393.291 22.304L393.151 20.82V15.612H394.145V26H393.193ZM1.596 41V31.2H5.264C6.09467 31.2 6.80867 31.3353 7.406 31.606C8.00333 31.8673 8.46067 32.25 8.778 32.754C9.10467 33.2487 9.268 33.8507 9.268 34.56C9.268 35.2507 9.10467 35.848 8.778 36.352C8.46067 36.8467 8.00333 37.2293 7.406 37.5C6.80867 37.7613 6.09467 37.892 5.264 37.892H2.17L2.632 37.416V41H1.596ZM8.288 41L5.768 37.444H6.888L9.422 41H8.288ZM2.632 37.5L2.17 37.01H5.236C6.216 37.01 6.958 36.7953 7.462 36.366C7.97533 35.9367 8.232 35.3347 8.232 34.56C8.232 33.776 7.97533 33.1693 7.462 32.74C6.958 32.3107 6.216 32.096 5.236 32.096H2.17L2.632 31.606V37.5ZM16.0408 41V39.376L15.9988 39.11V36.394C15.9988 35.7687 15.8215 35.288 15.4668 34.952C15.1215 34.616 14.6035 34.448 13.9128 34.448C13.4368 34.448 12.9842 34.5273 12.5548 34.686C12.1255 34.8447 11.7615 35.0547 11.4628 35.316L11.0148 34.574C11.3882 34.2567 11.8362 34.014 12.3588 33.846C12.8815 33.6687 13.4322 33.58 14.0108 33.58C14.9628 33.58 15.6955 33.818 16.2088 34.294C16.7315 34.7607 16.9928 35.4747 16.9928 36.436V41H16.0408ZM13.5068 41.07C12.9562 41.07 12.4755 40.9813 12.0648 40.804C11.6635 40.6173 11.3555 40.3653 11.1408 40.048C10.9262 39.7213 10.8188 39.348 10.8188 38.928C10.8188 38.5453 10.9075 38.2 11.0848 37.892C11.2715 37.5747 11.5702 37.3227 11.9808 37.136C12.4008 36.94 12.9608 36.842 13.6608 36.842H16.1948V37.584H13.6888C12.9795 37.584 12.4848 37.71 12.2048 37.962C11.9342 38.214 11.7988 38.5267 11.7988 38.9C11.7988 39.32 11.9622 39.656 12.2888 39.908C12.6155 40.16 13.0728 40.286 13.6608 40.286C14.2208 40.286 14.7015 40.16 15.1028 39.908C15.5135 39.6467 15.8122 39.2733 15.9988 38.788L16.2228 39.474C16.0362 39.9593 15.7095 40.3467 15.2428 40.636C14.7855 40.9253 14.2068 41.07 13.5068 41.07ZM22.6186 41.07C21.9186 41.07 21.2886 40.9113 20.7286 40.594C20.178 40.2767 19.744 39.838 19.4266 39.278C19.1093 38.7087 18.9506 38.0553 18.9506 37.318C18.9506 36.5713 19.1093 35.918 19.4266 35.358C19.744 34.798 20.178 34.364 20.7286 34.056C21.2886 33.7387 21.9186 33.58 22.6186 33.58C23.2626 33.58 23.8366 33.7247 24.3406 34.014C24.854 34.3033 25.26 34.728 25.5586 35.288C25.8666 35.8387 26.0206 36.5153 26.0206 37.318C26.0206 38.1113 25.8713 38.788 25.5726 39.348C25.274 39.908 24.868 40.3373 24.3546 40.636C23.8506 40.9253 23.272 41.07 22.6186 41.07ZM22.6886 40.188C23.2113 40.188 23.678 40.0713 24.0886 39.838C24.5086 39.5953 24.8353 39.2593 25.0686 38.83C25.3113 38.3913 25.4326 37.8873 25.4326 37.318C25.4326 36.7393 25.3113 36.2353 25.0686 35.806C24.8353 35.3767 24.5086 35.0453 24.0886 34.812C23.678 34.5693 23.2113 34.448 22.6886 34.448C22.1753 34.448 21.7133 34.5693 21.3026 34.812C20.892 35.0453 20.5653 35.3767 20.3226 35.806C20.08 36.2353 19.9586 36.7393 19.9586 37.318C19.9586 37.8873 20.08 38.3913 20.3226 38.83C20.5653 39.2593 20.892 39.5953 21.3026 39.838C21.7133 40.0713 22.1753 40.188 22.6886 40.188ZM25.4606 41V38.788L25.5586 37.304L25.4186 35.82V30.612H26.4126V41H25.4606ZM29.1809 41V33.65H30.1749V41H29.1809ZM29.6849 32.026C29.4796 32.026 29.3069 31.956 29.1669 31.816C29.0269 31.676 28.9569 31.508 28.9569 31.312C28.9569 31.116 29.0269 30.9527 29.1669 30.822C29.3069 30.682 29.4796 30.612 29.6849 30.612C29.8903 30.612 30.0629 30.6773 30.2029 30.808C30.3429 30.9387 30.4129 31.102 30.4129 31.298C30.4129 31.5033 30.3429 31.676 30.2029 31.816C30.0723 31.956 29.8996 32.026 29.6849 32.026ZM34.9147 41.07C34.308 41.07 33.734 40.986 33.1927 40.818C32.6514 40.6407 32.2267 40.4213 31.9187 40.16L32.3667 39.376C32.6654 39.6 33.048 39.796 33.5147 39.964C33.9814 40.1227 34.4714 40.202 34.9847 40.202C35.6847 40.202 36.1887 40.0947 36.4967 39.88C36.8047 39.656 36.9587 39.362 36.9587 38.998C36.9587 38.7273 36.87 38.5173 36.6927 38.368C36.5247 38.2093 36.3007 38.0927 36.0207 38.018C35.7407 37.934 35.428 37.864 35.0827 37.808C34.7374 37.752 34.392 37.6867 34.0467 37.612C33.7107 37.5373 33.4027 37.43 33.1227 37.29C32.8427 37.1407 32.614 36.94 32.4367 36.688C32.2687 36.436 32.1847 36.1 32.1847 35.68C32.1847 35.2787 32.2967 34.9193 32.5207 34.602C32.7447 34.2847 33.0714 34.0373 33.5007 33.86C33.9394 33.6733 34.4714 33.58 35.0967 33.58C35.5727 33.58 36.0487 33.6453 36.5247 33.776C37.0007 33.8973 37.3927 34.0607 37.7007 34.266L37.2667 35.064C36.94 34.84 36.59 34.6813 36.2167 34.588C35.8434 34.4853 35.47 34.434 35.0967 34.434C34.434 34.434 33.944 34.5507 33.6267 34.784C33.3187 35.008 33.1647 35.2973 33.1647 35.652C33.1647 35.932 33.2487 36.1513 33.4167 36.31C33.594 36.4687 33.8227 36.5947 34.1027 36.688C34.392 36.772 34.7047 36.842 35.0407 36.898C35.386 36.954 35.7267 37.024 36.0627 37.108C36.408 37.1827 36.7207 37.29 37.0007 37.43C37.29 37.5607 37.5187 37.752 37.6867 38.004C37.864 38.2467 37.9527 38.5687 37.9527 38.97C37.9527 39.3993 37.8314 39.7727 37.5887 40.09C37.3554 40.398 37.01 40.6407 36.5527 40.818C36.1047 40.986 35.5587 41.07 34.9147 41.07ZM43.5286 33.58C44.126 33.58 44.6486 33.6967 45.0966 33.93C45.554 34.154 45.9086 34.4993 46.1606 34.966C46.422 35.4327 46.5526 36.0207 46.5526 36.73V41H45.5586V36.828C45.5586 36.0533 45.3626 35.47 44.9706 35.078C44.588 34.6767 44.0466 34.476 43.3466 34.476C42.824 34.476 42.3666 34.5833 41.9746 34.798C41.592 35.0033 41.2933 35.3067 41.0786 35.708C40.8733 36.1 40.7706 36.576 40.7706 37.136V41H39.7766V30.612H40.7706V35.666L40.5746 35.288C40.808 34.756 41.1813 34.3407 41.6946 34.042C42.208 33.734 42.8193 33.58 43.5286 33.58ZM54.5956 43.716C54.0823 42.8667 53.681 41.8867 53.3916 40.776C53.1116 39.656 52.9716 38.452 52.9716 37.164C52.9716 35.876 53.1116 34.672 53.3916 33.552C53.681 32.4227 54.0823 31.4427 54.5956 30.612H55.5476C54.997 31.5733 54.591 32.5953 54.3296 33.678C54.0776 34.7513 53.9516 35.9133 53.9516 37.164C53.9516 38.4147 54.0776 39.5813 54.3296 40.664C54.591 41.7373 54.997 42.7547 55.5476 43.716H54.5956ZM57.719 41V31.2H58.573L65.335 39.712H64.887V31.2H65.909V41H65.055L58.307 32.488H58.755V41H57.719ZM73.5037 41V39.376L73.4617 39.11V36.394C73.4617 35.7687 73.2844 35.288 72.9297 34.952C72.5844 34.616 72.0664 34.448 71.3757 34.448C70.8997 34.448 70.4471 34.5273 70.0177 34.686C69.5884 34.8447 69.2244 35.0547 68.9257 35.316L68.4777 34.574C68.8511 34.2567 69.2991 34.014 69.8217 33.846C70.3444 33.6687 70.8951 33.58 71.4737 33.58C72.4257 33.58 73.1584 33.818 73.6717 34.294C74.1944 34.7607 74.4557 35.4747 74.4557 36.436V41H73.5037ZM70.9697 41.07C70.4191 41.07 69.9384 40.9813 69.5277 40.804C69.1264 40.6173 68.8184 40.3653 68.6037 40.048C68.3891 39.7213 68.2817 39.348 68.2817 38.928C68.2817 38.5453 68.3704 38.2 68.5477 37.892C68.7344 37.5747 69.0331 37.3227 69.4437 37.136C69.8637 36.94 70.4237 36.842 71.1237 36.842H73.6577V37.584H71.1517C70.4424 37.584 69.9477 37.71 69.6677 37.962C69.3971 38.214 69.2617 38.5267 69.2617 38.9C69.2617 39.32 69.4251 39.656 69.7517 39.908C70.0784 40.16 70.5357 40.286 71.1237 40.286C71.6837 40.286 72.1644 40.16 72.5657 39.908C72.9764 39.6467 73.2751 39.2733 73.4617 38.788L73.6857 39.474C73.4991 39.9593 73.1724 40.3467 72.7057 40.636C72.2484 40.9253 71.6697 41.07 70.9697 41.07ZM79.4795 41.07C78.7889 41.07 78.2569 40.8833 77.8835 40.51C77.5102 40.1367 77.3235 39.6093 77.3235 38.928V32.026H78.3175V38.872C78.3175 39.3013 78.4249 39.6327 78.6395 39.866C78.8635 40.0993 79.1809 40.216 79.5915 40.216C80.0302 40.216 80.3942 40.09 80.6835 39.838L81.0335 40.552C80.8375 40.7293 80.5995 40.86 80.3195 40.944C80.0489 41.028 79.7689 41.07 79.4795 41.07ZM76.0075 34.476V33.65H80.5575V34.476H76.0075ZM85.881 41.07C85.2557 41.07 84.7097 40.9533 84.243 40.72C83.7764 40.4867 83.4124 40.1367 83.151 39.67C82.899 39.2033 82.773 38.62 82.773 37.92V33.65H83.767V37.808C83.767 38.592 83.9584 39.1847 84.341 39.586C84.733 39.978 85.279 40.174 85.979 40.174C86.4924 40.174 86.9357 40.0713 87.309 39.866C87.6917 39.6513 87.981 39.3433 88.177 38.942C88.3824 38.5407 88.485 38.06 88.485 37.5V33.65H89.479V41H88.527V38.984L88.681 39.348C88.4477 39.8893 88.0837 40.314 87.589 40.622C87.1037 40.9207 86.5344 41.07 85.881 41.07ZM92.2493 41V33.65H93.2013V35.652L93.1033 35.302C93.3086 34.742 93.6539 34.3173 94.1393 34.028C94.6246 33.7293 95.2266 33.58 95.9453 33.58V34.546C95.9079 34.546 95.8706 34.546 95.8333 34.546C95.7959 34.5367 95.7586 34.532 95.7213 34.532C94.9466 34.532 94.3399 34.77 93.9013 35.246C93.4626 35.7127 93.2433 36.38 93.2433 37.248V41H92.2493ZM101.818 41V39.376L101.776 39.11V36.394C101.776 35.7687 101.599 35.288 101.244 34.952C100.899 34.616 100.381 34.448 99.6902 34.448C99.2142 34.448 98.7615 34.5273 98.3322 34.686C97.9028 34.8447 97.5388 35.0547 97.2402 35.316L96.7922 34.574C97.1655 34.2567 97.6135 34.014 98.1362 33.846C98.6588 33.6687 99.2095 33.58 99.7882 33.58C100.74 33.58 101.473 33.818 101.986 34.294C102.509 34.7607 102.77 35.4747 102.77 36.436V41H101.818ZM99.2842 41.07C98.7335 41.07 98.2528 40.9813 97.8422 40.804C97.4408 40.6173 97.1328 40.3653 96.9182 40.048C96.7035 39.7213 96.5962 39.348 96.5962 38.928C96.5962 38.5453 96.6848 38.2 96.8622 37.892C97.0488 37.5747 97.3475 37.3227 97.7582 37.136C98.1782 36.94 98.7382 36.842 99.4382 36.842H101.972V37.584H99.4662C98.7568 37.584 98.2622 37.71 97.9822 37.962C97.7115 38.214 97.5762 38.5267 97.5762 38.9C97.5762 39.32 97.7395 39.656 98.0662 39.908C98.3928 40.16 98.8502 40.286 99.4382 40.286C99.9982 40.286 100.479 40.16 100.88 39.908C101.291 39.6467 101.59 39.2733 101.776 38.788L102 39.474C101.814 39.9593 101.487 40.3467 101.02 40.636C100.563 40.9253 99.9842 41.07 99.2842 41.07ZM105.47 41V30.612H106.464V41H105.47ZM117.36 41.084C116.622 41.084 115.941 40.9627 115.316 40.72C114.69 40.468 114.149 40.118 113.692 39.67C113.234 39.222 112.875 38.6947 112.614 38.088C112.362 37.4813 112.236 36.8187 112.236 36.1C112.236 35.3813 112.362 34.7187 112.614 34.112C112.875 33.5053 113.234 32.978 113.692 32.53C114.158 32.082 114.704 31.7367 115.33 31.494C115.955 31.242 116.636 31.116 117.374 31.116C118.083 31.116 118.75 31.2373 119.376 31.48C120.001 31.7133 120.528 32.068 120.958 32.544L120.3 33.202C119.898 32.7913 119.455 32.4973 118.97 32.32C118.484 32.1333 117.962 32.04 117.402 32.04C116.814 32.04 116.268 32.1427 115.764 32.348C115.26 32.544 114.821 32.8287 114.448 33.202C114.074 33.566 113.78 33.9953 113.566 34.49C113.36 34.9753 113.258 35.512 113.258 36.1C113.258 36.688 113.36 37.2293 113.566 37.724C113.78 38.2093 114.074 38.6387 114.448 39.012C114.821 39.376 115.26 39.6607 115.764 39.866C116.268 40.062 116.814 40.16 117.402 40.16C117.962 40.16 118.484 40.0667 118.97 39.88C119.455 39.6933 119.898 39.3947 120.3 38.984L120.958 39.642C120.528 40.118 120.001 40.4773 119.376 40.72C118.75 40.9627 118.078 41.084 117.36 41.084ZM125.624 41.07C124.915 41.07 124.276 40.9113 123.706 40.594C123.146 40.2673 122.703 39.824 122.376 39.264C122.05 38.6947 121.886 38.046 121.886 37.318C121.886 36.5807 122.05 35.932 122.376 35.372C122.703 34.812 123.146 34.3733 123.706 34.056C124.266 33.7387 124.906 33.58 125.624 33.58C126.352 33.58 126.996 33.7387 127.556 34.056C128.126 34.3733 128.569 34.812 128.886 35.372C129.213 35.932 129.376 36.5807 129.376 37.318C129.376 38.046 129.213 38.6947 128.886 39.264C128.569 39.824 128.126 40.2673 127.556 40.594C126.987 40.9113 126.343 41.07 125.624 41.07ZM125.624 40.188C126.156 40.188 126.628 40.0713 127.038 39.838C127.449 39.5953 127.771 39.2593 128.004 38.83C128.247 38.3913 128.368 37.8873 128.368 37.318C128.368 36.7393 128.247 36.2353 128.004 35.806C127.771 35.3767 127.449 35.0453 127.038 34.812C126.628 34.5693 126.161 34.448 125.638 34.448C125.116 34.448 124.649 34.5693 124.238 34.812C123.828 35.0453 123.501 35.3767 123.258 35.806C123.016 36.2353 122.894 36.7393 122.894 37.318C122.894 37.8873 123.016 38.3913 123.258 38.83C123.501 39.2593 123.828 39.5953 124.238 39.838C124.649 40.0713 125.111 40.188 125.624 40.188ZM131.406 41V30.612H132.4V41H131.406ZM138.161 41.07C137.452 41.07 136.813 40.9113 136.243 40.594C135.683 40.2673 135.24 39.824 134.913 39.264C134.587 38.6947 134.423 38.046 134.423 37.318C134.423 36.5807 134.587 35.932 134.913 35.372C135.24 34.812 135.683 34.3733 136.243 34.056C136.803 33.7387 137.443 33.58 138.161 33.58C138.889 33.58 139.533 33.7387 140.093 34.056C140.663 34.3733 141.106 34.812 141.423 35.372C141.75 35.932 141.913 36.5807 141.913 37.318C141.913 38.046 141.75 38.6947 141.423 39.264C141.106 39.824 140.663 40.2673 140.093 40.594C139.524 40.9113 138.88 41.07 138.161 41.07ZM138.161 40.188C138.693 40.188 139.165 40.0713 139.575 39.838C139.986 39.5953 140.308 39.2593 140.541 38.83C140.784 38.3913 140.905 37.8873 140.905 37.318C140.905 36.7393 140.784 36.2353 140.541 35.806C140.308 35.3767 139.986 35.0453 139.575 34.812C139.165 34.5693 138.698 34.448 138.175 34.448C137.653 34.448 137.186 34.5693 136.775 34.812C136.365 35.0453 136.038 35.3767 135.795 35.806C135.553 36.2353 135.431 36.7393 135.431 37.318C135.431 37.8873 135.553 38.3913 135.795 38.83C136.038 39.2593 136.365 39.5953 136.775 39.838C137.186 40.0713 137.648 40.188 138.161 40.188ZM143.943 41V33.65H144.895V35.652L144.797 35.302C145.002 34.742 145.347 34.3173 145.833 34.028C146.318 33.7293 146.92 33.58 147.639 33.58V34.546C147.601 34.546 147.564 34.546 147.527 34.546C147.489 34.5367 147.452 34.532 147.415 34.532C146.64 34.532 146.033 34.77 145.595 35.246C145.156 35.7127 144.937 36.38 144.937 37.248V41H143.943ZM149.537 43.716H148.585C149.145 42.7547 149.551 41.7373 149.803 40.664C150.065 39.5813 150.195 38.4147 150.195 37.164C150.195 35.9133 150.065 34.7513 149.803 33.678C149.551 32.5953 149.145 31.5733 148.585 30.612H149.537C150.069 31.4427 150.475 32.4227 150.755 33.552C151.035 34.672 151.175 35.876 151.175 37.164C151.175 38.452 151.035 39.656 150.755 40.776C150.475 41.8867 150.069 42.8667 149.537 43.716ZM154.117 41.07C153.911 41.07 153.734 40.9953 153.585 40.846C153.445 40.6967 153.375 40.5147 153.375 40.3C153.375 40.076 153.445 39.894 153.585 39.754C153.734 39.614 153.911 39.544 154.117 39.544C154.322 39.544 154.495 39.614 154.635 39.754C154.784 39.894 154.859 40.076 154.859 40.3C154.859 40.5147 154.784 40.6967 154.635 40.846C154.495 40.9953 154.322 41.07 154.117 41.07Z"></path>
</svg>
